<svg width="393" height="852" fill="none" xmlns="http://www.w3.org/2000/svg"><g clip-path="url(#a)"><path fill="#A9A6E9" d="M0 0H393V852H0z"/><path d="M78 138.5v-5.667c0-3.005-1.159-5.888-3.222-8.014-2.063-2.125-4.86-3.319-7.778-3.319H45c-2.917 0-5.715 1.194-7.778 3.319-2.063 2.126-3.222 5.009-3.222 8.014v5.667m33-39.667c0 6.26-4.925 11.334-11 11.334s-11-5.074-11-11.334C45 92.574 49.925 87.5 56 87.5s11 5.074 11 11.333z" stroke="#F3F3F3" stroke-width="5" stroke-linecap="round" stroke-linejoin="round"/><path d="M115.984 89.6V112h-6.56V89.6h6.56zm7.264 10.56v1.6h-7.36v-1.6h7.36zm1.696-10.56v1.632h-9.056V89.6h9.056zm-1.696 12.096v3.712h-.32v-.16c0-1.003-.331-1.824-.992-2.464-.64-.661-1.461-1.003-2.464-1.024v-.064h3.776zm0-5.184v3.712h-3.776v-.064c1.003-.021 1.835-.363 2.496-1.024s.981-1.493.96-2.496v-.128h.32zm1.696-5.376v4.48h-.32v-.256c0-1.28-.363-2.283-1.088-3.008-.725-.747-1.739-1.13-3.04-1.152v-.064h4.448zm0-2.112v.928l-3.904-.352c.469 0 .96-.032 1.472-.096a21.805 21.805 0 001.472-.224c.448-.085.768-.17.96-.256zm-15.424 20.64V112h-2.56v-.32H107.376c.555 0 1.024-.192 1.408-.576.405-.405.619-.885.64-1.44h.096zm0-17.728h-.096a1.976 1.976 0 00-.64-1.408 1.865 1.865 0 00-1.408-.608H106.96v-.32h2.56v2.336zm6.368 17.728h.096c.021.555.224 1.035.608 1.44.405.384.885.576 1.44.576H118.448v.32h-2.56v-2.336zm22.748-17.248c1.834 0 3.466.224 4.896.672 1.45.448 2.677 1.099 3.68 1.952a8.007 8.007 0 012.304 3.136c.533 1.237.8 2.656.8 4.256 0 1.579-.267 2.987-.8 4.224a8.056 8.056 0 01-2.304 3.104c-1.003.853-2.23 1.504-3.68 1.952-1.43.448-3.062.672-4.896.672-1.814 0-3.446-.224-4.896-.672-1.43-.448-2.656-1.099-3.68-1.952a8.5 8.5 0 01-2.304-3.104c-.512-1.237-.768-2.645-.768-4.224 0-1.6.256-3.019.768-4.256a8.441 8.441 0 012.304-3.136c1.024-.853 2.25-1.504 3.68-1.952 1.45-.448 3.082-.672 4.896-.672zm0 18.528c1.13 0 2.069-.331 2.816-.992.768-.683 1.344-1.653 1.728-2.912.384-1.28.576-2.816.576-4.608 0-1.813-.192-3.36-.576-4.64-.384-1.28-.96-2.25-1.728-2.912-.747-.683-1.686-1.024-2.816-1.024-1.11 0-2.048.341-2.816 1.024-.747.661-1.323 1.632-1.728 2.912-.384 1.28-.576 2.827-.576 4.64 0 1.792.192 3.328.576 4.608.405 1.259.981 2.229 1.728 2.912.768.661 1.706.992 2.816.992zM159.869 92.8h2.976c.81 0 1.642.075 2.496.224a7.86 7.86 0 012.367.736 4.375 4.375 0 011.761 1.6c.448.683.672 1.59.672 2.72 0 .64-.118 1.323-.352 2.048-.214.725-.619 1.376-1.216 1.952-.576.555-1.419.928-2.528 1.12.81.213 1.525.619 2.144 1.216.618.597 1.066 1.141 1.344 1.632.149.256.309.576.48.96a43.04 43.04 0 001.536 2.656c.405.619.757 1.077 1.056 1.376.298.277.586.459.864.544.277.064.586.096.928.096v.32h-3.776c-1.131 0-2.112-.043-2.944-.128a5.09 5.09 0 01-2.24-.832c-.64-.469-1.27-1.227-1.888-2.272a20.31 20.31 0 01-.608-1.12c-.15-.363-.278-.715-.384-1.056a14.787 14.787 0 01-.288-1.056 26.393 26.393 0 00-.224-1.12c-.15-.747-.342-1.227-.576-1.44-.235-.235-.395-.363-.48-.384v-.256h.16c.341 0 .682-.107 1.024-.32.341-.213.64-.565.896-1.056.256-.512.426-1.216.512-2.112 0-.064.01-.181.032-.352.021-.17.021-.395 0-.672-.043-.917-.203-1.61-.48-2.08-.278-.49-.598-.832-.96-1.024-.342-.192-.651-.299-.928-.32a6.056 6.056 0 00-.48-.064h-.672c-.022 0-.054-.128-.096-.384a10.065 10.065 0 00-.096-.768l-.032-.384zm.256 0V112h-6.304V92.8h6.304zm-6.208 17.216l-.032 1.984h-2.048v-.32h.352c.426 0 .8-.16 1.12-.48a1.56 1.56 0 00.512-1.184h.096zm0-15.232h-.096c0-.49-.16-.885-.48-1.184-.32-.32-.694-.48-1.12-.48h-.384v-.32h2.048l.032 1.984zm6.144 15.232h.064c0 .555.192.971.576 1.248.384.277.757.416 1.12.416H162.109v.32h-2.016l-.032-1.984zm35.783-17.6l.256 4.064-9.344 12.992-.32.512c-.213.32-.416.725-.608 1.216a3.674 3.674 0 00-.256 1.504h-.256l-1.76-3.008 12.288-17.28zm-20.256 17.6V112h-3.04v-.32H172.964c.512 0 .96-.139 1.344-.416.384-.299.619-.715.704-1.248h.576zm1.664.448c-.021.171.043.416.192.736.171.32.459.48.864.48h.448v.32h-1.984l.32-1.536h.16zm.256-18.048h.224l1.376 3.84L177.06 112h-2.304l2.752-19.584zm.224 0l9.984 12.512-2.4 7.776-8.448-10.528.864-9.76zm18.4 0L198.948 112h-6.496l-1.28-8.8 4.672-10.784h.288zm1.92 17.6h.608c.107.533.342.949.704 1.248.384.277.811.416 1.28.416h.448v.32h-3.04v-1.984zm-5.824.448h.16l.32 1.536h-1.984v-.32h.448c.448 0 .736-.149.864-.448.15-.32.214-.576.192-.768zM208.392 92.8v12.064c0 1.877.405 3.349 1.216 4.416.832 1.045 1.984 1.568 3.456 1.568 1.45 0 2.57-.491 3.36-1.472.789-1.003 1.194-2.389 1.216-4.16V92.8h2.528v12.064c0 2.347-.694 4.192-2.08 5.536-1.387 1.323-3.392 1.984-6.016 1.984-3.478 0-6.006-.661-7.584-1.984-1.579-1.323-2.368-3.147-2.368-5.472V92.8h6.272zm-6.208 0v1.632h-.064c0-.405-.139-.736-.416-.992a1.414 1.414 0 00-.992-.384H200.296V92.8h1.888zm8.032 0v.256h-.448c-.384 0-.715.128-.992.384-.256.256-.384.587-.384.992h-.064V92.8h1.888zm7.488 0v1.632h-.064c-.022-.405-.171-.736-.448-.992a1.302 1.302 0 00-.96-.384H215.816V92.8h1.888zm4.288 0v.256H221.576c-.384 0-.715.128-.992.384-.278.256-.416.587-.416.992h-.064V92.8h1.888zm9.312 0V112h-6.272V92.8h6.272zm6.72 17.728l1.312 1.472h-8.096v-1.472h6.784zm2.304-5.248L239.4 112h-5.952l.928-1.472c.832 0 1.621-.203 2.368-.608.768-.427 1.44-1.024 2.016-1.792.576-.789.992-1.739 1.248-2.848h.32zm-15.2 4.736l-.032 1.984h-2.08v-.32h.352c.448 0 .832-.16 1.152-.48a1.56 1.56 0 00.512-1.184h.096zm6.112-15.232V92.8h2.112v.32H233c-.47 0-.864.16-1.184.48-.32.299-.491.693-.512 1.184h-.064zm-6.112 0h-.096c0-.49-.171-.885-.512-1.184-.32-.32-.704-.48-1.152-.48h-.352v-.32h2.112v1.984zm25.853-3.136l9.92 20.192h-7.264l-5.408-12.352 2.752-7.84zm-5.92 18.4c-.235.533-.203.939.096 1.216.299.277.629.416.992.416h.224v.32h-6.592v-.32h.256c.427 0 .875-.117 1.344-.352.469-.256.843-.683 1.12-1.28h2.56zm5.92-18.4l-.032 4.896-6.72 15.36h-2.592l7.424-16c.085-.213.213-.501.384-.864.171-.384.341-.79.512-1.216.192-.448.363-.864.512-1.248.149-.384.235-.693.256-.928h.256zm2.144 14.848v1.44h-7.968v-1.44h7.968zm-.288 3.552h7.168c.299.597.683 1.024 1.152 1.28.469.235.917.352 1.344.352h.256v.32h-11.264v-.32h.256c.363 0 .693-.139.992-.416.299-.277.331-.683.096-1.216zM270.272 92.8V112H264V92.8h6.272zm-6.176 17.216V112h-2.08v-.32h.352c.426 0 .8-.16 1.12-.48a1.56 1.56 0 00.512-1.184h.096zm6.112 0h.064c.021.469.192.864.512 1.184.32.32.704.48 1.152.48h.352v.32h-2.08v-1.984zm0-15.232V92.8h2.048v.32h-.32c-.448 0-.832.16-1.152.48-.32.299-.491.693-.512 1.184h-.064zm-6.112 0H264c0-.49-.171-.885-.512-1.184-.32-.32-.694-.48-1.12-.48h-.352v-.32h2.08v1.984zm17.616-1.984h2.976c.811 0 1.643.075 2.496.224a7.858 7.858 0 012.368.736 4.373 4.373 0 011.76 1.6c.448.683.672 1.59.672 2.72 0 .64-.117 1.323-.352 2.048-.213.725-.618 1.376-1.216 1.952-.576.555-1.418.928-2.528 1.12a4.798 4.798 0 012.144 1.216c.619.597 1.067 1.141 1.344 1.632.15.256.31.576.48.96a43.04 43.04 0 001.536 2.656c.406.619.758 1.077 1.056 1.376.299.277.587.459.864.544.278.064.587.096.928.096v.32h-3.776a29.43 29.43 0 01-2.944-.128 5.094 5.094 0 01-2.24-.832c-.64-.469-1.269-1.227-1.888-2.272a21.747 21.747 0 01-.608-1.12 13.17 13.17 0 01-.672-2.112 24.91 24.91 0 00-.224-1.12c-.149-.747-.341-1.227-.576-1.44-.234-.235-.394-.363-.48-.384v-.256h.16c.342 0 .683-.107 1.024-.32.342-.213.64-.565.896-1.056.256-.512.427-1.216.512-2.112 0-.064.011-.181.032-.352.022-.17.022-.395 0-.672-.042-.917-.202-1.61-.48-2.08-.277-.49-.597-.832-.96-1.024-.341-.192-.65-.299-.928-.32a5.931 5.931 0 00-.48-.064h-.672c-.021 0-.053-.128-.096-.384a9.151 9.151 0 00-.096-.768l-.032-.384zm.256 0V112h-6.304V92.8h6.304zm-6.208 17.216l-.032 1.984h-2.048v-.32h.352c.427 0 .8-.16 1.12-.48.342-.32.512-.715.512-1.184h.096zm0-15.232h-.096c0-.49-.16-.885-.48-1.184-.32-.32-.693-.48-1.12-.48h-.384v-.32h2.048l.032 1.984zm6.144 15.232h.064c0 .555.192.971.576 1.248.384.277.758.416 1.12.416H283.952v.32h-2.016l-.032-1.984zm21.4-17.216V112h-6.272V92.8h6.272zm6.752 17.728l1.28 1.472h-8.096v-1.472h6.816zm-.8-8.736v1.504h-6.016v-1.504h6.016zm1.408-8.992v1.472h-7.424V92.8h7.424zm1.632 12.48L311.4 112h-5.952l.928-1.472c.832 0 1.621-.203 2.368-.608.768-.427 1.44-1.024 2.016-1.792.576-.789.992-1.739 1.248-2.848h.288zm-3.04-2.048v3.456h-.32v-.128c0-.939-.299-1.707-.896-2.304-.576-.619-1.334-.939-2.272-.96v-.064h3.488zm0-4.8v3.424h-3.488v-.064c.938-.021 1.696-.341 2.272-.96.597-.619.896-1.397.896-2.336v-.064h.32zm1.408-4.224v4.16h-.32v-.16c0-1.237-.32-2.197-.96-2.88-.64-.683-1.568-1.035-2.784-1.056v-.064h4.064zm0-1.888v.768l-3.168-.288c.576 0 1.184-.053 1.824-.16.661-.128 1.109-.235 1.344-.32zm-13.536 17.696l-.032 1.984h-2.08v-.32h.352c.448 0 .832-.16 1.152-.48a1.56 1.56 0 00.512-1.184h.096zm0-15.2h-.096c0-.49-.171-.896-.512-1.216-.32-.32-.704-.48-1.152-.48h-.352v-.32h2.08l.032 2.016zm35.11-2.016c2.411 0 4.469.384 6.176 1.152 1.707.747 3.008 1.835 3.904 3.264.917 1.43 1.376 3.157 1.376 5.184s-.459 3.755-1.376 5.184c-.896 1.429-2.197 2.528-3.904 3.296-1.707.747-3.765 1.12-6.176 1.12h-7.296l-.064-1.472h6.72c1.707 0 3.051-.715 4.032-2.144 1.003-1.429 1.504-3.424 1.504-5.984s-.491-4.555-1.472-5.984c-.981-1.45-2.336-2.176-4.064-2.176H324.59V92.8h7.648zm-2.432 0V112h-6.272V92.8h6.272zm-6.176 17.152V112h-2.272v-.32h.384c.491 0 .907-.171 1.248-.512.363-.341.544-.747.544-1.216h.096zm-.032-15.168h-.064c-.021-.49-.213-.885-.576-1.184a1.756 1.756 0 00-1.248-.48h-.384v-.32h2.272v1.984zm29.518-1.984V112h-6.272V92.8h6.272zm6.752 17.728l1.28 1.472h-8.096v-1.472h6.816zm-.8-8.736v1.504h-6.016v-1.504h6.016zm1.408-8.992v1.472h-7.424V92.8h7.424zm1.632 12.48l-.896 6.72h-5.952l.928-1.472c.832 0 1.622-.203 2.368-.608.768-.427 1.44-1.024 2.016-1.792.576-.789.992-1.739 1.248-2.848h.288zm-3.04-2.048v3.456h-.32v-.128c0-.939-.298-1.707-.896-2.304-.576-.619-1.333-.939-2.272-.96v-.064h3.488zm0-4.8v3.424h-3.488v-.064c.939-.021 1.696-.341 2.272-.96.598-.619.896-1.397.896-2.336v-.064h.32zm1.408-4.224v4.16h-.32v-.16c0-1.237-.32-2.197-.96-2.88-.64-.683-1.568-1.035-2.784-1.056v-.064h4.064zm0-1.888v.768l-3.168-.288c.576 0 1.184-.053 1.824-.16.662-.128 1.11-.235 1.344-.32zm-13.536 17.696l-.032 1.984h-2.08v-.32h.352c.448 0 .832-.16 1.152-.48.342-.32.512-.715.512-1.184h.096zm0-15.2h-.096c0-.49-.17-.896-.512-1.216-.32-.32-.704-.48-1.152-.48h-.352v-.32h2.08l.032 2.016zM125.616 132l.832 5.12c-.32.576-.789 1.109-1.408 1.6-.619.491-1.429.896-2.432 1.216-.981.299-2.208.448-3.68.448-2.517-.021-4.693-.416-6.528-1.184-1.813-.768-3.211-1.888-4.192-3.36-.981-1.493-1.472-3.317-1.472-5.472 0-2.091.48-3.872 1.44-5.344.96-1.493 2.347-2.635 4.16-3.424 1.835-.789 4.032-1.184 6.592-1.184 1.536 0 2.901.117 4.096.352 1.195.235 2.155.501 2.88.8l-.416 5.44h-.224c-.576-1.963-1.355-3.307-2.336-4.032-.981-.747-2.133-1.12-3.456-1.12-1.451 0-2.635.363-3.552 1.088-.917.704-1.589 1.696-2.016 2.976-.427 1.259-.64 2.709-.64 4.352 0 1.728.213 3.232.64 4.512.448 1.28 1.088 2.283 1.92 3.008.853.704 1.888 1.088 3.104 1.152 1.472 0 2.603-.213 3.392-.64.811-.448 1.429-1.173 1.856-2.176.448-1.024.853-2.4 1.216-4.128h.224zm14.613-11.584c1.835 0 3.467.224 4.896.672 1.451.448 2.678 1.099 3.68 1.952a8.007 8.007 0 012.304 3.136c.534 1.237.8 2.656.8 4.256 0 1.579-.266 2.987-.8 4.224a8.056 8.056 0 01-2.304 3.104c-1.002.853-2.229 1.504-3.68 1.952-1.429.448-3.061.672-4.896.672-1.813 0-3.445-.224-4.896-.672-1.429-.448-2.656-1.099-3.68-1.952a8.523 8.523 0 01-2.304-3.104c-.512-1.237-.768-2.645-.768-4.224 0-1.6.256-3.019.768-4.256a8.463 8.463 0 012.304-3.136c1.024-.853 2.251-1.504 3.68-1.952 1.451-.448 3.083-.672 4.896-.672zm0 18.528c1.131 0 2.07-.331 2.816-.992.768-.683 1.344-1.653 1.728-2.912.384-1.28.576-2.816.576-4.608 0-1.813-.192-3.36-.576-4.64-.384-1.28-.96-2.251-1.728-2.912-.746-.683-1.685-1.024-2.816-1.024-1.109 0-2.048.341-2.816 1.024-.746.661-1.322 1.632-1.728 2.912-.384 1.28-.576 2.827-.576 4.64 0 1.792.192 3.328.576 4.608.406 1.259.982 2.229 1.728 2.912.768.661 1.707.992 2.816.992zm14.644-18.56l19.456 16.384.352 3.616-19.456-16.32-.352-3.68zm.192 17.696V140h-2.368v-.32h.512c.49 0 .906-.149 1.248-.448.341-.299.512-.683.512-1.152h.096zm6.176 0c.021.469.202.853.544 1.152.341.299.746.448 1.216.448h.512v.32h-2.336v-1.92h.064zm-6.368-17.696l6.368 6.752V140h-6.272v-16.224c0-1.088-.064-1.92-.192-2.496l-.192-.896h.288zm19.712.416v16.096c0 .768.032 1.419.096 1.952.064.512.128.896.192 1.152l.096.384h-.288l-6.369-7.296-.031-12.288h6.304zm-.064 1.92v-1.92h2.368v.32h-.544c-.47 0-.875.149-1.216.448a1.559 1.559 0 00-.544 1.152h-.064zm-6.24 0c0-.469-.171-.853-.512-1.152-.32-.299-.726-.448-1.216-.448h-.544v-.32h2.368v1.92h-.096zm21.929-1.824V140h-6.304v-19.104h6.304zm6.432-.128v1.504h-19.168v-1.504h19.168zm0 1.376v4.16h-.32v-.16c.021-1.216-.299-2.155-.96-2.816-.661-.683-1.6-1.035-2.816-1.056v-.128h4.096zm0-1.856v.8l-3.232-.32c.384 0 .8-.021 1.248-.064.469-.064.885-.128 1.248-.192.384-.085.629-.16.736-.224zm-12.672 17.728V140h-2.048v-.32h.32c.469 0 .853-.16 1.152-.48.32-.32.491-.715.512-1.184h.064zm6.112 0h.128c-.021.469.128.864.448 1.184.341.32.747.48 1.216.48h.32v.32h-2.112v-1.984zm-8.512-15.872v.128c-1.216.021-2.155.373-2.816 1.056-.64.661-.96 1.6-.96 2.816v.16h-.32v-4.16h4.096zm-4.096-1.856c.171.064.437.139.8.224.363.064.757.128 1.184.192.448.043.864.064 1.248.064l-3.232.32v-.8zm27.476-.64l9.92 20.192h-7.264l-5.408-12.352 2.752-7.84zm-5.92 18.4c-.235.533-.203.939.096 1.216.298.277.629.416.992.416h.224v.32h-6.592v-.32h.256c.426 0 .874-.117 1.344-.352.469-.256.842-.683 1.12-1.28h2.56zm5.92-18.4l-.032 4.896-6.72 15.36h-2.592l7.424-16c.085-.213.213-.501.384-.864.17-.384.341-.789.512-1.216.192-.448.362-.864.512-1.248.149-.384.234-.693.256-.928h.256zm2.144 14.848v1.44h-7.968v-1.44h7.968zm-.288 3.552h7.168c.298.597.682 1.024 1.152 1.28.469.235.917.352 1.344.352h.256v.32h-11.264v-.32h.256c.362 0 .693-.139.992-.416.298-.277.33-.683.096-1.216zM234.46 132l.832 5.12c-.32.576-.79 1.109-1.408 1.6-.619.491-1.43.896-2.432 1.216-.982.299-2.208.448-3.68.448-2.518-.021-4.694-.416-6.528-1.184-1.814-.768-3.211-1.888-4.192-3.36-.982-1.493-1.472-3.317-1.472-5.472 0-2.091.48-3.872 1.44-5.344.96-1.493 2.346-2.635 4.16-3.424 1.834-.789 4.032-1.184 6.592-1.184 1.536 0 2.901.117 4.096.352 1.194.235 2.154.501 2.88.8l-.416 5.44h-.224c-.576-1.963-1.355-3.307-2.336-4.032-.982-.747-2.134-1.12-3.456-1.12-1.451 0-2.635.363-3.552 1.088-.918.704-1.59 1.696-2.016 2.976-.427 1.259-.64 2.709-.64 4.352 0 1.728.213 3.232.64 4.512.448 1.28 1.088 2.283 1.92 3.008.853.704 1.888 1.088 3.104 1.152 1.472 0 2.602-.213 3.392-.64.81-.448 1.429-1.173 1.856-2.176.448-1.024.853-2.4 1.216-4.128h.224zm14.719-11.104V140h-6.304v-19.104h6.304zm6.432-.128v1.504h-19.168v-1.504h19.168zm0 1.376v4.16h-.32v-.16c.021-1.216-.299-2.155-.96-2.816-.662-.683-1.6-1.035-2.816-1.056v-.128h4.096zm0-1.856v.8l-3.232-.32c.384 0 .8-.021 1.248-.064.469-.064.885-.128 1.248-.192.384-.085.629-.16.736-.224zm-12.672 17.728V140h-2.048v-.32h.32c.469 0 .853-.16 1.152-.48.32-.32.49-.715.512-1.184h.064zm6.112 0h.128c-.022.469.128.864.448 1.184.341.32.746.48 1.216.48h.32v.32h-2.112v-1.984zm-8.512-15.872v.128c-1.216.021-2.155.373-2.816 1.056-.64.661-.96 1.6-.96 2.816v.16h-.32v-4.16h4.096zm-4.096-1.856c.17.064.437.139.8.224.362.064.757.128 1.184.192.448.043.864.064 1.248.064l-3.232.32v-.8zM27.752 169l-4.032-16.8h2.088l3.336 14.88 3.312-14.88h2.088l-3.96 16.8h-2.832zm10.424.168c-1.12 0-1.992-.28-2.617-.84-.607-.576-.911-1.368-.911-2.376v-6.384c0-1.008.303-1.792.911-2.352.625-.576 1.497-.864 2.617-.864 1.12 0 1.983.288 2.591.864.624.56.936 1.344.936 2.352v6.384c0 1.008-.312 1.8-.936 2.376-.608.56-1.472.84-2.592.84zm0-1.488c.511 0 .911-.144 1.2-.432.303-.304.456-.736.456-1.296v-6.384c0-.56-.153-.984-.456-1.272-.288-.304-.688-.456-1.2-.456-.513 0-.92.152-1.224.456-.288.288-.432.712-.432 1.272v6.384c0 .56.143.992.431 1.296.304.288.712.432 1.224.432zm9.408 1.32c-.88 0-1.576-.264-2.088-.792s-.768-1.24-.768-2.136v-8.112h-1.44v-1.44h1.44v-3.624l1.92-.72v4.344h1.92v1.44h-1.92v8.28c0 .384.104.704.312.96.224.24.52.36.888.36h.72V169h-.984zm2.895-12.48h1.488l.216.888.6-.288c.512-.256.936-.448 1.272-.576a3.072 3.072 0 011.056-.192v1.416c-.208 0-.488.064-.84.192-.352.112-.976.384-1.872.816V169h-1.92v-12.48zM59.397 169c-.88 0-1.584-.264-2.112-.792-.512-.528-.768-1.24-.768-2.136v-6.384c0-1.04.288-1.856.864-2.448.576-.592 1.432-.888 2.568-.888 1.136 0 1.984.296 2.544.888.576.592.864 1.408.864 2.448v1.104c0 .672-.192 1.184-.576 1.536-.384.336-.888.592-1.512.768l-2.832.792v2.352c0 .384.112.704.336.96.24.24.544.36.912.36h2.592V169h-2.88zm.504-7.032c.528-.144.88-.248 1.056-.312.192-.08.32-.192.384-.336.064-.144.096-.384.096-.72v-1.32c0-.512-.136-.888-.408-1.128-.256-.24-.616-.36-1.08-.36-.448 0-.816.128-1.104.384-.272.256-.408.624-.408 1.104v3.096l1.464-.408zm8.976-5.448h1.489l.216.696.984-.288a18.46 18.46 0 011.584-.432c.4-.096.775-.144 1.127-.144.576 0 1 .2 1.272.6.272.4.408.92.408 1.56V169h-1.92v-9.864c0-.464-.032-.784-.096-.96-.064-.192-.224-.288-.48-.288-.127 0-1.016.256-2.663.768V169h-1.92v-12.48zm12.799 12.648c-1.12 0-1.993-.28-2.617-.84-.608-.576-.912-1.368-.912-2.376v-6.384c0-1.008.304-1.792.912-2.352.624-.576 1.496-.864 2.617-.864 1.12 0 1.983.288 2.591.864.624.56.937 1.344.937 2.352v6.384c0 1.008-.313 1.8-.936 2.376-.609.56-1.472.84-2.593.84zm0-1.488c.511 0 .912-.144 1.2-.432.303-.304.456-.736.456-1.296v-6.384c0-.56-.152-.984-.456-1.272-.288-.304-.689-.456-1.2-.456-.513 0-.92.152-1.225.456-.287.288-.431.712-.431 1.272v6.384c0 .56.144.992.431 1.296.305.288.713.432 1.225.432zm5.928-11.16h1.488l.216.696.984-.288a18.46 18.46 0 011.584-.432c.4-.096.776-.144 1.128-.144.688 0 1.168.304 1.44.912.448-.16 1.08-.352 1.896-.576.816-.224 1.416-.336 1.8-.336.576 0 1 .2 1.272.6.288.4.432.92.432 1.56V169h-1.92v-9.864c0-.464-.032-.784-.096-.96-.064-.192-.224-.288-.48-.288-.128 0-1.008.256-2.64.768V169h-1.92v-9.864c0-.464-.032-.784-.096-.96-.064-.192-.224-.288-.48-.288-.128 0-1.024.256-2.688.768V169h-1.92v-12.48z" fill="#fff"/><rect x="23" y="186" width="348" height="48" rx="10" fill="#D9D9D9"/><path d="M28.752 287l-4.032-16.8h2.088l3.336 14.88 3.312-14.88h2.088l-3.96 16.8h-2.832zm10.424.168c-1.12 0-1.992-.28-2.617-.84-.607-.576-.911-1.368-.911-2.376v-6.384c0-1.008.303-1.792.911-2.352.625-.576 1.497-.864 2.617-.864 1.12 0 1.983.288 2.591.864.624.56.936 1.344.936 2.352v6.384c0 1.008-.312 1.8-.936 2.376-.608.56-1.472.84-2.592.84zm0-1.488c.511 0 .911-.144 1.2-.432.303-.304.456-.736.456-1.296v-6.384c0-.56-.153-.984-.456-1.272-.288-.304-.688-.456-1.2-.456-.513 0-.92.152-1.224.456-.288.288-.432.712-.432 1.272v6.384c0 .56.143.992.431 1.296.304.288.712.432 1.224.432zm9.408 1.32c-.88 0-1.576-.264-2.088-.792s-.768-1.24-.768-2.136v-8.112h-1.44v-1.44h1.44v-3.624l1.92-.72v4.344h1.92v1.44h-1.92v8.28c0 .384.104.704.312.96.224.24.52.36.888.36h.72V287h-.984zm2.895-12.48h1.488l.216.888.6-.288c.512-.256.936-.448 1.272-.576a3.072 3.072 0 011.056-.192v1.416c-.208 0-.488.064-.84.192-.352.112-.976.384-1.872.816V287h-1.92v-12.48zM60.397 287c-.88 0-1.584-.264-2.112-.792-.512-.528-.768-1.24-.768-2.136v-6.384c0-1.04.288-1.856.864-2.448.576-.592 1.432-.888 2.568-.888 1.136 0 1.984.296 2.544.888.576.592.864 1.408.864 2.448v1.104c0 .672-.192 1.184-.576 1.536-.384.336-.888.592-1.512.768l-2.832.792v2.352c0 .384.112.704.336.96.24.24.544.36.912.36h2.592V287h-2.88zm.504-7.032c.528-.144.88-.248 1.056-.312.192-.08.32-.192.384-.336.064-.144.096-.384.096-.72v-1.32c0-.512-.136-.888-.408-1.128-.256-.24-.616-.36-1.08-.36-.448 0-.816.128-1.104.384-.272.256-.408.624-.408 1.104v3.096l1.464-.408zM72.42 287a3.148 3.148 0 01-1.608-.432 3.248 3.248 0 01-1.151-1.176 3.436 3.436 0 01-.409-1.68v-1.248c0-.752.184-1.384.552-1.896a3.098 3.098 0 011.416-1.08l2.977-1.104v-1.128c0-.384-.12-.696-.36-.936-.224-.256-.52-.384-.888-.384h-2.713v-1.416h2.88c.88 0 1.576.264 2.088.792.529.512.793 1.216.793 2.112V287H72.42zm1.776-1.464v-5.64l-2.112.792c-.415.16-.711.376-.887.648-.16.272-.24.704-.24 1.296v1.344c0 .432.16.8.48 1.104.32.304.703.456 1.151.456h1.609zM81.812 287c-1.008 0-1.824-.296-2.448-.888-.624-.592-.936-1.384-.936-2.376v-5.976c0-.688.184-1.272.552-1.752.384-.48.856-.808 1.416-.984l3.216-1.128V270.2h1.92V287h-3.72zm1.8-1.44v-10.08l-2.136.72c-.416.128-.712.336-.888.624-.16.272-.24.712-.24 1.32v5.592c0 .576.168 1.024.504 1.344.336.32.792.48 1.368.48h1.392zm4.806-11.04h1.488l.216.888.6-.288c.512-.256.936-.448 1.272-.576a3.072 3.072 0 011.056-.192v1.416c-.208 0-.488.064-.84.192-.352.112-.976.384-1.872.816V287h-1.92v-12.48zM97.334 287c-.88 0-1.584-.264-2.112-.792-.512-.528-.768-1.24-.768-2.136v-6.384c0-1.04.288-1.856.864-2.448.576-.592 1.432-.888 2.568-.888 1.136 0 1.984.296 2.544.888.576.592.864 1.408.864 2.448v1.104c0 .672-.192 1.184-.576 1.536-.384.336-.888.592-1.512.768l-2.832.792v2.352c0 .384.112.704.336.96.24.24.544.36.912.36h2.592V287h-2.88zm.504-7.032c.528-.144.88-.248 1.056-.312.192-.08.32-.192.384-.336.064-.144.096-.384.096-.72v-1.32c0-.512-.136-.888-.408-1.128-.256-.24-.616-.36-1.08-.36-.448 0-.816.128-1.104.384-.272.256-.408.624-.408 1.104v3.096l1.464-.408zm4.648 5.592h2.04c.688 0 1.184-.184 1.488-.552.32-.384.48-.88.48-1.488 0-.48-.144-.888-.432-1.224-.288-.336-.72-.728-1.296-1.176-.496-.4-.896-.744-1.2-1.032a4.815 4.815 0 01-.768-1.104c-.208-.448-.312-.96-.312-1.536 0-.848.28-1.544.84-2.088.576-.56 1.344-.84 2.304-.84h2.088v1.44h-1.728c-1.136 0-1.704.536-1.704 1.608 0 .416.128.776.384 1.08.256.304.656.664 1.2 1.08.496.384.904.736 1.224 1.056.32.304.592.696.816 1.176.224.464.336 1.016.336 1.656 0 1.136-.304 1.984-.912 2.544-.592.56-1.432.84-2.52.84h-2.328v-1.44zm7.195 0h2.04c.688 0 1.184-.184 1.488-.552.32-.384.48-.88.48-1.488 0-.48-.144-.888-.432-1.224-.288-.336-.72-.728-1.296-1.176-.496-.4-.896-.744-1.2-1.032a4.815 4.815 0 01-.768-1.104c-.208-.448-.312-.96-.312-1.536 0-.848.28-1.544.84-2.088.576-.56 1.344-.84 2.304-.84h2.088v1.44h-1.728c-1.136 0-1.704.536-1.704 1.608 0 .416.128.776.384 1.08.256.304.656.664 1.2 1.08.496.384.904.736 1.224 1.056.32.304.592.696.816 1.176.224.464.336 1.016.336 1.656 0 1.136-.304 1.984-.912 2.544-.592.56-1.432.84-2.52.84h-2.328v-1.44zm10.411 1.44c-.88 0-1.584-.264-2.112-.792-.512-.528-.768-1.24-.768-2.136v-6.384c0-1.04.288-1.856.864-2.448.576-.592 1.432-.888 2.568-.888 1.136 0 1.984.296 2.544.888.576.592.864 1.408.864 2.448v1.104c0 .672-.192 1.184-.576 1.536-.384.336-.888.592-1.512.768l-2.832.792v2.352c0 .384.112.704.336.96.24.24.544.36.912.36h2.592V287h-2.88zm.504-7.032c.528-.144.88-.248 1.056-.312.192-.08.32-.192.384-.336.064-.144.096-.384.096-.72v-1.32c0-.512-.136-.888-.408-1.128-.256-.24-.616-.36-1.08-.36-.448 0-.816.128-1.104.384-.272.256-.408.624-.408 1.104v3.096l1.464-.408zm8.977-5.448h1.488l.216.696.984-.288a18.46 18.46 0 011.584-.432c.4-.096.776-.144 1.128-.144.688 0 1.168.304 1.44.912.448-.16 1.08-.352 1.896-.576.816-.224 1.416-.336 1.8-.336.576 0 1 .2 1.272.6.288.4.432.92.432 1.56V287h-1.92v-9.864c0-.464-.032-.784-.096-.96-.064-.192-.224-.288-.48-.288-.128 0-1.008.256-2.64.768V287h-1.92v-9.864c0-.464-.032-.784-.096-.96-.064-.192-.224-.288-.48-.288-.128 0-1.024.256-2.688.768V287h-1.92v-12.48zM147 287a3.148 3.148 0 01-1.608-.432 3.248 3.248 0 01-1.152-1.176 3.436 3.436 0 01-.408-1.68v-1.248c0-.752.184-1.384.552-1.896a3.098 3.098 0 011.416-1.08l2.976-1.104v-1.128c0-.384-.12-.696-.36-.936-.224-.256-.52-.384-.888-.384h-2.712v-1.416h2.88c.88 0 1.576.264 2.088.792.528.512.792 1.216.792 2.112V287H147zm1.776-1.464v-5.64l-2.112.792c-.416.16-.712.376-.888.648-.16.272-.24.704-.24 1.296v1.344c0 .432.16.8.48 1.104.32.304.704.456 1.152.456h1.608zm4.445-13.056v-1.92h1.92v1.92h-1.92zm0 14.52v-12.48h1.92V287h-1.92zm4.829 0v-16.8h1.92V287h-1.92z" fill="#fff"/><rect x="24" y="304" width="347" height="57" rx="10" fill="#D9D9D9"/><path d="M28.752 408l-4.032-16.8h2.088l3.336 14.88 3.312-14.88h2.088l-3.96 16.8h-2.832zm10.424.168c-1.12 0-1.992-.28-2.617-.84-.607-.576-.911-1.368-.911-2.376v-6.384c0-1.008.303-1.792.911-2.352.625-.576 1.497-.864 2.617-.864 1.12 0 1.983.288 2.591.864.624.56.936 1.344.936 2.352v6.384c0 1.008-.312 1.8-.936 2.376-.608.56-1.472.84-2.592.84zm0-1.488c.511 0 .911-.144 1.2-.432.303-.304.456-.736.456-1.296v-6.384c0-.56-.153-.984-.456-1.272-.288-.304-.688-.456-1.2-.456-.513 0-.92.152-1.224.456-.288.288-.432.712-.432 1.272v6.384c0 .56.143.992.431 1.296.304.288.712.432 1.224.432zm9.408 1.32c-.88 0-1.576-.264-2.088-.792s-.768-1.24-.768-2.136v-8.112h-1.44v-1.44h1.44v-3.624l1.92-.72v4.344h1.92v1.44h-1.92v8.28c0 .384.104.704.312.96.224.24.52.36.888.36h.72V408h-.984zm2.895-12.48h1.488l.216.888.6-.288c.512-.256.936-.448 1.272-.576a3.072 3.072 0 011.056-.192v1.416c-.208 0-.488.064-.84.192-.352.112-.976.384-1.872.816V408h-1.92v-12.48zM60.397 408c-.88 0-1.584-.264-2.112-.792-.512-.528-.768-1.24-.768-2.136v-6.384c0-1.04.288-1.856.864-2.448.576-.592 1.432-.888 2.568-.888 1.136 0 1.984.296 2.544.888.576.592.864 1.408.864 2.448v1.104c0 .672-.192 1.184-.576 1.536-.384.336-.888.592-1.512.768l-2.832.792v2.352c0 .384.112.704.336.96.24.24.544.36.912.36h2.592V408h-2.88zm.504-7.032c.528-.144.88-.248 1.056-.312.192-.08.32-.192.384-.336.064-.144.096-.384.096-.72v-1.32c0-.512-.136-.888-.408-1.128-.256-.24-.616-.36-1.08-.36-.448 0-.816.128-1.104.384-.272.256-.408.624-.408 1.104v3.096l1.464-.408zm8.976-5.448h1.489l.216.696.984-.288a18.46 18.46 0 011.584-.432c.4-.096.775-.144 1.127-.144.689 0 1.168.304 1.44.912.448-.16 1.08-.352 1.897-.576.816-.224 1.415-.336 1.8-.336.576 0 1 .2 1.272.6.287.4.431.92.431 1.56V408h-1.92v-9.864c0-.464-.032-.784-.096-.96-.064-.192-.224-.288-.48-.288-.127 0-1.007.256-2.64.768V408h-1.92v-9.864c0-.464-.032-.784-.096-.96-.064-.192-.224-.288-.48-.288-.127 0-1.023.256-2.688.768V408h-1.92v-12.48zM87.257 408c-.88 0-1.585-.264-2.113-.792-.512-.528-.768-1.24-.768-2.136v-6.384c0-1.04.288-1.856.864-2.448.576-.592 1.432-.888 2.568-.888 1.136 0 1.984.296 2.544.888.576.592.864 1.408.864 2.448v1.104c0 .672-.192 1.184-.576 1.536-.384.336-.888.592-1.512.768l-2.832.792v2.352c0 .384.112.704.336.96.24.24.544.36.912.36h2.592V408h-2.88zm.503-7.032c.528-.144.88-.248 1.056-.312.192-.08.32-.192.384-.336.064-.144.096-.384.096-.72v-1.32c0-.512-.136-.888-.408-1.128-.256-.24-.616-.36-1.08-.36-.448 0-.816.128-1.104.384-.272.256-.408.624-.408 1.104v3.096l1.464-.408zm4.647 5.592h2.04c.688 0 1.184-.184 1.489-.552.32-.384.48-.88.48-1.488 0-.48-.144-.888-.432-1.224-.288-.336-.72-.728-1.296-1.176-.496-.4-.897-.744-1.2-1.032a4.815 4.815 0 01-.769-1.104c-.207-.448-.311-.96-.311-1.536 0-.848.28-1.544.84-2.088.575-.56 1.343-.84 2.303-.84h2.088v1.44h-1.727c-1.137 0-1.705.536-1.705 1.608 0 .416.129.776.385 1.08.255.304.656.664 1.2 1.08.495.384.903.736 1.224 1.056.32.304.591.696.816 1.176.224.464.336 1.016.336 1.656 0 1.136-.305 1.984-.913 2.544-.591.56-1.431.84-2.52.84h-2.328v-1.44zm7.196 0h2.04c.688 0 1.184-.184 1.488-.552.32-.384.48-.88.48-1.488 0-.48-.144-.888-.432-1.224-.288-.336-.72-.728-1.296-1.176-.496-.4-.896-.744-1.2-1.032a4.822 4.822 0 01-.768-1.104c-.208-.448-.312-.96-.312-1.536 0-.848.28-1.544.84-2.088.576-.56 1.344-.84 2.304-.84h2.088v1.44h-1.728c-1.136 0-1.704.536-1.704 1.608 0 .416.128.776.384 1.08.256.304.656.664 1.2 1.08.496.384.904.736 1.224 1.056.32.304.592.696.816 1.176.224.464.336 1.016.336 1.656 0 1.136-.304 1.984-.912 2.544-.592.56-1.432.84-2.52.84h-2.328v-1.44zm10.459 1.44a3.148 3.148 0 01-1.608-.432 3.248 3.248 0 01-1.152-1.176 3.436 3.436 0 01-.408-1.68v-1.248c0-.752.184-1.384.552-1.896a3.098 3.098 0 011.416-1.08l2.976-1.104v-1.128c0-.384-.12-.696-.36-.936-.224-.256-.52-.384-.888-.384h-2.712v-1.416h2.88c.88 0 1.576.264 2.088.792.528.512.792 1.216.792 2.112V408h-3.576zm1.776-1.464v-5.64l-2.112.792c-.416.16-.712.376-.888.648-.16.272-.24.704-.24 1.296v1.344c0 .432.16.8.48 1.104.32.304.704.456 1.152.456h1.608zm5.454 3.864h2.472c.368 0 .656-.128.864-.384.224-.24.336-.552.336-.936v-1.056h-1.992c-.88 0-1.624-.288-2.232-.864-.608-.576-.912-1.296-.912-2.16v-6.456c0-.864.304-1.584.912-2.16.624-.576 1.376-.864 2.256-.864h3.912v13.392c0 .896-.248 1.608-.744 2.136-.48.528-1.16.792-2.04.792h-2.832v-1.44zm3.696-3.816v-9.624h-1.608c-.448 0-.832.152-1.152.456-.32.304-.48.68-.48 1.128V405c0 .448.16.824.48 1.128.32.304.704.456 1.152.456h1.608zm7.05 1.416c-.88 0-1.584-.264-2.112-.792-.512-.528-.768-1.24-.768-2.136v-6.384c0-1.04.288-1.856.864-2.448.576-.592 1.432-.888 2.568-.888 1.136 0 1.984.296 2.544.888.576.592.864 1.408.864 2.448v1.104c0 .672-.192 1.184-.576 1.536-.384.336-.888.592-1.512.768l-2.832.792v2.352c0 .384.112.704.336.96.24.24.544.36.912.36h2.592V408h-2.88zm.504-7.032c.528-.144.88-.248 1.056-.312.192-.08.32-.192.384-.336.064-.144.096-.384.096-.72v-1.32c0-.512-.136-.888-.408-1.128-.256-.24-.616-.36-1.08-.36-.448 0-.816.128-1.104.384-.272.256-.408.624-.408 1.104v3.096l1.464-.408z" fill="#fff"/><rect x="24" y="425" width="347" height="281" rx="10" fill="#D9D9D9"/><rect x="24" y="730" width="347" height="36" rx="10" fill="#59168B"/><path d="M115.626 750.22c.499-.398.499-1.042 0-1.44l-8.124-6.482c-.499-.397-1.307-.397-1.805 0-.499.398-.499 1.043 0 1.441l7.221 5.761-7.221 5.761c-.499.398-.499 1.043 0 1.441.498.397 1.306.397 1.805 0l8.124-6.482zM56 750.518h58.723v-2.036H56v2.036zM170.578 750.633l-.096.992h-5.76l.08-3.088-.08-7.168h5.776l.064.128-.096.992-2.416-.048-2.032.032-.032 3.36 1.92.032 1.696-.048.096.112-.112.992-1.792-.032-1.824.016-.016 1.52.048 2.128 2.032.016 2.464-.064.08.128zm10.854-2.016l.032 3.008h-1.344l-5.312-8.208h-.08l-.016 4.832.016 3.376h-1.152l.048-3.04-.032-7.216h1.328l5.296 8.208h.112l-.016-8.144 1.2-.096-.08 7.28zm7.569 3.008h-1.488l-3.424-10.256h1.312l.24 1.04 2.608 7.92h.096l2.88-7.856.256-1.104h1.28l-3.76 10.256zm9.949-10.352c1.408 0 2.485.432 3.232 1.296.757.864 1.136 2.107 1.136 3.728 0 1.749-.4 3.099-1.2 4.048-.8.939-1.941 1.408-3.424 1.408-1.387 0-2.459-.448-3.216-1.344-.747-.896-1.12-2.171-1.12-3.824 0-1.707.395-3.019 1.184-3.936.8-.917 1.936-1.376 3.408-1.376zm-.08 1.04c-2.133 0-3.2 1.376-3.2 4.128 0 1.461.256 2.544.768 3.248.523.704 1.307 1.056 2.352 1.056 2.133 0 3.2-1.403 3.2-4.208 0-1.429-.261-2.491-.784-3.184-.512-.693-1.291-1.04-2.336-1.04zm10.281 6.32l.032 2.992h-1.264l.064-2.992-.016-.672-3.248-6.592h1.376l.208.576 2.24 4.608h.112l2.464-4.576.24-.608h1.344l-3.536 6.544-.016.72zm12.245 2l-.096.992h-5.76l.08-3.088-.08-7.168h5.776l.064.128-.096.992-2.416-.048-2.032.032-.032 3.36 1.92.032 1.696-.048.096.112-.112.992-1.792-.032-1.824.016-.016 1.52.048 2.128 2.032.016 2.464-.064.08.128zm7.159-3.152c.704 1.163 1.59 2.443 2.656 3.84l-.016.16a4.595 4.595 0 01-1.184.288l-.176-.112a56.283 56.283 0 01-2.352-3.84h-1.872v.608l.064 3.2h-1.296l.08-3.088-.08-7.168 3.136-.016c1.003 0 1.776.256 2.32.768.555.501.832 1.221.832 2.16 0 .704-.186 1.339-.56 1.904-.362.555-.88.987-1.552 1.296zm-2.928-.752l1.92.048c1.195-.341 1.792-1.136 1.792-2.384 0-.651-.176-1.136-.528-1.456-.352-.331-.88-.507-1.584-.528l-1.552.048-.048 4.272z" fill="#fff"/><g filter="url(#b)"><path fill="#fff" d="M0 0H393V64H0z"/><path d="M62.984 49.703c-2.78 1.382-5.598 1.609-8.454.679-3.035-.956-5.648-2.992-7.842-6.109-1.172-1.66-2.18-3.582-3.021-5.77L42.443 35.3h-9.028l-2.027 4.75c-.128.328-.191.592-.191.793 0 .2.038.427.114.678.102.227.294.44.574.641.306.176.638.264.995.264h.306v.377H25v-.377h.344c.587 0 1.16-.163 1.722-.49.586-.352 1.07-.867 1.453-1.546l8.53-19.193c-.994-2.212-2.053-3.733-3.175-4.563-.943-.703-1.849-1.055-2.716-1.055-.841 0-1.632.125-2.371.377l-.077-.377c1.836-.93 3.596-1.396 5.28-1.396 2.09 0 3.964.805 5.622 2.414 1.632 1.584 3.073 3.871 4.322 6.863l5.547 13.499c2.09 5.103 4.233 8.61 6.426 10.52.893.78 1.81 1.32 2.754 1.621.944.302 1.734.453 2.372.453.663 0 1.3-.075 1.912-.226l.039.377zM34.066 33.677h7.803l-2.678-6.976c-.127-.352-.306-.83-.535-1.433a30.038 30.038 0 01-.46-1.32l-4.13 9.73z" fill="#000"/><path d="M70.226 11.582c.483-.684 1.275-1.323 2.483-1.08 1.094.22 1.548 1.056 1.728 1.818a4.548 4.548 0 01.104 1.346l-.006.073 3.191 1.756.053-.058a5.278 5.278 0 011.195-.954c.382-.216.829-.384 1.302-.395.477-.012.975.135 1.457.54.473.399.702.853.776 1.311.075.456-.005.91-.141 1.312a4.73 4.73 0 01-.491 1.002 5.058 5.058 0 01-.251.357l2.039 2.777.078-.02a5.343 5.343 0 011.456-.153c.842.034 1.809.323 2.217 1.363.246.628.235 1.163.077 1.61-.158.447-.462.8-.792 1.073a4.684 4.684 0 01-1.378.754l.37 3.396.084.028a5.683 5.683 0 011.342.67c.708.492 1.379 1.273 1.142 2.391-.229 1.078-1.094 1.563-1.884 1.778a5.106 5.106 0 01-1.477.17l-.875 1.45-.868 1.438 10.665 9.875.002.001.005.005.019.017a3.51 3.51 0 01.295.315c.18.211.403.511.57.862.167.351.28.758.236 1.18-.045.425-.248.859-.7 1.262-.452.402-.906.59-1.336.642a2.401 2.401 0 01-1.167-.164 3.475 3.475 0 01-1.107-.71l-.016-.016-.004-.004-10.281-9.384-3.001 2.081.023.074c.026.082.059.199.09.342.065.285.126.676.111 1.094-.014.419-.105.868-.346 1.268-.243.4-.635.747-1.244.96-.61.213-1.145.182-1.603.013-.456-.168-.832-.471-1.128-.798a4.91 4.91 0 01-.665-.948 5.06 5.06 0 01-.197-.404l-3.477.51-.008.072c-.011.084-.03.202-.061.342-.063.28-.176.65-.38 1.004a2.301 2.301 0 01-.925.921c-.428.223-.981.32-1.694.196-.594-.105-.996-.362-1.26-.694-.264-.33-.386-.728-.434-1.107a3.911 3.911 0 01.016-1.013 4.258 4.258 0 01.073-.39l-3.372-1.79-.05.058a4.87 4.87 0 01-.25.264c-.215.21-.523.475-.89.69-.369.213-.802.378-1.266.384-.466.005-.957-.15-1.44-.567-.968-.838-.966-1.873-.726-2.686a4.547 4.547 0 01.681-1.367l-2.187-2.815-.067.023a4.464 4.464 0 01-.32.091 4.294 4.294 0 01-1.034.13c-.396-.003-.824-.074-1.208-.286-.385-.212-.72-.562-.935-1.114-.434-1.114.117-2.003.757-2.602.32-.3.667-.531.933-.687a5.603 5.603 0 01.4-.214l-.519-3.476a4.74 4.74 0 01-.397-.116 4.572 4.572 0 01-.957-.448c-.681-.43-1.33-1.153-1.14-2.3.1-.593.371-1.012.726-1.305.353-.291.785-.454 1.198-.543a4.875 4.875 0 011.112-.098 5.055 5.055 0 01.44.029l1.591-2.992a4.673 4.673 0 01-1.019-1.266c-.207-.395-.357-.86-.333-1.365.024-.506.223-1.045.702-1.585.721-.812 1.701-.696 2.476-.395.39.152.734.352.98.514a5.596 5.596 0 01.351.249l3.006-2.304a4.102 4.102 0 01-.251-1.396c.005-.39.084-.812.31-1.191.229-.38.604-.713 1.192-.928.61-.223 1.141-.193 1.593-.018.45.174.816.49 1.103.827a5.253 5.253 0 01.823 1.4l3.332-.583.024-.08a4.664 4.664 0 01.63-1.298zm9.391 12.389c-2.907-5.652-9.968-7.942-15.652-4.987-5.711 2.968-7.788 10.1-4.633 15.655 3.345 5.89 11.775 7.628 17.161 3.463 4.505-3.484 5.713-9.096 3.124-14.131z" fill="#000"/><path d="M341.167 24.208h16.666M341.167 31.208h16.666M341.167 38.208h16.666" stroke="#0A0A0A" stroke-width="3" stroke-linecap="round" stroke-linejoin="round"/><path d="M256.136 27.136l-.072 4.176 2.16.024 2.616-.072.216.24-.24 2.424-2.856-.072-1.944.024-.024 1.224.144 4.896h-3.264l.168-4.608-.168-10.848h9.192l.192.264-.24 2.448-3.672-.144-2.208.024zm15.793 6.72a69.32 69.32 0 003.72 5.376l-.048.36c-1.04.368-2.104.584-3.192.648l-.336-.264c-1.152-1.984-2.088-3.712-2.808-5.184h-2.328v.312l.144 4.896h-3.264l.168-4.608-.168-10.848 5.928-.024c1.616 0 2.864.4 3.744 1.2.88.784 1.32 1.912 1.32 3.384a5.12 5.12 0 01-.768 2.736c-.496.816-1.2 1.488-2.112 2.016zm-4.944-1.584l2.376.096c1.36-.464 2.04-1.448 2.04-2.952 0-.816-.224-1.424-.672-1.824-.432-.416-1.104-.64-2.016-.672l-1.632.096-.096 5.256zM290.344 23.968l-4.968 18.792h-2.208l-.192-.264 4.944-18.816h2.16l.264.288zM307.016 38.512L306.872 40h-8.64l.12-4.632-.12-10.752h8.664l.096.192-.144 1.488-3.624-.072-3.048.048-.048 5.04 2.88.048 2.544-.072.144.168-.168 1.488-2.688-.048-2.736.024-.024 2.28.072 3.192 3.048.024 3.696-.096.12.192zm14.602-3.024l.048 4.512h-2.016l-7.968-12.312h-.12l-.024 7.248.024 5.064h-1.728l.072-4.56-.048-10.824h1.992l7.944 12.312h.168l-.024-12.216 1.8-.144-.12 10.92z" fill="#8A82BB"/></g><path d="M25.776 811.749c0-.499.064-.977.19-1.436a5.59 5.59 0 01.55-1.289 5.386 5.386 0 013.223-2.476 5.283 5.283 0 011.443-.197c.498 0 .976.066 1.435.197a5.392 5.392 0 012.38 1.385 5.385 5.385 0 011.385 2.38c.132.459.198.937.198 1.436 0 .498-.066.979-.198 1.442a5.366 5.366 0 01-1.384 2.381 5.374 5.374 0 01-1.092.842c-.4.23-.83.41-1.289.542-.459.127-.937.19-1.435.19s-.98-.063-1.443-.19a5.787 5.787 0 01-1.29-.542 5.37 5.37 0 01-1.933-1.934 5.59 5.59 0 01-.55-1.289 5.428 5.428 0 01-.19-1.442zm.843 0c0 .639.117 1.24.351 1.801a4.63 4.63 0 00.967 1.472c.41.416.891.745 1.443.989a4.518 4.518 0 001.802.359c.64 0 1.235-.12 1.787-.359a4.613 4.613 0 001.45-.989c.41-.419.732-.91.967-1.472a4.626 4.626 0 00.351-1.801 4.628 4.628 0 00-1.318-3.267c-.41-.42-.894-.75-1.45-.989a4.37 4.37 0 00-1.787-.366c-.645 0-1.245.122-1.802.366a4.554 4.554 0 00-2.41 2.454 4.628 4.628 0 00-.351 1.802zm6.467 1.699c0 .234-.044.454-.132.659-.088.2-.21.376-.366.527a1.68 1.68 0 01-1.187.491h-.446a1.654 1.654 0 01-1.187-.491 1.656 1.656 0 01-.49-1.186v-3.391a1.686 1.686 0 01.49-1.187c.151-.156.327-.278.527-.366.205-.088.425-.132.66-.132h.446a1.635 1.635 0 011.186.498c.157.151.28.33.367.535.088.2.132.417.132.652v.373l-.842.132v-.505a.773.773 0 00-.074-.337.842.842 0 00-.183-.279.84.84 0 00-.278-.183.771.771 0 00-.337-.073h-.388a.802.802 0 00-.337.073.84.84 0 00-.278.183.846.846 0 00-.256.616v3.391c0 .117.021.229.065.337a.943.943 0 00.469.461.88.88 0 00.337.066h.388a.846.846 0 00.615-.256.861.861 0 00.183-.271.809.809 0 00.074-.337v-.513l.842.132v.381zm11.155-6.197a1.654 1.654 0 00-1.187.491 1.697 1.697 0 00-.49 1.187v.425l-.945-.154v-.271c0-.357.066-.691.197-1.004.137-.312.323-.586.557-.82.234-.234.508-.417.82-.549a2.47 2.47 0 011.004-.205h.447c.356 0 .69.063 1.003.19.317.127.593.31.828.549.234.24.417.528.549.865.137.332.205.708.205 1.128 0 .415-.063.832-.19 1.252-.123.42-.286.832-.491 1.238-.2.405-.432.798-.696 1.179-.259.381-.525.74-.798 1.077a20.08 20.08 0 01-2.176 2.27h4.424V817h-5.91v-.747a22.04 22.04 0 002.446-2.336c.307-.347.608-.716.9-1.106.294-.391.555-.791.785-1.202.229-.415.412-.835.549-1.259.141-.43.212-.852.212-1.267 0-.308-.046-.577-.139-.806a1.628 1.628 0 00-.373-.571 1.48 1.48 0 00-.542-.337 1.72 1.72 0 00-.63-.118h-.36zm10.62 7.317c0 .357-.069.691-.205 1.004a2.55 2.55 0 01-.55.82c-.234.234-.507.42-.82.557a2.551 2.551 0 01-1.003.197h-.447c-.356 0-.693-.065-1.01-.197a2.652 2.652 0 01-1.377-1.377 2.558 2.558 0 01-.199-1.004v-5.639c0-.357.066-.691.198-1.004.137-.312.322-.586.557-.82.234-.234.508-.417.82-.549a2.523 2.523 0 011.01-.205h.448c.356 0 .69.068 1.003.205a2.556 2.556 0 011.37 1.369c.136.313.205.647.205 1.004v5.639zm-.945-5.639a1.697 1.697 0 00-.49-1.187 1.696 1.696 0 00-1.187-.491h-.36c-.233 0-.453.044-.658.132-.2.088-.379.208-.535.359a1.699 1.699 0 00-.49 1.187v5.639c0 .235.043.454.131.66.088.2.208.378.359.534.156.152.334.271.535.359.205.088.425.132.659.132h.359a1.68 1.68 0 001.187-.491 1.8 1.8 0 00.358-.534 1.66 1.66 0 00.132-.66v-5.639zm5.457-1.678a1.654 1.654 0 00-1.187.491 1.699 1.699 0 00-.49 1.187v.425l-.945-.154v-.271c0-.357.065-.691.197-1.004.137-.312.322-.586.557-.82.234-.234.508-.417.82-.549a2.471 2.471 0 011.004-.205h.446c.357 0 .691.063 1.004.19.317.127.593.31.827.549.235.24.418.528.55.865.136.332.205.708.205 1.128 0 .415-.064.832-.19 1.252-.123.42-.286.832-.491 1.238-.2.405-.432.798-.696 1.179-.259.381-.525.74-.799 1.077a20.088 20.088 0 01-2.175 2.27h4.424V817h-5.91v-.747a22.03 22.03 0 002.446-2.336c.307-.347.608-.716.9-1.106.294-.391.555-.791.784-1.202.23-.415.413-.835.55-1.259.141-.43.212-.852.212-1.267 0-.308-.046-.577-.14-.806a1.626 1.626 0 00-.373-.571 1.479 1.479 0 00-.542-.337 1.72 1.72 0 00-.63-.118h-.358zm10.341 7.317c0 .357-.068.691-.205 1.004a2.551 2.551 0 01-.549.82c-.234.234-.508.42-.82.557a2.551 2.551 0 01-1.004.197h-.447c-.356 0-.693-.065-1.01-.197a2.65 2.65 0 01-1.377-1.377 2.556 2.556 0 01-.198-1.004v-.161h.945v.161c0 .235.044.454.132.66.088.2.207.378.359.534.156.152.334.271.534.359.205.088.425.132.66.132h.358a1.68 1.68 0 001.187-.491 1.8 1.8 0 00.359-.534 1.66 1.66 0 00.131-.66v-2.036a1.681 1.681 0 00-.49-1.186 1.623 1.623 0 00-.535-.367 1.618 1.618 0 00-.652-.131h-.359a1.67 1.67 0 00-.659.131 1.729 1.729 0 00-.893.901 1.608 1.608 0 00-.132.652h-.945l.6-6.035h4.49v.901h-3.603l-.344 3.23c.224-.215.485-.381.783-.498.298-.122.618-.183.96-.183h.146c.357 0 .691.068 1.004.205a2.533 2.533 0 011.37 1.377c.136.312.204.647.204 1.003v2.036zm5.267-2.16v-.85h2.805v.85H74.98zm14.128-2.022c0 .357-.069.691-.205 1.004a2.548 2.548 0 01-.55.82 2.64 2.64 0 01-.827.557 2.57 2.57 0 01-1.004.197h-2.38V817h-.945v-10.503h3.325c.357 0 .691.068 1.004.205.317.132.593.315.828.549.234.235.417.511.549.828.136.313.205.647.205 1.004v1.303zm-.945-1.303c0-.235-.044-.452-.132-.652a1.628 1.628 0 00-.366-.535 1.635 1.635 0 00-1.186-.498h-2.337v4.665h2.337a1.6 1.6 0 00.651-.131c.205-.088.384-.208.535-.359.156-.152.278-.327.366-.528.088-.205.132-.424.132-.659v-1.303zm4.658 1.274c-.18 0-.351.034-.512.102a1.3 1.3 0 00-.689.696 1.25 1.25 0 00-.102.506V817h-.901v-7.5h.3l.49.762c.206-.279.462-.498.77-.659a2.137 2.137 0 011.018-.249h.527v1.003h-.9zm7.112 4.585c0 .303-.058.588-.176.857a2.169 2.169 0 01-.468.703c-.2.2-.435.359-.704.476a2.204 2.204 0 01-.856.168h-.601c-.303 0-.589-.056-.857-.168a2.265 2.265 0 01-.703-.476 2.27 2.27 0 01-.476-.703 2.2 2.2 0 01-.169-.857v-3.384a2.2 2.2 0 01.169-.857 2.27 2.27 0 01.476-.703c.2-.2.434-.356.703-.469.268-.117.554-.175.857-.175h.6c.303 0 .589.058.857.175a2.169 2.169 0 011.172 1.172c.117.269.176.554.176.857v3.384zm-.9-3.435c0-.181-.035-.349-.103-.506a1.3 1.3 0 00-.279-.417 1.298 1.298 0 00-.417-.278 1.237 1.237 0 00-.505-.103h-.601a1.288 1.288 0 00-1.201.798 1.252 1.252 0 00-.103.506v3.486a1.3 1.3 0 00.381.923 1.288 1.288 0 00.923.381h.6c.181 0 .35-.034.506-.103a1.298 1.298 0 00.696-.688 1.3 1.3 0 00.102-.513v-3.486zm2.929-3.809v-1.201h1.047v1.201h-1.047zm.974 10.1c0 .303-.059.586-.176.85a2.14 2.14 0 01-.469.703c-.2.2-.434.359-.703.476a2.12 2.12 0 01-.857.176v-.857c.181 0 .35-.034.506-.103a1.297 1.297 0 00.798-1.201V809.5h.901v8.298zm7.119-2.856c0 .303-.058.588-.176.857a2.164 2.164 0 01-.468.703c-.201.2-.435.359-.704.476a2.2 2.2 0 01-.856.168h-.601c-.303 0-.588-.056-.857-.168a2.257 2.257 0 01-1.179-1.179 2.205 2.205 0 01-.169-.857v-3.384c0-.303.057-.588.169-.857.117-.268.276-.503.476-.703.2-.2.434-.356.703-.469.269-.117.554-.175.857-.175h.601c.302 0 .588.058.856.175a2.164 2.164 0 011.172 1.172c.118.269.176.554.176.857v1.765h-4.109v1.67a1.288 1.288 0 00.381.923 1.288 1.288 0 00.923.381h.601c.18 0 .349-.034.505-.103a1.297 1.297 0 00.798-1.201v-.498l.901.147v.3zm-.901-3.435a1.3 1.3 0 00-1.303-1.304h-.601a1.288 1.288 0 00-1.201.798 1.241 1.241 0 00-.103.506v1.113h3.208v-1.113zM114.59 817a1.969 1.969 0 01-1.406-.579 2.146 2.146 0 01-.425-.629 1.929 1.929 0 01-.154-.77v-4.665h-1.348v-.857h1.348v-1.802l.901-.146v1.948h1.904v.857h-1.904v4.709c0 .152.027.293.08.425.059.127.137.239.235.337.097.098.212.176.344.234.132.054.273.081.425.081h.82V817h-.82zm8.144-6.643c-.18 0-.351.034-.512.102a1.3 1.3 0 00-.791 1.202V817h-.901v-7.5h.3l.491.762c.205-.279.461-.498.769-.659a2.136 2.136 0 011.018-.249h.527v1.003h-.901zm7.112 4.585c0 .303-.058.588-.176.857a2.164 2.164 0 01-.468.703 2.28 2.28 0 01-.703.476 2.208 2.208 0 01-.857.168h-.601c-.303 0-.588-.056-.857-.168a2.268 2.268 0 01-.703-.476c-.2-.2-.359-.435-.476-.703a2.205 2.205 0 01-.169-.857v-3.384c0-.303.057-.588.169-.857.117-.268.276-.503.476-.703.2-.2.435-.356.703-.469.269-.117.554-.175.857-.175h.601c.302 0 .588.058.857.175a2.164 2.164 0 011.171 1.172c.118.269.176.554.176.857v1.765h-4.109v1.67a1.288 1.288 0 00.381.923 1.288 1.288 0 00.923.381h.601c.18 0 .349-.034.505-.103a1.297 1.297 0 00.798-1.201v-.498l.901.147v.3zm-.901-3.435a1.3 1.3 0 00-1.303-1.304h-.601a1.288 1.288 0 00-1.201.798 1.241 1.241 0 00-.103.506v1.113h3.208v-1.113zm-1.977-3.208h-.674l1.194-1.802h1.501l-2.021 1.802zm9.389 8.701l-.498-.747a2.373 2.373 0 01-.769.652 2.142 2.142 0 01-1.01.241h-.227c-.303 0-.589-.056-.857-.168a2.273 2.273 0 01-.704-.476c-.2-.2-.358-.435-.476-.703a2.205 2.205 0 01-.168-.857v-.073c0-.303.056-.589.168-.857.118-.269.276-.503.476-.703.201-.201.435-.357.704-.469a2.12 2.12 0 01.857-.176h1.904v-1.157c0-.181-.034-.349-.103-.506a1.29 1.29 0 00-.696-.695 1.233 1.233 0 00-.505-.103h-.527a1.288 1.288 0 00-1.201.798 1.241 1.241 0 00-.103.506v.271l-.901-.147v-.073c0-.303.056-.588.169-.857.117-.268.276-.503.476-.703.2-.2.434-.356.703-.469a2.12 2.12 0 01.857-.175h.527c.303 0 .589.058.857.175a2.172 2.172 0 011.172 1.172c.117.269.176.554.176.857V817h-.301zm-.6-3.633h-1.904a1.26 1.26 0 00-.923.388 1.315 1.315 0 00-.381.923v.315c0 .181.034.352.102.513a1.324 1.324 0 00.689.688c.161.069.332.103.513.103h.6c.181 0 .349-.034.505-.103a1.29 1.29 0 00.799-1.201v-1.626zM138.76 817v-10.503h.901V817h-.901zm3.237-9.302v-1.201h1.047v1.201h-1.047zm.073 9.302v-7.5h.901v7.5h-.901zm8.167-1.904a1.905 1.905 0 01-.681 1.479c-.21.181-.454.322-.733.425a2.537 2.537 0 01-.864.146h-.601c-.302 0-.593-.056-.871-.168a2.419 2.419 0 01-.725-.476 2.422 2.422 0 01-.498-.703 2.049 2.049 0 01-.183-.857v-.3l.9-.147v.498c0 .181.037.352.11.513.078.156.181.293.308.41.127.117.273.21.439.278.166.069.34.103.52.103h.601c.181 0 .354-.027.52-.081.166-.053.313-.129.439-.227.132-.102.235-.224.308-.366a.987.987 0 00.117-.483c0-.269-.058-.489-.176-.66a1.411 1.411 0 00-.468-.424 2.68 2.68 0 00-.659-.286 23.49 23.49 0 00-.755-.227 9.781 9.781 0 01-.762-.264 2.556 2.556 0 01-.659-.381 1.83 1.83 0 01-.461-.6c-.117-.239-.176-.537-.176-.894a1.983 1.983 0 01.652-1.479c.2-.181.432-.32.696-.418a2.39 2.39 0 01.857-.153h.527c.303 0 .588.058.857.175.268.113.503.269.703.469.2.2.356.435.469.703.117.269.176.554.176.857v.029l-.901.147v-.227c0-.181-.034-.349-.103-.506a1.297 1.297 0 00-.278-.417 1.301 1.301 0 00-.418-.278 1.233 1.233 0 00-.505-.103h-.527c-.181 0-.352.027-.513.081a1.212 1.212 0 00-.41.234c-.117.098-.21.217-.279.359a1.105 1.105 0 00-.102.483c0 .259.059.472.176.638.117.161.271.297.461.41.195.112.415.207.659.285.249.074.501.152.755.235.259.078.51.168.754.271.249.102.469.234.659.395.196.161.352.364.469.608.117.239.176.537.176.894zm6.738-.154c0 .303-.058.588-.176.857a2.164 2.164 0 01-.468.703c-.201.2-.435.359-.704.476a2.2 2.2 0 01-.856.168h-.601c-.303 0-.588-.056-.857-.168a2.257 2.257 0 01-1.179-1.179 2.187 2.187 0 01-.169-.857v-3.384c0-.303.056-.588.169-.857.117-.268.276-.503.476-.703.2-.2.434-.356.703-.469.269-.117.554-.175.857-.175h.601c.302 0 .588.058.856.175a2.164 2.164 0 011.172 1.172c.118.269.176.554.176.857v1.765h-4.109v1.67a1.288 1.288 0 00.381.923 1.288 1.288 0 00.923.381h.601c.18 0 .349-.034.505-.103a1.297 1.297 0 00.798-1.201v-.498l.901.147v.3zm-.901-3.435a1.3 1.3 0 00-1.303-1.304h-.601a1.288 1.288 0 00-1.201.798 1.241 1.241 0 00-.103.506v1.113h3.208v-1.113zm-1.977-3.208h-.674l1.194-1.802h1.501l-2.021 1.802zm13.147 6.643c0 .303-.059.588-.176.857a2.166 2.166 0 01-.469.703c-.2.2-.434.359-.703.476a2.205 2.205 0 01-.857.168h-.601a2.2 2.2 0 01-.856-.168 2.273 2.273 0 01-.704-.476c-.2-.2-.358-.435-.476-.703a2.205 2.205 0 01-.168-.857v-3.384c0-.303.056-.588.168-.857a2.187 2.187 0 011.18-1.172c.268-.117.554-.175.856-.175h.601c.303 0 .588.058.857.175a2.172 2.172 0 011.172 1.172c.117.269.176.554.176.857v1.765h-4.109v1.67c0 .181.034.352.102.513a1.324 1.324 0 00.689.688c.161.069.332.103.512.103h.601c.181 0 .349-.034.505-.103a1.29 1.29 0 00.799-1.201v-.498l.901.147v.3zm-.901-3.435c0-.181-.034-.349-.103-.506a1.29 1.29 0 00-.696-.695 1.233 1.233 0 00-.505-.103h-.601a1.287 1.287 0 00-.922.381 1.3 1.3 0 00-.381.923v1.113h3.208v-1.113zm6.811 5.493v-5.493a1.3 1.3 0 00-1.303-1.304h-.601a1.288 1.288 0 00-1.201.798 1.241 1.241 0 00-.103.506V817h-.901v-7.5h.301l.49.762a2.23 2.23 0 011.788-.908h.227c.302 0 .588.058.857.175a2.164 2.164 0 011.171 1.172c.118.269.176.554.176.857V817h-.901zm8.709-9.749a1.65 1.65 0 00-1.187.491c-.151.152-.271.33-.359.535a1.6 1.6 0 00-.131.652v.425l-.945-.154v-.271c0-.357.066-.691.197-1.004.137-.312.323-.586.557-.82.234-.234.508-.417.82-.549a2.474 2.474 0 011.004-.205h.447c.356 0 .691.063 1.003.19.317.127.593.31.828.549.234.24.417.528.549.865.137.332.205.708.205 1.128 0 .415-.063.832-.19 1.252-.122.42-.286.832-.491 1.238-.2.405-.432.798-.696 1.179-.259.381-.525.74-.798 1.077a20.088 20.088 0 01-2.176 2.27h4.424V817h-5.91v-.747a22.062 22.062 0 002.446-2.336c.308-.347.608-.716.901-1.106.293-.391.554-.791.784-1.202.229-.415.412-.835.549-1.259a4.05 4.05 0 00.212-1.267c0-.308-.046-.577-.139-.806a1.632 1.632 0 00-.373-.571 1.486 1.486 0 00-.542-.337 1.727 1.727 0 00-.63-.118h-.359zm10.62 7.317c0 .357-.068.691-.205 1.004a2.557 2.557 0 01-.549.82c-.235.234-.508.42-.821.557a2.55 2.55 0 01-1.003.197h-.447a2.61 2.61 0 01-1.011-.197 2.663 2.663 0 01-.82-.557 2.663 2.663 0 01-.557-.82 2.554 2.554 0 01-.197-1.004v-5.639c0-.357.065-.691.197-1.004.137-.312.323-.586.557-.82.234-.234.508-.417.82-.549a2.528 2.528 0 011.011-.205h.447c.356 0 .691.068 1.003.205.313.132.586.315.821.549.234.234.417.508.549.82.137.313.205.647.205 1.004v5.639zm-.945-5.639a1.689 1.689 0 00-.491-1.187 1.69 1.69 0 00-1.186-.491h-.359c-.234 0-.454.044-.659.132-.2.088-.379.208-.535.359-.151.152-.271.33-.359.535a1.6 1.6 0 00-.132.652v5.639c0 .235.044.454.132.66.088.2.208.378.359.534.156.152.335.271.535.359.205.088.425.132.659.132h.359a1.673 1.673 0 001.677-1.685v-5.639zm5.457-1.678a1.659 1.659 0 00-1.546 1.026 1.6 1.6 0 00-.132.652v.425l-.944-.154v-.271c0-.357.065-.691.197-1.004.137-.312.323-.586.557-.82.234-.234.508-.417.82-.549a2.474 2.474 0 011.004-.205h.446c.357 0 .691.063 1.004.19.317.127.593.31.828.549.234.24.417.528.549.865.137.332.205.708.205 1.128 0 .415-.064.832-.191 1.252-.122.42-.285.832-.49 1.238-.2.405-.432.798-.696 1.179-.259.381-.525.74-.798 1.077a20.088 20.088 0 01-2.176 2.27h4.424V817h-5.91v-.747a22.062 22.062 0 002.446-2.336c.307-.347.608-.716.901-1.106.293-.391.554-.791.783-1.202.23-.415.413-.835.55-1.259a4.05 4.05 0 00.212-1.267c0-.308-.046-.577-.139-.806a1.62 1.62 0 00-.374-.571 1.478 1.478 0 00-.542-.337c-.2-.078-.41-.118-.629-.118h-.359zm10.341 7.317c0 .357-.068.691-.205 1.004a2.54 2.54 0 01-.549.82c-.234.234-.508.42-.82.557a2.554 2.554 0 01-1.004.197h-.446c-.357 0-.694-.065-1.011-.197a2.668 2.668 0 01-.821-.557 2.66 2.66 0 01-.556-.82 2.555 2.555 0 01-.198-1.004v-.161h.945v.161c0 .235.044.454.132.66.088.2.207.378.359.534.156.152.334.271.534.359.205.088.425.132.659.132h.359a1.678 1.678 0 001.187-.491 1.81 1.81 0 00.359-.534c.088-.206.132-.425.132-.66v-2.036a1.69 1.69 0 00-.491-1.186 1.62 1.62 0 00-.535-.367 1.616 1.616 0 00-.652-.131h-.359a1.67 1.67 0 00-.659.131 1.726 1.726 0 00-.893.901 1.607 1.607 0 00-.132.652h-.945l.601-6.035h4.489v.901h-3.603l-.344 3.23c.224-.215.485-.381.783-.498a2.51 2.51 0 01.96-.183h.146c.357 0 .691.068 1.004.205a2.522 2.522 0 011.369 1.377c.137.312.205.647.205 1.003v2.036zm10.13 2.432l-.498-.762a2.298 2.298 0 01-.769.667 2.149 2.149 0 01-1.011.241h-.227c-.303 0-.588-.056-.857-.168a2.257 2.257 0 01-1.179-1.179 2.187 2.187 0 01-.169-.857v-3.384c0-.303.056-.588.169-.857.117-.268.276-.503.476-.703.2-.2.434-.356.703-.469.269-.117.554-.175.857-.175h.227a2.152 2.152 0 011.677.776v-3.633h.901V817h-.3zm-.601-5.493a1.3 1.3 0 00-1.303-1.304h-.601a1.288 1.288 0 00-1.201.798 1.241 1.241 0 00-.103.506v3.486a1.288 1.288 0 00.381.923 1.288 1.288 0 00.923.381h.601c.18 0 .349-.034.505-.103a1.297 1.297 0 00.798-1.201v-3.486zm7.412 5.493l-.498-.747a2.373 2.373 0 01-.769.652 2.142 2.142 0 01-1.01.241h-.228a2.2 2.2 0 01-.856-.168 2.273 2.273 0 01-.704-.476c-.2-.2-.358-.435-.476-.703a2.205 2.205 0 01-.168-.857v-.073c0-.303.056-.589.168-.857.118-.269.276-.503.476-.703.201-.201.435-.357.704-.469.268-.117.554-.176.856-.176h1.905v-1.157c0-.181-.034-.349-.103-.506a1.29 1.29 0 00-.696-.695 1.233 1.233 0 00-.505-.103h-.527a1.288 1.288 0 00-1.201.798 1.241 1.241 0 00-.103.506v.271l-.901-.147v-.073c0-.303.056-.588.169-.857.117-.268.275-.503.476-.703.2-.2.434-.356.703-.469a2.12 2.12 0 01.857-.175h.527c.303 0 .588.058.857.175a2.172 2.172 0 011.172 1.172c.117.269.176.554.176.857V817h-.301zm-.6-3.633h-1.905a1.26 1.26 0 00-.922.388 1.315 1.315 0 00-.381.923v.315c0 .181.034.352.102.513a1.324 1.324 0 00.689.688c.161.069.332.103.512.103h.601c.181 0 .349-.034.505-.103a1.29 1.29 0 00.799-1.201v-1.626zm6.811 3.633v-5.493a1.3 1.3 0 00-1.303-1.304h-.601a1.288 1.288 0 00-1.201.798 1.241 1.241 0 00-.103.506V817h-.901v-7.5h.301l.49.762a2.221 2.221 0 011.788-.908h.227c.302 0 .588.058.857.175a2.164 2.164 0 011.171 1.172c.118.269.176.554.176.857V817h-.901zm7.859-1.904a1.905 1.905 0 01-.681 1.479c-.21.181-.454.322-.732.425a2.547 2.547 0 01-.865.146h-.6c-.303 0-.594-.056-.872-.168a2.431 2.431 0 01-.725-.476 2.422 2.422 0 01-.498-.703 2.049 2.049 0 01-.183-.857v-.3l.901-.147v.498c0 .181.036.352.11.513a1.409 1.409 0 00.747.688c.166.069.339.103.52.103h.6c.181 0 .354-.027.52-.081.166-.053.313-.129.44-.227.132-.102.234-.224.307-.366a.976.976 0 00.118-.483c0-.269-.059-.489-.176-.66a1.415 1.415 0 00-.469-.424 2.664 2.664 0 00-.659-.286 23.422 23.422 0 00-.754-.227 9.781 9.781 0 01-.762-.264 2.54 2.54 0 01-.659-.381 1.819 1.819 0 01-.462-.6c-.117-.239-.176-.537-.176-.894a1.983 1.983 0 01.652-1.479c.2-.181.432-.32.696-.418.269-.102.554-.153.857-.153h.527c.303 0 .589.058.857.175a2.172 2.172 0 011.172 1.172c.117.269.176.554.176.857v.029l-.901.147v-.227a1.316 1.316 0 00-.381-.923 1.297 1.297 0 00-.417-.278 1.241 1.241 0 00-.506-.103h-.527c-.181 0-.352.027-.513.081a1.212 1.212 0 00-.41.234 1.059 1.059 0 00-.381.842c0 .259.059.472.176.638.117.161.271.297.461.41.196.112.416.207.66.285.249.074.5.152.754.235.259.078.51.168.754.271.249.102.469.234.66.395.195.161.351.364.468.608.118.239.176.537.176.894zm5.486 1.904v-10.503h.901V817h-.901zm8.02-2.058c0 .303-.059.588-.176.857a2.15 2.15 0 01-.469.703c-.2.2-.434.359-.703.476a2.201 2.201 0 01-.857.168h-.6c-.303 0-.589-.056-.857-.168a2.257 2.257 0 01-1.179-1.179 2.187 2.187 0 01-.169-.857v-3.384c0-.303.056-.588.169-.857.117-.268.276-.503.476-.703.2-.2.434-.356.703-.469a2.12 2.12 0 01.857-.175h.6c.303 0 .589.058.857.175a2.172 2.172 0 011.172 1.172c.117.269.176.554.176.857v1.765h-4.109v1.67a1.288 1.288 0 00.381.923 1.288 1.288 0 00.923.381h.6c.181 0 .35-.034.506-.103a1.297 1.297 0 00.798-1.201v-.498l.901.147v.3zm-.901-3.435a1.316 1.316 0 00-.381-.923 1.297 1.297 0 00-.417-.278 1.238 1.238 0 00-.506-.103h-.6a1.288 1.288 0 00-1.201.798 1.241 1.241 0 00-.103.506v1.113h3.208v-1.113zm11.17 3.435c0 .303-.059.588-.176.857a2.183 2.183 0 01-.469.703c-.2.2-.435.359-.703.476a2.205 2.205 0 01-.857.168h-.601c-.302 0-.588-.056-.857-.168a2.28 2.28 0 01-.703-.476c-.2-.2-.359-.435-.476-.703a2.205 2.205 0 01-.168-.857v-3.384c0-.303.056-.588.168-.857a2.193 2.193 0 011.179-1.172c.269-.117.555-.175.857-.175h.601c.303 0 .588.058.857.175.268.113.503.269.703.469.2.2.356.435.469.703.117.269.176.554.176.857v.3l-.901.147v-.498c0-.181-.034-.349-.103-.506a1.297 1.297 0 00-.278-.417 1.301 1.301 0 00-.418-.278 1.233 1.233 0 00-.505-.103h-.601a1.287 1.287 0 00-.922.381 1.3 1.3 0 00-.381.923v3.486c0 .181.034.352.102.513a1.324 1.324 0 00.689.688c.161.069.332.103.512.103h.601c.181 0 .349-.034.505-.103a1.301 1.301 0 00.696-.688c.069-.161.103-.332.103-.513v-.498l.901.147v.3zm6.511 2.058l-.498-.747a2.384 2.384 0 01-.769.652 2.149 2.149 0 01-1.011.241h-.227c-.303 0-.588-.056-.857-.168a2.257 2.257 0 01-1.179-1.179 2.187 2.187 0 01-.169-.857v-.073c0-.303.056-.589.169-.857.117-.269.276-.503.476-.703.2-.201.434-.357.703-.469.269-.117.554-.176.857-.176h1.904v-1.157a1.3 1.3 0 00-1.303-1.304h-.528a1.295 1.295 0 00-1.304 1.304v.271l-.9-.147v-.073c0-.303.056-.588.168-.857.117-.268.276-.503.476-.703.2-.2.435-.356.703-.469.269-.117.554-.175.857-.175h.528c.302 0 .588.058.856.175a2.164 2.164 0 011.172 1.172c.118.269.176.554.176.857V817h-.3zm-.601-3.633h-1.904a1.26 1.26 0 00-.923.388c-.117.118-.21.257-.278.418a1.236 1.236 0 00-.103.505v.315a1.288 1.288 0 00.381.923 1.288 1.288 0 00.923.381h.601c.18 0 .349-.034.505-.103a1.297 1.297 0 00.798-1.201v-1.626zm7.412 3.633l-.498-.762a2.288 2.288 0 01-.769.667 2.142 2.142 0 01-1.01.241h-.228a2.2 2.2 0 01-.856-.168 2.273 2.273 0 01-.704-.476c-.2-.2-.358-.435-.476-.703a2.205 2.205 0 01-.168-.857v-3.384c0-.303.056-.588.168-.857a2.187 2.187 0 011.18-1.172c.268-.117.554-.175.856-.175h.228a2.155 2.155 0 011.677.776v-3.633h.901V817h-.301zm-.6-5.493c0-.181-.034-.349-.103-.506a1.29 1.29 0 00-.696-.695 1.233 1.233 0 00-.505-.103h-.601a1.287 1.287 0 00-.922.381 1.3 1.3 0 00-.381.923v3.486c0 .181.034.352.102.513a1.324 1.324 0 00.689.688c.161.069.332.103.512.103h.601c.181 0 .349-.034.505-.103a1.29 1.29 0 00.799-1.201v-3.486zm4.907-1.15c-.181 0-.352.034-.513.102a1.297 1.297 0 00-.688.696 1.241 1.241 0 00-.103.506V817h-.901v-7.5h.301l.49.762a2.221 2.221 0 011.788-.908h.527v1.003h-.901zm7.112 4.585c0 .303-.059.588-.176.857a2.166 2.166 0 01-.469.703c-.2.2-.434.359-.703.476a2.201 2.201 0 01-.857.168h-.6c-.303 0-.589-.056-.857-.168a2.257 2.257 0 01-1.18-1.179 2.205 2.205 0 01-.168-.857v-3.384c0-.303.056-.588.168-.857.118-.268.276-.503.477-.703.2-.2.434-.356.703-.469a2.12 2.12 0 01.857-.175h.6c.303 0 .589.058.857.175a2.172 2.172 0 011.172 1.172c.117.269.176.554.176.857v1.765h-4.109v1.67c0 .181.034.352.102.513a1.322 1.322 0 00.689.688c.161.069.332.103.513.103h.6c.181 0 .349-.034.506-.103a1.297 1.297 0 00.798-1.201v-.498l.901.147v.3zm-.901-3.435c0-.181-.034-.349-.103-.506a1.297 1.297 0 00-.278-.417 1.297 1.297 0 00-.417-.278 1.241 1.241 0 00-.506-.103h-.6a1.288 1.288 0 00-1.202.798 1.257 1.257 0 00-.102.506v1.113h3.208v-1.113zM296.831 817l-.498-.762a2.288 2.288 0 01-.769.667 2.149 2.149 0 01-1.011.241h-.227c-.303 0-.588-.056-.857-.168a2.268 2.268 0 01-.703-.476c-.2-.2-.359-.435-.476-.703a2.205 2.205 0 01-.168-.857v-3.384c0-.303.056-.588.168-.857.117-.268.276-.503.476-.703.2-.2.435-.356.703-.469.269-.117.554-.175.857-.175h.227a2.156 2.156 0 011.677.776v-3.633h.901V817h-.3zm-.601-5.493c0-.181-.034-.349-.102-.506a1.297 1.297 0 00-.278-.417 1.312 1.312 0 00-.418-.278 1.236 1.236 0 00-.505-.103h-.601a1.295 1.295 0 00-1.304 1.304v3.486a1.306 1.306 0 00.381.923 1.295 1.295 0 00.923.381h.601c.18 0 .349-.034.505-.103.161-.068.3-.161.418-.278.117-.117.21-.254.278-.41.068-.161.102-.332.102-.513v-3.486zm3.23-1.78h-.38v-3.23h1.128l-.748 3.23zm7.112 7.273l-.498-.762a2.288 2.288 0 01-.769.667 2.143 2.143 0 01-1.011.241h-.227c-.302 0-.588-.056-.857-.168a2.28 2.28 0 01-.703-.476c-.2-.2-.359-.435-.476-.703a2.205 2.205 0 01-.168-.857V809.5h.901v5.493c0 .181.034.352.102.513a1.324 1.324 0 00.689.688c.161.069.332.103.512.103h.601c.181 0 .349-.034.505-.103a1.301 1.301 0 00.696-.688c.069-.161.103-.332.103-.513V809.5h.901v7.5h-.301zm6.211 0v-5.493a1.3 1.3 0 00-1.304-1.304h-.6a1.288 1.288 0 00-1.201.798 1.241 1.241 0 00-.103.506V817h-.901v-7.5h.301l.49.762a2.221 2.221 0 011.787-.908h.227c.303 0 .589.058.857.175a2.164 2.164 0 011.172 1.172c.117.269.176.554.176.857V817h-.901zm11.17-2.058c0 .303-.059.588-.176.857a2.166 2.166 0 01-.469.703c-.2.2-.434.359-.703.476a2.205 2.205 0 01-.857.168h-.601a2.2 2.2 0 01-.856-.168 2.273 2.273 0 01-.704-.476c-.2-.2-.358-.435-.476-.703a2.205 2.205 0 01-.168-.857v-3.384c0-.303.056-.588.168-.857a2.187 2.187 0 011.18-1.172c.268-.117.554-.175.856-.175h.601c.303 0 .588.058.857.175a2.172 2.172 0 011.172 1.172c.117.269.176.554.176.857v1.765h-4.109v1.67c0 .181.034.352.102.513a1.324 1.324 0 00.689.688c.161.069.332.103.512.103h.601c.181 0 .349-.034.505-.103a1.29 1.29 0 00.799-1.201v-.498l.901.147v.3zm-.901-3.435c0-.181-.034-.349-.103-.506a1.29 1.29 0 00-.696-.695 1.233 1.233 0 00-.505-.103h-.601a1.287 1.287 0 00-.922.381 1.3 1.3 0 00-.381.923v1.113h3.208v-1.113zm6.584 5.493l-1.604-2.878-1.604 2.878h-.974l2.102-3.75-2.102-3.75h.974l1.604 2.878 1.604-2.878h.974l-2.094 3.75 2.094 3.75h-.974zm7.486-2.058c0 .303-.059.588-.176.857a2.183 2.183 0 01-.469.703c-.2.2-.435.359-.703.476a2.205 2.205 0 01-.857.168h-.601c-.302 0-.588-.056-.857-.168a2.28 2.28 0 01-.703-.476c-.2-.2-.359-.435-.476-.703a2.205 2.205 0 01-.168-.857v-3.384c0-.303.056-.588.168-.857a2.193 2.193 0 011.179-1.172c.269-.117.555-.175.857-.175h.601c.303 0 .588.058.857.175.268.113.503.269.703.469.2.2.356.435.469.703.117.269.176.554.176.857v1.765h-4.109v1.67c0 .181.034.352.102.513a1.324 1.324 0 00.689.688c.161.069.332.103.512.103h.601c.181 0 .349-.034.505-.103a1.301 1.301 0 00.696-.688c.069-.161.103-.332.103-.513v-.498l.901.147v.3zm-.901-3.435c0-.181-.034-.349-.103-.506a1.297 1.297 0 00-.278-.417 1.301 1.301 0 00-.418-.278 1.233 1.233 0 00-.505-.103h-.601a1.287 1.287 0 00-.922.381 1.3 1.3 0 00-.381.923v1.113h3.208v-1.113zm4.907-1.15c-.181 0-.352.034-.513.102a1.297 1.297 0 00-.688.696 1.241 1.241 0 00-.103.506V817h-.901v-7.5h.301l.49.762a2.221 2.221 0 011.787-.908h.528v1.003h-.901zm7.112 4.585c0 .303-.059.588-.176.857a2.166 2.166 0 01-.469.703c-.2.2-.434.359-.703.476a2.201 2.201 0 01-.857.168h-.6c-.303 0-.589-.056-.857-.168a2.257 2.257 0 01-1.18-1.179 2.205 2.205 0 01-.168-.857v-3.384c0-.303.056-.588.168-.857.118-.268.276-.503.477-.703.2-.2.434-.356.703-.469a2.12 2.12 0 01.857-.175h.6c.303 0 .589.058.857.175a2.172 2.172 0 011.172 1.172c.117.269.176.554.176.857v.3l-.901.147v-.498c0-.181-.034-.349-.103-.506a1.297 1.297 0 00-.278-.417 1.297 1.297 0 00-.417-.278 1.241 1.241 0 00-.506-.103h-.6a1.288 1.288 0 00-1.202.798 1.257 1.257 0 00-.102.506v3.486c0 .181.034.352.102.513a1.322 1.322 0 00.689.688c.161.069.332.103.513.103h.6c.181 0 .349-.034.506-.103a1.297 1.297 0 00.798-1.201v-.498l.901.147v.3zm2.029-7.244v-1.201h1.047v1.201h-1.047zm.073 9.302v-7.5h.901v7.5h-.901zm8.02-2.058c0 .303-.059.588-.176.857a2.166 2.166 0 01-.469.703c-.2.2-.434.359-.703.476a2.201 2.201 0 01-.857.168h-.6c-.303 0-.589-.056-.857-.168a2.257 2.257 0 01-1.179-1.179 2.187 2.187 0 01-.169-.857v-3.384c0-.303.056-.588.169-.857.117-.268.275-.503.476-.703.2-.2.434-.356.703-.469a2.12 2.12 0 01.857-.175h.6c.303 0 .589.058.857.175a2.172 2.172 0 011.172 1.172c.117.269.176.554.176.857v.3l-.901.147v-.498c0-.181-.034-.349-.103-.506a1.297 1.297 0 00-.278-.417 1.297 1.297 0 00-.417-.278 1.241 1.241 0 00-.506-.103h-.6a1.288 1.288 0 00-1.202.798 1.257 1.257 0 00-.102.506v3.486c0 .181.034.352.102.513a1.322 1.322 0 00.689.688c.161.069.332.103.513.103h.6c.181 0 .349-.034.506-.103a1.297 1.297 0 00.798-1.201v-.498l.901.147v.3zm6.811 0c0 .303-.058.588-.175.857a2.183 2.183 0 01-.469.703c-.2.2-.435.359-.703.476a2.208 2.208 0 01-.857.168h-.601c-.303 0-.588-.056-.857-.168a2.268 2.268 0 01-.703-.476c-.2-.2-.359-.435-.476-.703a2.205 2.205 0 01-.168-.857v-3.384c0-.303.056-.588.168-.857.117-.268.276-.503.476-.703.2-.2.435-.356.703-.469.269-.117.554-.175.857-.175h.601c.302 0 .588.058.857.175.268.113.503.269.703.469.2.2.356.435.469.703.117.269.175.554.175.857v1.765h-4.109v1.67a1.306 1.306 0 00.381.923 1.295 1.295 0 00.923.381h.601c.18 0 .349-.034.505-.103.161-.068.3-.161.418-.278.117-.117.21-.254.278-.41.068-.161.102-.332.102-.513v-.498l.901.147v.3zm-.901-3.435c0-.181-.034-.349-.102-.506a1.297 1.297 0 00-.278-.417 1.312 1.312 0 00-.418-.278 1.236 1.236 0 00-.505-.103h-.601a1.295 1.295 0 00-1.304 1.304v1.113h3.208v-1.113zm-299.97 23.435c0 .303-.059.588-.176.857a2.168 2.168 0 01-.469.703c-.2.2-.434.359-.703.476a2.204 2.204 0 01-.857.168h-.227a2.155 2.155 0 01-1.677-.776v3.633h-.901V829.5h.3l.491.762c.205-.279.461-.498.77-.659a2.136 2.136 0 011.017-.249h.227c.303 0 .588.058.857.175a2.168 2.168 0 011.172 1.172c.117.269.176.554.176.857v3.384zm-.901-3.435a1.25 1.25 0 00-.103-.506 1.299 1.299 0 00-.278-.417 1.299 1.299 0 00-.418-.278 1.236 1.236 0 00-.505-.103h-.6a1.288 1.288 0 00-1.202.798 1.252 1.252 0 00-.102.506v3.486a1.3 1.3 0 00.38.923 1.288 1.288 0 00.923.381h.601c.18 0 .35-.034.505-.103a1.299 1.299 0 00.696-.688c.069-.161.103-.332.103-.513v-3.486zm7.712 3.435c0 .303-.058.588-.175.857a2.169 2.169 0 01-.47.703c-.2.2-.434.359-.702.476a2.204 2.204 0 01-.857.168h-.6c-.304 0-.59-.056-.858-.168a2.265 2.265 0 01-.703-.476 2.27 2.27 0 01-.476-.703 2.2 2.2 0 01-.169-.857v-3.384a2.2 2.2 0 01.169-.857 2.27 2.27 0 01.476-.703c.2-.2.435-.356.703-.469.269-.117.554-.175.857-.175h.6c.303 0 .59.058.858.175a2.169 2.169 0 011.172 1.172c.117.269.175.554.175.857v1.765h-4.109v1.67a1.3 1.3 0 00.381.923 1.288 1.288 0 00.923.381h.6c.181 0 .35-.034.506-.103a1.298 1.298 0 00.696-.688 1.3 1.3 0 00.102-.513v-.498l.901.147v.3zm-.9-3.435c0-.181-.035-.349-.103-.506a1.3 1.3 0 00-.278-.417 1.298 1.298 0 00-.418-.278 1.237 1.237 0 00-.505-.103h-.6a1.288 1.288 0 00-1.202.798 1.252 1.252 0 00-.103.506v1.113h3.208v-1.113zm-1.978-3.208h-.674l1.194-1.802h1.501l-2.021 1.802zm9.39 8.701l-.499-.762a2.294 2.294 0 01-.769.667 2.146 2.146 0 01-1.01.241h-.227c-.303 0-.589-.056-.857-.168a2.264 2.264 0 01-.703-.476c-.2-.2-.36-.435-.477-.703a2.2 2.2 0 01-.168-.857v-3.384a2.2 2.2 0 01.168-.857c.118-.268.276-.503.477-.703.2-.2.434-.356.703-.469.268-.117.554-.175.857-.175h.227a2.155 2.155 0 011.677.776v-3.633h.9V837h-.3zm-.601-5.493c0-.181-.034-.349-.103-.506a1.3 1.3 0 00-.278-.417 1.3 1.3 0 00-.417-.278 1.237 1.237 0 00-.506-.103h-.6a1.289 1.289 0 00-1.202.798 1.25 1.25 0 00-.102.506v3.486a1.298 1.298 0 001.304 1.304h.6c.18 0 .35-.034.506-.103a1.3 1.3 0 00.695-.688 1.3 1.3 0 00.103-.513v-3.486zM84.436 837l-.498-.747a2.378 2.378 0 01-.77.652 2.146 2.146 0 01-1.01.241h-.227c-.303 0-.588-.056-.857-.168a2.265 2.265 0 01-.703-.476c-.2-.2-.359-.435-.476-.703a2.2 2.2 0 01-.168-.857v-.073c0-.303.056-.589.168-.857.117-.269.276-.503.476-.703.2-.201.435-.357.703-.469.269-.117.554-.176.857-.176h1.904v-1.157a1.25 1.25 0 00-.102-.506 1.299 1.299 0 00-.278-.417 1.3 1.3 0 00-.418-.278 1.236 1.236 0 00-.505-.103h-.528a1.288 1.288 0 00-1.2.798 1.252 1.252 0 00-.103.506v.271l-.901-.147v-.073a2.2 2.2 0 01.168-.857c.117-.268.276-.503.476-.703.2-.2.435-.356.703-.469.269-.117.555-.175.857-.175h.528c.303 0 .588.058.857.175a2.167 2.167 0 011.172 1.172c.117.269.175.554.175.857V837h-.3zm-.6-3.633H81.93a1.26 1.26 0 00-.923.388 1.314 1.314 0 00-.38.923v.315a1.298 1.298 0 001.303 1.304h.6c.181 0 .35-.034.506-.103a1.3 1.3 0 00.696-.688c.068-.161.102-.332.102-.513v-1.626zm7.785 4.578c0 .303-.058.581-.176.835a1.907 1.907 0 01-.468.652c-.2.18-.435.319-.704.417a2.372 2.372 0 01-.856.154h-.374c-.303 0-.588-.051-.857-.154a2.133 2.133 0 01-.703-.417 1.994 1.994 0 01-.476-.652 2.04 2.04 0 01-.169-.835v-.029a1.98 1.98 0 01.601-1.443 1.62 1.62 0 01-.564-.572 1.618 1.618 0 01-.205-.805c0-.264.056-.508.168-.733.113-.229.267-.415.462-.556a2.257 2.257 0 01-.557-.74 2.174 2.174 0 01-.205-.945v-.564a2.2 2.2 0 01.169-.857c.117-.268.275-.503.476-.703.2-.2.434-.356.703-.469.268-.117.554-.175.857-.175h.373c.366 0 .703.083 1.011.249.313.161.571.38.776.659l.491-.762h.3v2.622c0 .303-.058.588-.175.857a2.158 2.158 0 01-.47.703c-.2.2-.434.359-.702.476a2.187 2.187 0 01-.857.169h-1.304c-.103 0-.2.022-.293.066a.826.826 0 00-.249.161.726.726 0 00-.161.249.746.746 0 000 .586c.039.092.093.175.161.249a.846.846 0 00.25.161c.092.039.19.058.292.058h1.23c.303 0 .589.052.857.154.269.098.503.237.704.418.2.18.356.398.468.652.118.253.176.532.176.835v.029zm-.82-6.438a1.25 1.25 0 00-.103-.506 1.243 1.243 0 00-.285-.417 1.3 1.3 0 00-.418-.278 1.236 1.236 0 00-.505-.103h-.747a1.288 1.288 0 00-1.201.798 1.25 1.25 0 00-.103.506v.666a1.298 1.298 0 001.304 1.304h.747a1.319 1.319 0 00.923-.381 1.265 1.265 0 00.388-.923v-.666zm-.037 6.365c0-.181-.034-.345-.102-.491a1.06 1.06 0 00-.279-.359 1.272 1.272 0 00-.417-.227 1.537 1.537 0 00-.506-.081H89c-.18 0-.352.027-.513.081a1.287 1.287 0 00-.41.227 1.06 1.06 0 00-.38.85v.117a1.06 1.06 0 00.38.842c.117.103.254.181.41.234.161.054.332.081.513.081h.461c.181 0 .35-.027.506-.081a1.184 1.184 0 00.696-.593c.068-.141.102-.303.102-.483v-.117zm7.595-2.93c0 .303-.058.588-.175.857a2.168 2.168 0 01-.47.703c-.2.2-.434.359-.702.476a2.204 2.204 0 01-.857.168h-.6c-.304 0-.59-.056-.858-.168a2.265 2.265 0 01-.703-.476c-.2-.2-.359-.435-.476-.703a2.2 2.2 0 01-.168-.857v-3.384a2.2 2.2 0 01.168-.857c.117-.268.276-.503.476-.703.2-.2.435-.356.703-.469.269-.117.554-.175.857-.175h.6c.303 0 .59.058.858.175a2.168 2.168 0 011.172 1.172c.117.269.175.554.175.857v3.384zm-.9-3.435c0-.181-.035-.349-.103-.506a1.3 1.3 0 00-.278-.417 1.3 1.3 0 00-.418-.278 1.237 1.237 0 00-.505-.103h-.6a1.288 1.288 0 00-1.202.798 1.252 1.252 0 00-.102.506v3.486a1.3 1.3 0 00.38.923 1.288 1.288 0 00.923.381h.6c.181 0 .35-.034.506-.103a1.3 1.3 0 00.696-.688 1.3 1.3 0 00.103-.513v-3.486zm7.785 6.438c0 .303-.058.581-.176.835a1.904 1.904 0 01-.468.652 2.14 2.14 0 01-.704.417 2.368 2.368 0 01-.856.154h-.374c-.303 0-.588-.051-.857-.154a2.136 2.136 0 01-.703-.417 1.994 1.994 0 01-.476-.652 2.046 2.046 0 01-.169-.835v-.029a1.97 1.97 0 01.601-1.443 1.627 1.627 0 01-.564-.572 1.615 1.615 0 01-.205-.805c0-.264.056-.508.168-.733.113-.229.267-.415.462-.556a2.254 2.254 0 01-.557-.74 2.171 2.171 0 01-.205-.945v-.564c0-.303.056-.588.169-.857.117-.268.275-.503.476-.703.2-.2.434-.356.703-.469a2.12 2.12 0 01.857-.175h.373c.366 0 .703.083 1.011.249a2.2 2.2 0 01.776.659l.491-.762h.3v2.622c0 .303-.058.588-.175.857a2.172 2.172 0 01-.469.703c-.2.2-.435.359-.703.476a2.187 2.187 0 01-.857.169h-1.304c-.102 0-.2.022-.293.066a.82.82 0 00-.249.161.728.728 0 00-.161.249.748.748 0 000 .586.865.865 0 00.161.249.839.839 0 00.249.161.75.75 0 00.293.058h1.231c.302 0 .588.052.856.154.269.098.503.237.704.418.2.18.356.398.468.652.118.253.176.532.176.835v.029zm-.82-6.438c0-.181-.034-.349-.103-.506a1.312 1.312 0 00-.703-.695 1.236 1.236 0 00-.505-.103h-.747a1.288 1.288 0 00-1.201.798 1.241 1.241 0 00-.103.506v.666a1.288 1.288 0 00.381.923c.117.117.254.21.41.279.161.068.332.102.513.102h.747a1.331 1.331 0 001.208-.791c.069-.161.103-.332.103-.513v-.666zm-.037 6.365a1.15 1.15 0 00-.102-.491 1.061 1.061 0 00-.279-.359 1.27 1.27 0 00-.417-.227 1.538 1.538 0 00-.506-.081h-.461c-.181 0-.351.027-.513.081a1.286 1.286 0 00-.41.227 1.059 1.059 0 00-.381.85v.117a1.059 1.059 0 00.381.842c.117.103.254.181.41.234.162.054.332.081.513.081h.461c.181 0 .35-.027.506-.081a1.182 1.182 0 00.696-.593c.068-.141.102-.303.102-.483v-.117zm2.813-10.174v-1.201h1.047v1.201H107.2zm.073 9.302v-7.5h.901v7.5h-.901zm7.119 3.003v-3.633a2.164 2.164 0 01-1.677.776h-.227c-.303 0-.589-.056-.857-.168a2.257 2.257 0 01-1.179-1.179 2.187 2.187 0 01-.169-.857v-3.384c0-.303.056-.588.169-.857.117-.268.276-.503.476-.703.2-.2.434-.356.703-.469a2.12 2.12 0 01.857-.175h.227c.366 0 .703.083 1.011.249.307.161.564.38.769.659l.498-.762h.3v10.503h-.901zm0-8.496a1.316 1.316 0 00-.381-.923 1.297 1.297 0 00-.417-.278 1.238 1.238 0 00-.506-.103h-.6a1.288 1.288 0 00-1.201.798 1.241 1.241 0 00-.103.506v3.486a1.288 1.288 0 00.381.923 1.288 1.288 0 00.923.381h.6c.181 0 .35-.034.506-.103a1.297 1.297 0 00.798-1.201v-3.486zm7.412 5.493l-.498-.762a2.288 2.288 0 01-.769.667 2.146 2.146 0 01-1.011.241h-.227c-.302 0-.588-.056-.857-.168a2.268 2.268 0 01-.703-.476c-.2-.2-.359-.435-.476-.703a2.205 2.205 0 01-.168-.857V829.5h.901v5.493c0 .181.034.352.102.513a1.326 1.326 0 00.689.688c.161.069.332.103.512.103h.601c.181 0 .349-.034.505-.103a1.301 1.301 0 00.696-.688c.068-.161.103-.332.103-.513V829.5h.9v7.5h-.3zm7.112-2.058c0 .303-.059.588-.176.857a2.15 2.15 0 01-.469.703c-.2.2-.434.359-.703.476a2.201 2.201 0 01-.857.168h-.6c-.303 0-.589-.056-.857-.168a2.257 2.257 0 01-1.179-1.179 2.187 2.187 0 01-.169-.857v-3.384c0-.303.056-.588.169-.857.117-.268.276-.503.476-.703.2-.2.434-.356.703-.469a2.12 2.12 0 01.857-.175h.6c.303 0 .589.058.857.175a2.172 2.172 0 011.172 1.172c.117.269.176.554.176.857v1.765h-4.109v1.67a1.288 1.288 0 00.381.923 1.288 1.288 0 00.923.381h.6c.181 0 .35-.034.506-.103a1.297 1.297 0 00.798-1.201v-.498l.901.147v.3zm-.901-3.435a1.316 1.316 0 00-.381-.923 1.297 1.297 0 00-.417-.278 1.238 1.238 0 00-.506-.103h-.6a1.288 1.288 0 00-1.201.798 1.241 1.241 0 00-.103.506v1.113h3.208v-1.113zM138.884 837l-.498-.747a2.373 2.373 0 01-.769.652 2.143 2.143 0 01-1.011.241h-.227c-.302 0-.588-.056-.857-.168a2.28 2.28 0 01-.703-.476c-.2-.2-.359-.435-.476-.703a2.205 2.205 0 01-.168-.857v-.073c0-.303.056-.589.168-.857.117-.269.276-.503.476-.703.201-.201.435-.357.703-.469.269-.117.555-.176.857-.176h1.905v-1.157c0-.181-.034-.349-.103-.506a1.297 1.297 0 00-.278-.417 1.301 1.301 0 00-.418-.278 1.233 1.233 0 00-.505-.103h-.527a1.288 1.288 0 00-1.202.798 1.257 1.257 0 00-.102.506v.271l-.901-.147v-.073c0-.303.056-.588.169-.857.117-.268.275-.503.476-.703.2-.2.434-.356.703-.469a2.12 2.12 0 01.857-.175h.527c.303 0 .588.058.857.175.268.113.503.269.703.469.2.2.356.435.469.703.117.269.176.554.176.857V837h-.301zm-.6-3.633h-1.905a1.25 1.25 0 00-.922.388 1.315 1.315 0 00-.381.923v.315c0 .181.034.352.102.513a1.324 1.324 0 00.689.688c.161.069.332.103.512.103h.601c.181 0 .349-.034.505-.103a1.301 1.301 0 00.696-.688c.069-.161.103-.332.103-.513v-1.626zm7.412 3.633l-.498-.762a2.298 2.298 0 01-.769.667 2.149 2.149 0 01-1.011.241h-.227c-.303 0-.588-.056-.857-.168a2.257 2.257 0 01-1.179-1.179 2.187 2.187 0 01-.169-.857V829.5h.901v5.493a1.288 1.288 0 00.381.923 1.288 1.288 0 00.923.381h.601c.18 0 .349-.034.505-.103a1.297 1.297 0 00.798-1.201V829.5h.901v7.5h-.3zm10.268 0l-.498-.762a2.288 2.288 0 01-.769.667 2.142 2.142 0 01-1.01.241h-.228a2.2 2.2 0 01-.856-.168 2.273 2.273 0 01-.704-.476c-.2-.2-.358-.435-.476-.703a2.205 2.205 0 01-.168-.857v-3.384c0-.303.056-.588.168-.857a2.187 2.187 0 011.18-1.172c.268-.117.554-.175.856-.175h.228a2.155 2.155 0 011.677.776v-3.633h.901V837h-.301zm-.6-5.493c0-.181-.034-.349-.103-.506a1.29 1.29 0 00-.696-.695 1.233 1.233 0 00-.505-.103h-.601a1.287 1.287 0 00-.922.381 1.3 1.3 0 00-.381.923v3.486c0 .181.034.352.102.513a1.324 1.324 0 00.689.688c.161.069.332.103.512.103h.601c.181 0 .349-.034.505-.103a1.29 1.29 0 00.799-1.201v-3.486zm7.712 3.435c0 .303-.058.588-.176.857a2.164 2.164 0 01-.468.703 2.28 2.28 0 01-.703.476 2.208 2.208 0 01-.857.168h-.601c-.303 0-.588-.056-.857-.168a2.268 2.268 0 01-.703-.476c-.2-.2-.359-.435-.476-.703a2.205 2.205 0 01-.169-.857v-3.384c0-.303.057-.588.169-.857.117-.268.276-.503.476-.703.2-.2.435-.356.703-.469.269-.117.554-.175.857-.175h.601c.302 0 .588.058.857.175a2.164 2.164 0 011.171 1.172c.118.269.176.554.176.857v1.765h-4.109v1.67a1.288 1.288 0 00.381.923 1.288 1.288 0 00.923.381h.601c.18 0 .349-.034.505-.103a1.297 1.297 0 00.798-1.201v-.498l.901.147v.3zm-.901-3.435a1.3 1.3 0 00-1.303-1.304h-.601a1.288 1.288 0 00-1.201.798 1.241 1.241 0 00-.103.506v1.113h3.208v-1.113zm-1.977-3.208h-.674l1.194-1.802h1.501l-2.021 1.802zm9.69 6.643c0 .303-.059.588-.176.857a2.166 2.166 0 01-.469.703c-.2.2-.434.359-.703.476a2.205 2.205 0 01-.857.168h-.227a2.152 2.152 0 01-1.677-.776v3.633h-.901V829.5h.3l.491.762c.205-.279.461-.498.769-.659a2.136 2.136 0 011.018-.249h.227c.303 0 .588.058.857.175a2.172 2.172 0 011.172 1.172c.117.269.176.554.176.857v3.384zm-.901-3.435c0-.181-.034-.349-.103-.506a1.29 1.29 0 00-.696-.695 1.233 1.233 0 00-.505-.103h-.6a1.288 1.288 0 00-1.202.798 1.257 1.257 0 00-.102.506v3.486c0 .181.034.352.102.513a1.324 1.324 0 00.689.688c.161.069.332.103.513.103h.6c.181 0 .349-.034.505-.103a1.29 1.29 0 00.799-1.201v-3.486zm7.412 5.493l-.498-.747a2.384 2.384 0 01-.769.652 2.149 2.149 0 01-1.011.241h-.227c-.303 0-.588-.056-.857-.168a2.268 2.268 0 01-.703-.476c-.2-.2-.359-.435-.476-.703a2.205 2.205 0 01-.169-.857v-.073c0-.303.057-.589.169-.857.117-.269.276-.503.476-.703.2-.201.435-.357.703-.469.269-.117.554-.176.857-.176h1.904v-1.157a1.3 1.3 0 00-1.303-1.304h-.528a1.287 1.287 0 00-.923.381c-.117.117-.21.256-.278.417a1.257 1.257 0 00-.102.506v.271l-.901-.147v-.073c0-.303.056-.588.168-.857.117-.268.276-.503.476-.703.2-.2.435-.356.703-.469.269-.117.555-.175.857-.175h.528c.302 0 .588.058.857.175a2.164 2.164 0 011.171 1.172c.118.269.176.554.176.857V837h-.3zm-.601-3.633h-1.904a1.26 1.26 0 00-.923.388 1.312 1.312 0 00-.381.923v.315a1.306 1.306 0 00.381.923 1.288 1.288 0 00.923.381h.601c.18 0 .349-.034.505-.103a1.297 1.297 0 00.798-1.201v-1.626zm4.908-3.01c-.181 0-.352.034-.513.102a1.316 1.316 0 00-.791 1.202V837h-.901v-7.5h.3l.491.762c.205-.279.461-.498.769-.659a2.138 2.138 0 011.018-.249h.527v1.003h-.9zM185.54 837a1.977 1.977 0 01-1.407-.579 2.186 2.186 0 01-.425-.629 1.946 1.946 0 01-.153-.77v-4.665h-1.348v-.857h1.348v-1.802l.901-.146v1.948h1.904v.857h-1.904v4.709c0 .152.026.293.08.425.059.127.137.239.235.337.097.098.212.176.344.234.132.054.273.081.425.081h.82V837h-.82zm7.492-2.058c0 .303-.058.588-.176.857a2.164 2.164 0 01-.468.703c-.2.2-.435.359-.703.476a2.208 2.208 0 01-.857.168h-.601c-.303 0-.588-.056-.857-.168a2.268 2.268 0 01-.703-.476c-.2-.2-.359-.435-.476-.703a2.205 2.205 0 01-.169-.857v-3.384c0-.303.057-.588.169-.857.117-.268.276-.503.476-.703.2-.2.435-.356.703-.469.269-.117.554-.175.857-.175h.601c.302 0 .588.058.857.175a2.164 2.164 0 011.171 1.172c.118.269.176.554.176.857v1.765h-4.109v1.67a1.306 1.306 0 00.381.923 1.288 1.288 0 00.923.381h.601c.18 0 .349-.034.505-.103a1.297 1.297 0 00.798-1.201v-.498l.901.147v.3zm-.901-3.435a1.3 1.3 0 00-1.303-1.304h-.601a1.288 1.288 0 00-1.201.798 1.258 1.258 0 00-.103.506v1.113h3.208v-1.113zm10.62 5.493v-5.493c0-.181-.034-.349-.102-.506a1.297 1.297 0 00-.278-.417 1.312 1.312 0 00-.418-.278 1.236 1.236 0 00-.505-.103h-.447c-.181 0-.352.034-.513.103a1.415 1.415 0 00-.417.278 1.316 1.316 0 00-.381.923V837h-.894v-5.493c0-.181-.034-.349-.102-.506a1.255 1.255 0 00-.286-.417 1.297 1.297 0 00-.417-.278 1.241 1.241 0 00-.506-.103h-.446a1.288 1.288 0 00-1.202.798 1.257 1.257 0 00-.102.506V837h-.901v-7.5h.3l.491.762c.205-.279.461-.498.769-.659a2.138 2.138 0 011.018-.249h.073a2.164 2.164 0 011.941 1.149 2.151 2.151 0 01.799-.827c.166-.103.346-.181.542-.235.195-.058.398-.087.608-.087h.073c.302 0 .588.058.857.175.268.113.503.269.703.469.2.2.356.435.469.703.117.269.175.554.175.857V837h-.901zm7.713-2.058c0 .303-.059.588-.176.857a2.15 2.15 0 01-.469.703c-.2.2-.434.359-.703.476a2.201 2.201 0 01-.857.168h-.6c-.303 0-.589-.056-.857-.168a2.257 2.257 0 01-1.179-1.179 2.187 2.187 0 01-.169-.857v-3.384c0-.303.056-.588.169-.857.117-.268.275-.503.476-.703.2-.2.434-.356.703-.469a2.12 2.12 0 01.857-.175h.6c.303 0 .589.058.857.175a2.172 2.172 0 011.172 1.172c.117.269.176.554.176.857v1.765h-4.109v1.67a1.288 1.288 0 00.381.923 1.288 1.288 0 00.923.381h.6c.181 0 .349-.034.506-.103a1.297 1.297 0 00.798-1.201v-.498l.901.147v.3zm-.901-3.435c0-.181-.034-.349-.103-.506a1.297 1.297 0 00-.278-.417 1.297 1.297 0 00-.417-.278 1.241 1.241 0 00-.506-.103h-.6a1.288 1.288 0 00-1.201.798 1.241 1.241 0 00-.103.506v1.113h3.208v-1.113zm6.812 5.493v-5.493c0-.181-.035-.349-.103-.506a1.297 1.297 0 00-.278-.417 1.312 1.312 0 00-.418-.278 1.236 1.236 0 00-.505-.103h-.601a1.287 1.287 0 00-.923.381c-.117.117-.21.256-.278.417a1.257 1.257 0 00-.102.506V837h-.901v-7.5h.3l.491.762c.205-.279.461-.498.769-.659a2.136 2.136 0 011.018-.249h.227c.303 0 .588.058.857.175.268.113.503.269.703.469.2.2.356.435.469.703.117.269.175.554.175.857V837h-.9zm5.434 0a1.976 1.976 0 01-1.406-.579 2.146 2.146 0 01-.425-.629 1.929 1.929 0 01-.154-.77v-4.665h-1.347v-.857h1.347v-1.802l.901-.146v1.948h1.904v.857h-1.904v4.709c0 .152.027.293.081.425a1.145 1.145 0 00.578.571c.132.054.274.081.425.081h.82V837h-.82zm12.708 0v-7.2l-.066.447-2.439 6.753h-.498l-2.461-6.753-.059-.447v7.2h-.945v-10.503h.491l3.186 8.613.029.389.03-.389 3.178-8.613h.498V837h-.944zm9.814 0v-7.2l-.066.447-2.439 6.753h-.498l-2.461-6.753-.058-.447v7.2h-.945v-10.503h.49l3.187 8.613.029.389.029-.389 3.179-8.613h.498V837h-.945zm2.878-9.302v-1.201h1.048v1.201h-1.048zm.074 9.302v-7.5h.901v7.5h-.901zm11.176 0l-.498-.762a2.288 2.288 0 01-.769.667 2.142 2.142 0 01-1.01.241h-.227c-.303 0-.589-.056-.857-.168a2.257 2.257 0 01-1.18-1.179 2.205 2.205 0 01-.168-.857v-3.384c0-.303.056-.588.168-.857.118-.268.276-.503.477-.703.2-.2.434-.356.703-.469a2.12 2.12 0 01.857-.175h.227a2.152 2.152 0 011.677.776v-3.633h.901V837h-.301zm-.6-5.493c0-.181-.034-.349-.103-.506a1.297 1.297 0 00-.278-.417 1.297 1.297 0 00-.417-.278 1.241 1.241 0 00-.506-.103h-.6a1.288 1.288 0 00-1.202.798 1.257 1.257 0 00-.102.506v3.486c0 .181.034.352.102.513a1.322 1.322 0 00.689.688c.161.069.332.103.513.103h.6c.181 0 .349-.034.506-.103a1.297 1.297 0 00.798-1.201v-3.486zm7.712 3.435c0 .303-.058.588-.175.857a2.183 2.183 0 01-.469.703c-.2.2-.435.359-.703.476a2.208 2.208 0 01-.857.168h-.601c-.303 0-.588-.056-.857-.168a2.268 2.268 0 01-.703-.476c-.2-.2-.359-.435-.476-.703a2.205 2.205 0 01-.168-.857v-3.384c0-.303.056-.588.168-.857.117-.268.276-.503.476-.703.2-.2.435-.356.703-.469.269-.117.554-.175.857-.175h.601c.302 0 .588.058.857.175.268.113.503.269.703.469.2.2.356.435.469.703.117.269.175.554.175.857v1.765h-4.109v1.67a1.306 1.306 0 00.381.923 1.292 1.292 0 00.923.381h.601c.18 0 .349-.034.505-.103.161-.068.3-.161.418-.278.117-.117.21-.254.278-.41.068-.161.102-.332.102-.513v-.498l.901.147v.3zm-.901-3.435c0-.181-.034-.349-.102-.506a1.297 1.297 0 00-.278-.417 1.312 1.312 0 00-.418-.278 1.236 1.236 0 00-.505-.103h-.601a1.292 1.292 0 00-1.201.798 1.258 1.258 0 00-.103.506v1.113h3.208v-1.113zM277.598 837v-7.2l-.066.447-2.439 6.753h-.498l-2.461-6.753-.059-.447v7.2h-.945v-10.503h.491l3.186 8.613.029.389.03-.389 3.178-8.613h.498V837h-.944zm7.91-2.058c0 .303-.059.588-.176.857a2.166 2.166 0 01-.469.703c-.2.2-.434.359-.703.476a2.201 2.201 0 01-.857.168h-.6c-.303 0-.589-.056-.857-.168a2.257 2.257 0 01-1.179-1.179 2.187 2.187 0 01-.169-.857v-3.384c0-.303.056-.588.169-.857.117-.268.275-.503.476-.703.2-.2.434-.356.703-.469a2.12 2.12 0 01.857-.175h.6c.303 0 .589.058.857.175a2.172 2.172 0 011.172 1.172c.117.269.176.554.176.857v3.384zm-.901-3.435c0-.181-.034-.349-.103-.506a1.297 1.297 0 00-.278-.417 1.297 1.297 0 00-.417-.278 1.241 1.241 0 00-.506-.103h-.6a1.288 1.288 0 00-1.202.798 1.257 1.257 0 00-.102.506v3.486c0 .181.034.352.102.513a1.322 1.322 0 00.689.688c.161.069.332.103.513.103h.6c.181 0 .349-.034.506-.103a1.297 1.297 0 00.798-1.201v-3.486zm6.811 5.493v-5.493c0-.181-.034-.349-.102-.506a1.297 1.297 0 00-.278-.417 1.312 1.312 0 00-.418-.278 1.236 1.236 0 00-.505-.103h-.601a1.292 1.292 0 00-1.201.798 1.258 1.258 0 00-.103.506V837h-.9v-7.5h.3l.491.762c.205-.279.461-.498.769-.659a2.133 2.133 0 011.018-.249h.227c.302 0 .588.058.857.175.268.113.503.269.703.469.2.2.356.435.469.703.117.269.175.554.175.857V837h-.901zm5.435 0a1.976 1.976 0 01-1.406-.579 2.146 2.146 0 01-.425-.629 1.929 1.929 0 01-.154-.77v-4.665h-1.347v-.857h1.347v-1.802l.901-.146v1.948h1.904v.857h-1.904v4.709c0 .152.027.293.081.425a1.145 1.145 0 00.578.571c.132.054.274.081.425.081h.82V837h-.82zm7.493-2.058c0 .303-.059.588-.176.857a2.166 2.166 0 01-.469.703c-.2.2-.434.359-.703.476a2.205 2.205 0 01-.857.168h-.6c-.303 0-.589-.056-.857-.168a2.273 2.273 0 01-.704-.476c-.2-.2-.358-.435-.476-.703a2.205 2.205 0 01-.168-.857v-8.445h.901v3.633a2.154 2.154 0 011.677-.776h.227c.303 0 .588.058.857.175a2.172 2.172 0 011.172 1.172c.117.269.176.554.176.857v3.384zm-.901-3.435c0-.181-.034-.349-.103-.506a1.29 1.29 0 00-.696-.695 1.233 1.233 0 00-.505-.103h-.6a1.288 1.288 0 00-1.202.798 1.257 1.257 0 00-.102.506v3.486c0 .181.034.352.102.513a1.324 1.324 0 00.689.688c.161.069.332.103.513.103h.6c.181 0 .349-.034.505-.103a1.29 1.29 0 00.799-1.201v-3.486zm7.712 3.435c0 .303-.058.588-.176.857a2.164 2.164 0 01-.468.703 2.28 2.28 0 01-.703.476 2.208 2.208 0 01-.857.168h-.601c-.303 0-.588-.056-.857-.168a2.268 2.268 0 01-.703-.476c-.2-.2-.359-.435-.476-.703a2.205 2.205 0 01-.169-.857v-3.384c0-.303.057-.588.169-.857.117-.268.276-.503.476-.703.2-.2.435-.356.703-.469.269-.117.554-.175.857-.175h.601c.302 0 .588.058.857.175a2.164 2.164 0 011.171 1.172c.118.269.176.554.176.857v1.765h-4.109v1.67a1.306 1.306 0 00.381.923 1.288 1.288 0 00.923.381h.601c.18 0 .349-.034.505-.103a1.297 1.297 0 00.798-1.201v-.498l.901.147v.3zm-.901-3.435a1.3 1.3 0 00-1.303-1.304h-.601a1.288 1.288 0 00-1.201.798 1.258 1.258 0 00-.103.506v1.113h3.208v-1.113zm-1.977-3.208h-.674l1.194-1.802h1.501l-2.021 1.802zm4.98 8.701v-10.503h.901V837h-.901zm3.238-9.302v-1.201h1.047v1.201h-1.047zm.073 9.302v-7.5h.901v7.5h-.901zm7.72 0l-.498-.747a2.387 2.387 0 01-.77.652 2.142 2.142 0 01-1.01.241h-.227c-.303 0-.589-.056-.857-.168a2.257 2.257 0 01-1.179-1.179 2.187 2.187 0 01-.169-.857v-.073c0-.303.056-.589.169-.857a2.24 2.24 0 01.476-.703c.2-.201.434-.357.703-.469a2.12 2.12 0 01.857-.176h1.904v-1.157c0-.181-.034-.349-.103-.506a1.297 1.297 0 00-.278-.417 1.297 1.297 0 00-.417-.278 1.241 1.241 0 00-.506-.103h-.527a1.288 1.288 0 00-1.201.798 1.241 1.241 0 00-.103.506v.271l-.901-.147v-.073c0-.303.056-.588.169-.857.117-.268.276-.503.476-.703.2-.2.434-.356.703-.469.269-.117.554-.175.857-.175h.527c.303 0 .589.058.857.175a2.172 2.172 0 011.172 1.172c.117.269.176.554.176.857V837h-.3zm-.601-3.633h-1.904a1.26 1.26 0 00-.923.388 1.331 1.331 0 00-.381.923v.315c0 .181.034.352.102.513a1.322 1.322 0 00.689.688c.161.069.332.103.513.103h.6c.181 0 .349-.034.506-.103a1.297 1.297 0 00.798-1.201v-1.626zm4.907-3.01c-.18 0-.351.034-.513.102a1.297 1.297 0 00-.688.696 1.258 1.258 0 00-.103.506V837h-.9v-7.5h.3l.491.762c.205-.279.461-.498.769-.659a2.136 2.136 0 011.018-.249h.527v1.003h-.901zm6.812 6.643l-.498-.762a2.298 2.298 0 01-.769.667 2.149 2.149 0 01-1.011.241h-.227c-.303 0-.589-.056-.857-.168a2.257 2.257 0 01-1.179-1.179 2.187 2.187 0 01-.169-.857v-3.384c0-.303.056-.588.169-.857.117-.268.276-.503.476-.703.2-.2.434-.356.703-.469a2.12 2.12 0 01.857-.175h.227a2.152 2.152 0 011.677.776v-3.633h.901V837h-.3zm-.601-5.493a1.316 1.316 0 00-.381-.923 1.297 1.297 0 00-.417-.278 1.238 1.238 0 00-.506-.103h-.6a1.288 1.288 0 00-1.201.798 1.241 1.241 0 00-.103.506v3.486a1.288 1.288 0 00.381.923 1.288 1.288 0 00.923.381h.6c.181 0 .35-.034.506-.103a1.297 1.297 0 00.798-1.201v-3.486zM226.848 840.003h109.761v.601H226.848v-.601z" fill="#fff"/><a><path fill="none" d="M225.848 20.442H335.60900000000004V39.558H225.848z"/></a></g><defs><clipPath id="a"><path fill="#fff" d="M0 0H393V852H0z"/></clipPath><filter id="b" x="-12" y="-2" width="417" height="88" filterUnits="userSpaceOnUse" color-interpolation-filters="sRGB"><feFlood flood-opacity="0" result="BackgroundImageFix"/><feColorMatrix in="SourceAlpha" values="0 0 0 0 0 0 0 0 0 0 0 0 0 0 0 0 0 0 127 0" result="hardAlpha"/><feMorphology radius="4" in="SourceAlpha" result="effect1_dropShadow_208_133"/><feOffset dy="4"/><feGaussianBlur stdDeviation="3"/><feComposite in2="hardAlpha" operator="out"/><feColorMatrix values="0 0 0 0 0 0 0 0 0 0 0 0 0 0 0 0 0 0 0.1 0"/><feBlend in2="BackgroundImageFix" result="effect1_dropShadow_208_133"/><feColorMatrix in="SourceAlpha" values="0 0 0 0 0 0 0 0 0 0 0 0 0 0 0 0 0 0 127 0" result="hardAlpha"/><feMorphology radius="3" in="SourceAlpha" result="effect2_dropShadow_208_133"/><feOffset dy="10"/><feGaussianBlur stdDeviation="7.5"/><feComposite in2="hardAlpha" operator="out"/><feColorMatrix values="0 0 0 0 0 0 0 0 0 0 0 0 0 0 0 0 0 0 0.1 0"/><feBlend in2="effect1_dropShadow_208_133" result="effect2_dropShadow_208_133"/><feBlend in="SourceGraphic" in2="effect2_dropShadow_208_133" result="shape"/></filter></defs></svg>