<svg width="393" height="852" fill="none" xmlns="http://www.w3.org/2000/svg"><path fill="#FB64B6" d="M0 0H393V852H0z"/><path d="M68.167 600.25v-2.5a5.09 5.09 0 00-1.416-3.536 4.755 4.755 0 00-3.418-1.464h-9.666a4.755 4.755 0 00-3.418 1.464 5.09 5.09 0 00-1.416 3.536v2.5m14.5-17.5c0 2.761-2.164 5-4.833 5-2.67 0-4.833-2.239-4.833-5s2.164-5 4.833-5c2.67 0 4.833 2.239 4.833 5z" stroke="#fff" stroke-width="3" stroke-linecap="round" stroke-linejoin="round"/><g filter="url(#a)"><path d="M114.336 600v-22.4h9.44v2.176h-6.624v7.68h4.992v2.176h-4.992V600h-2.816zm16.054.224c-1.493 0-2.656-.373-3.488-1.12-.81-.768-1.216-1.824-1.216-3.168v-8.512c0-1.344.406-2.389 1.216-3.136.832-.768 1.995-1.152 3.488-1.152 1.494 0 2.646.384 3.456 1.152.832.747 1.248 1.792 1.248 3.136v8.512c0 1.344-.416 2.4-1.248 3.168-.81.747-1.962 1.12-3.456 1.12zm0-1.984c.683 0 1.216-.192 1.6-.576.406-.405.608-.981.608-1.728v-8.512c0-.747-.202-1.312-.608-1.696-.384-.405-.917-.608-1.6-.608-.682 0-1.226.203-1.632.608-.384.384-.576.949-.576 1.696v8.512c0 .747.192 1.323.576 1.728.406.384.95.576 1.632.576zm7.905-14.88h1.984l.288 1.184.8-.384a19.697 19.697 0 011.696-.768 4.088 4.088 0 011.408-.256v1.888c-.277 0-.651.085-1.12.256-.469.149-1.301.512-2.496 1.088V600h-2.56v-16.64zm8.563 0h1.984l.288.928 1.312-.384c.896-.277 1.6-.469 2.112-.576a6.453 6.453 0 011.504-.192c.917 0 1.557.405 1.92 1.216.597-.213 1.44-.469 2.528-.768 1.088-.299 1.888-.448 2.4-.448.768 0 1.333.267 1.696.8.384.533.576 1.227.576 2.08V600h-2.56v-13.152c0-.619-.043-1.045-.128-1.28-.086-.256-.299-.384-.64-.384-.171 0-1.344.341-3.52 1.024V600h-2.56v-13.152c0-.619-.043-1.045-.128-1.28-.086-.256-.299-.384-.64-.384-.171 0-1.366.341-3.584 1.024V600h-2.56v-16.64zm21.795 16.864c-.768 0-1.344-.267-1.728-.8-.362-.533-.544-1.227-.544-2.08V583.36h2.56v13.152c0 .597.043 1.024.128 1.28.086.256.288.384.608.384.15 0 1.355-.32 3.616-.96V583.36h2.56V600h-1.824l-.48-1.088a7.886 7.886 0 01-.768.256 34.317 34.317 0 01-2.432.8 6.407 6.407 0 01-1.696.256zm11.08-.224v-22.4h2.56V600h-2.56zm9.767 0a4.196 4.196 0 01-2.144-.576 4.334 4.334 0 01-1.536-1.568c-.363-.661-.544-1.408-.544-2.24v-1.664c0-1.003.245-1.845.736-2.528.512-.683 1.141-1.163 1.888-1.44l3.968-1.472v-1.504c0-.512-.16-.928-.48-1.248-.299-.341-.694-.512-1.184-.512h-3.616v-1.888h3.84c1.173 0 2.101.352 2.784 1.056.704.683 1.056 1.621 1.056 2.816V600H189.5zm2.368-1.952v-7.52l-2.816 1.056c-.555.213-.95.501-1.184.864-.214.363-.32.939-.32 1.728v1.792c0 .576.213 1.067.64 1.472a2.15 2.15 0 001.536.608h2.144zm5.927-17.408v-2.56h2.56v2.56h-2.56zm0 19.36v-16.64h2.56V600h-2.56zm6.406-16.64h1.984l.288 1.184.8-.384a19.697 19.697 0 011.696-.768c.47-.171.939-.256 1.408-.256v1.888c-.277 0-.65.085-1.12.256-.469.149-1.301.512-2.496 1.088V600h-2.56v-16.64zM216.092 600c-1.174 0-2.112-.352-2.816-1.056-.683-.704-1.024-1.653-1.024-2.848v-8.512c0-1.387.384-2.475 1.152-3.264.768-.789 1.909-1.184 3.424-1.184 1.514 0 2.645.395 3.392 1.184.768.789 1.152 1.877 1.152 3.264v1.472c0 .896-.256 1.579-.768 2.048-.512.448-1.184.789-2.016 1.024l-3.776 1.056v3.136c0 .512.149.939.448 1.28.32.32.725.48 1.216.48h3.456V600h-3.84zm.672-9.376a22.312 22.312 0 001.408-.416c.256-.107.426-.256.512-.448.085-.192.128-.512.128-.96v-1.76c0-.683-.182-1.184-.544-1.504-.342-.32-.822-.48-1.44-.48-.598 0-1.088.171-1.472.512-.363.341-.544.832-.544 1.472v4.128l1.952-.544zM232.957 600c-1.344 0-2.432-.395-3.264-1.184-.832-.789-1.248-1.845-1.248-3.168v-7.968c0-.917.245-1.696.736-2.336a3.862 3.862 0 011.888-1.312l4.288-1.504V577.6h2.56V600h-4.96zm2.4-1.92v-13.44l-2.848.96c-.555.171-.95.448-1.184.832-.214.363-.32.949-.32 1.76v7.456c0 .768.224 1.365.672 1.792.448.427 1.056.64 1.824.64h1.856zm9.735 1.92c-1.174 0-2.112-.352-2.816-1.056-.683-.704-1.024-1.653-1.024-2.848v-8.512c0-1.387.384-2.475 1.152-3.264.768-.789 1.909-1.184 3.424-1.184 1.514 0 2.645.395 3.392 1.184.768.789 1.152 1.877 1.152 3.264v1.472c0 .896-.256 1.579-.768 2.048-.512.448-1.184.789-2.016 1.024l-3.776 1.056v3.136c0 .512.149.939.448 1.28.32.32.725.48 1.216.48h3.456V600h-3.84zm.672-9.376a22.312 22.312 0 001.408-.416c.256-.107.426-.256.512-.448.085-.192.128-.512.128-.96v-1.76c0-.683-.182-1.184-.544-1.504-.342-.32-.822-.48-1.44-.48-.598 0-1.088.171-1.472.512-.363.341-.544.832-.544 1.472v4.128l1.952-.544zM261.253 600c-1.174 0-2.112-.352-2.816-1.056-.683-.704-1.024-1.653-1.024-2.848v-8.512c0-1.344.352-2.379 1.056-3.104.704-.747 1.728-1.12 3.072-1.12h3.552v1.92h-3.488c-.491 0-.886.171-1.184.512-.299.32-.448.736-.448 1.248v9.28c0 .512.149.939.448 1.28.32.32.725.48 1.216.48h3.456V600h-3.84zm10.137.224c-1.493 0-2.656-.373-3.488-1.12-.81-.768-1.216-1.824-1.216-3.168v-8.512c0-1.344.406-2.389 1.216-3.136.832-.768 1.995-1.152 3.488-1.152 1.494 0 2.646.384 3.456 1.152.832.747 1.248 1.792 1.248 3.136v8.512c0 1.344-.416 2.4-1.248 3.168-.81.747-1.962 1.12-3.456 1.12zm0-1.984c.683 0 1.216-.192 1.6-.576.406-.405.608-.981.608-1.728v-8.512c0-.747-.202-1.312-.608-1.696-.384-.405-.917-.608-1.6-.608-.682 0-1.226.203-1.632.608-.384.384-.576.949-.576 1.696v8.512c0 .747.192 1.323.576 1.728.406.384.95.576 1.632.576zm7.905-14.88h1.984l.288.928 1.312-.384c.896-.277 1.6-.469 2.112-.576a6.46 6.46 0 011.504-.192c.768 0 1.333.267 1.696.8s.544 1.227.544 2.08V600h-2.56v-13.152c0-.619-.043-1.045-.128-1.28-.085-.256-.299-.384-.64-.384-.171 0-1.355.341-3.552 1.024V600h-2.56v-16.64zm17.64 16.64c-1.173 0-2.101-.352-2.784-1.056-.683-.704-1.024-1.653-1.024-2.848V585.28h-1.92v-1.92h1.92v-4.832l2.56-.96v5.792h2.56v1.92h-2.56v11.04c0 .512.139.939.416 1.28.299.32.693.48 1.184.48h.96V600h-1.312zm7.252 0a4.196 4.196 0 01-2.144-.576 4.334 4.334 0 01-1.536-1.568c-.363-.661-.544-1.408-.544-2.24v-1.664c0-1.003.245-1.845.736-2.528.512-.683 1.141-1.163 1.888-1.44l3.968-1.472v-1.504c0-.512-.16-.928-.48-1.248-.299-.341-.693-.512-1.184-.512h-3.616v-1.888h3.84c1.173 0 2.101.352 2.784 1.056.704.683 1.056 1.621 1.056 2.816V600h-4.768zm2.368-1.952v-7.52l-2.816 1.056c-.555.213-.949.501-1.184.864-.213.363-.32.939-.32 1.728v1.792c0 .576.213 1.067.64 1.472.427.405.939.608 1.536.608h2.144zm9.448 1.952c-1.174 0-2.112-.352-2.816-1.056-.683-.704-1.024-1.653-1.024-2.848v-8.512c0-1.344.352-2.379 1.056-3.104.704-.747 1.728-1.12 3.072-1.12h3.552v1.92h-3.488c-.491 0-.886.171-1.184.512-.299.32-.448.736-.448 1.248v9.28c0 .512.149.939.448 1.28.32.32.725.48 1.216.48h3.456V600h-3.84zm10.713 0c-1.173 0-2.101-.352-2.784-1.056-.682-.704-1.024-1.653-1.024-2.848V585.28h-1.92v-1.92h1.92v-4.832l2.56-.96v5.792h2.56v1.92h-2.56v11.04c0 .512.139.939.416 1.28.299.32.694.48 1.184.48h.96V600h-1.312z" fill="#fff"/></g><path d="M58.5 669.75a5.09 5.09 0 00-1.416-3.536 4.755 4.755 0 00-3.417-1.464h-7.25v18.75h8.458c.961 0 1.883.395 2.563 1.098a3.818 3.818 0 011.062 2.652m0-17.5v17.5m0-17.5a5.09 5.09 0 011.416-3.536 4.755 4.755 0 013.417-1.464h7.25v18.75h-8.458c-.961 0-1.883.395-2.563 1.098a3.818 3.818 0 00-1.062 2.652" stroke="#fff" stroke-width="4" stroke-linecap="round" stroke-linejoin="round"/><g filter="url(#b)"><path d="M119.488 687c-1.941 0-3.445-.491-4.512-1.472-1.067-.981-1.6-2.421-1.6-4.32V670.36c0-1.877.576-3.307 1.728-4.288 1.152-.981 2.72-1.472 4.704-1.472h4.704v2.144h-5.024c-.981 0-1.781.288-2.4.864-.597.555-.896 1.301-.896 2.24v11.936c0 .96.288 1.717.864 2.272.576.555 1.344.832 2.304.832h2.976v-8.8h-2.88v-2.112h5.696V687h-5.664zm9.214 0v-22.4h2.56V687h-2.56zm10.438.224c-1.493 0-2.656-.373-3.488-1.12-.81-.768-1.216-1.824-1.216-3.168v-8.512c0-1.344.406-2.389 1.216-3.136.832-.768 1.995-1.152 3.488-1.152 1.494 0 2.646.384 3.456 1.152.832.747 1.248 1.792 1.248 3.136v8.512c0 1.344-.416 2.4-1.248 3.168-.81.747-1.962 1.12-3.456 1.12zm0-1.984c.683 0 1.216-.192 1.6-.576.406-.405.608-.981.608-1.728v-8.512c0-.747-.202-1.312-.608-1.696-.384-.405-.917-.608-1.6-.608-.682 0-1.226.203-1.632.608-.384.384-.576.949-.576 1.696v8.512c0 .747.192 1.323.576 1.728.406.384.95.576 1.632.576zm6.945-.16h2.72c.917 0 1.579-.245 1.984-.736.427-.512.64-1.173.64-1.984 0-.64-.192-1.184-.576-1.632-.384-.448-.96-.971-1.728-1.568a27.23 27.23 0 01-1.6-1.376 6.423 6.423 0 01-1.024-1.472c-.277-.597-.416-1.28-.416-2.048 0-1.131.373-2.059 1.12-2.784.768-.747 1.792-1.12 3.072-1.12h2.784v1.92h-2.304c-1.515 0-2.272.715-2.272 2.144 0 .555.171 1.035.512 1.44.341.405.875.885 1.6 1.44.661.512 1.205.981 1.632 1.408.427.405.789.928 1.088 1.568.299.619.448 1.355.448 2.208 0 1.515-.405 2.645-1.216 3.392-.789.747-1.909 1.12-3.36 1.12h-3.104v-1.92zm9.594 0h2.72c.917 0 1.578-.245 1.984-.736.426-.512.64-1.173.64-1.984 0-.64-.192-1.184-.576-1.632-.384-.448-.96-.971-1.728-1.568a26.903 26.903 0 01-1.6-1.376 6.393 6.393 0 01-1.024-1.472c-.278-.597-.416-1.28-.416-2.048 0-1.131.373-2.059 1.12-2.784.768-.747 1.792-1.12 3.072-1.12h2.784v1.92h-2.304c-1.515 0-2.272.715-2.272 2.144 0 .555.17 1.035.512 1.44.341.405.874.885 1.6 1.44.661.512 1.205.981 1.632 1.408.426.405.789.928 1.088 1.568.298.619.448 1.355.448 2.208 0 1.515-.406 2.645-1.216 3.392-.79.747-1.91 1.12-3.36 1.12h-3.104v-1.92zm13.946 1.92a4.196 4.196 0 01-2.144-.576 4.334 4.334 0 01-1.536-1.568c-.363-.661-.544-1.408-.544-2.24v-1.664c0-1.003.245-1.845.736-2.528.512-.683 1.141-1.163 1.888-1.44l3.968-1.472v-1.504c0-.512-.16-.928-.48-1.248-.299-.341-.694-.512-1.184-.512h-3.616v-1.888h3.84c1.173 0 2.101.352 2.784 1.056.704.683 1.056 1.621 1.056 2.816V687h-4.768zm2.368-1.952v-7.52l-2.816 1.056c-.555.213-.95.501-1.184.864-.214.363-.32.939-.32 1.728v1.792c0 .576.213 1.067.639 1.472.427.405.939.608 1.537.608h2.144zm5.927-17.408v-2.56h2.56v2.56h-2.56zm0 19.36v-16.64h2.56V687h-2.56zm6.406-16.64h1.984l.288 1.184.8-.384a19.697 19.697 0 011.696-.768c.47-.171.939-.256 1.408-.256v1.888c-.277 0-.65.085-1.12.256-.469.149-1.301.512-2.496 1.088V687h-2.56v-16.64zM196.217 687c-1.174 0-2.112-.352-2.816-1.056-.683-.704-1.024-1.653-1.024-2.848v-8.512c0-1.387.384-2.475 1.152-3.264.768-.789 1.909-1.184 3.424-1.184 1.514 0 2.645.395 3.392 1.184.768.789 1.152 1.877 1.152 3.264v1.472c0 .896-.256 1.579-.768 2.048-.512.448-1.184.789-2.016 1.024l-3.776 1.056v3.136c0 .512.149.939.448 1.28.32.32.725.48 1.216.48h3.456V687h-3.84zm.672-9.376a22.312 22.312 0 001.408-.416c.256-.107.426-.256.512-.448.085-.192.128-.512.128-.96v-1.76c0-.683-.182-1.184-.544-1.504-.342-.32-.822-.48-1.44-.48-.598 0-1.088.171-1.472.512-.363.341-.544.832-.544 1.472v4.128l1.952-.544z" fill="#fff"/></g><path d="M58.5 754.25v17.5M50.042 763h16.916" stroke="#fff" stroke-width="4" stroke-linecap="round" stroke-linejoin="round"/><g filter="url(#c)"><path d="M112.64 774l5.056-22.4h4.256l4.864 22.4h-2.624l-1.568-6.592H116.8L115.36 774h-2.72zm4.64-8.768h4.864l-2.304-11.52h-.224l-2.336 11.52zm14.061 8.992c-.768 0-1.344-.267-1.728-.8-.363-.533-.544-1.227-.544-2.08V757.36h2.56v13.152c0 .597.042 1.024.128 1.28.085.256.288.384.608.384.149 0 1.354-.32 3.616-.96V757.36h2.56V774h-1.824l-.48-1.088a8.07 8.07 0 01-.768.256 34.658 34.658 0 01-2.432.8c-.619.171-1.184.256-1.696.256zm15.688-.224c-1.174 0-2.102-.352-2.784-1.056-.683-.704-1.024-1.653-1.024-2.848V759.28h-1.92v-1.92h1.92v-4.832l2.56-.96v5.792h2.56v1.92h-2.56v11.04c0 .512.138.939.416 1.28.298.32.693.48 1.184.48h.96V774h-1.312zm3.86-16.64h1.984l.288 1.184.8-.384a19.56 19.56 0 011.696-.768 4.084 4.084 0 011.408-.256v1.888c-.278 0-.651.085-1.12.256-.47.149-1.302.512-2.496 1.088V774h-2.56v-16.64zm11.89 16.64c-1.173 0-2.112-.352-2.816-1.056-.682-.704-1.024-1.653-1.024-2.848v-8.512c0-1.387.384-2.475 1.152-3.264.768-.789 1.91-1.184 3.424-1.184 1.515 0 2.646.395 3.392 1.184.768.789 1.152 1.877 1.152 3.264v1.472c0 .896-.256 1.579-.768 2.048-.512.448-1.184.789-2.016 1.024l-3.776 1.056v3.136c0 .512.15.939.448 1.28.32.32.726.48 1.216.48h3.456V774h-3.84zm.672-9.376a22.1 22.1 0 001.408-.416c.256-.107.427-.256.512-.448.086-.192.128-.512.128-.96v-1.76c0-.683-.181-1.184-.544-1.504-.341-.32-.821-.48-1.44-.48-.597 0-1.088.171-1.472.512-.362.341-.544.832-.544 1.472v4.128l1.952-.544zm6.197 7.456h2.72c.917 0 1.578-.245 1.984-.736.426-.512.64-1.173.64-1.984 0-.64-.192-1.184-.576-1.632-.384-.448-.96-.971-1.728-1.568a26.903 26.903 0 01-1.6-1.376 6.393 6.393 0 01-1.024-1.472c-.278-.597-.416-1.28-.416-2.048 0-1.131.373-2.059 1.12-2.784.768-.747 1.792-1.12 3.072-1.12h2.784v1.92h-2.304c-1.515 0-2.272.715-2.272 2.144 0 .555.17 1.035.512 1.44.341.405.874.885 1.6 1.44.661.512 1.205.981 1.632 1.408.426.405.789.928 1.088 1.568.298.619.448 1.355.448 2.208 0 1.515-.406 2.645-1.216 3.392-.79.747-1.91 1.12-3.36 1.12h-3.104v-1.92zm15.366-14.72h5.184c1.173 0 2.165.384 2.976 1.152.832.768 1.248 1.728 1.248 2.88V770c0 1.152-.406 2.112-1.216 2.88-.811.747-1.803 1.12-2.976 1.12h-2.656v5.12h-2.56v-21.76zm4.672 14.752c.597 0 1.109-.203 1.536-.608.426-.405.64-.907.64-1.504v-8.608c0-.597-.214-1.099-.64-1.504a2.154 2.154 0 00-1.536-.608h-2.112v12.832h2.112zm7.765-14.752h1.984l.288 1.184.8-.384a19.697 19.697 0 011.696-.768c.47-.171.939-.256 1.408-.256v1.888c-.277 0-.65.085-1.12.256-.469.149-1.301.512-2.496 1.088V774h-2.56v-16.64zm12.627 16.864c-1.494 0-2.656-.373-3.488-1.12-.811-.768-1.216-1.824-1.216-3.168v-8.512c0-1.344.405-2.389 1.216-3.136.832-.768 1.994-1.152 3.488-1.152 1.493 0 2.645.384 3.456 1.152.832.747 1.248 1.792 1.248 3.136v8.512c0 1.344-.416 2.4-1.248 3.168-.811.747-1.963 1.12-3.456 1.12zm0-1.984c.682 0 1.216-.192 1.6-.576.405-.405.608-.981.608-1.728v-8.512c0-.747-.203-1.312-.608-1.696-.384-.405-.918-.608-1.6-.608-.683 0-1.227.203-1.632.608-.384.384-.576.949-.576 1.696v8.512c0 .747.192 1.323.576 1.728.405.384.949.576 1.632.576zm8.481-17.6v-2.56h2.56v2.56h-2.56zm-2.336 22.56h.768c.49 0 .874-.171 1.152-.512.298-.32.448-.736.448-1.248v-18.08h2.56v17.856c0 1.195-.342 2.144-1.024 2.848-.683.704-1.611 1.056-2.784 1.056h-1.12v-1.92zm12.088-3.2c-1.174 0-2.112-.352-2.816-1.056-.683-.704-1.024-1.653-1.024-2.848v-8.512c0-1.387.384-2.475 1.152-3.264.768-.789 1.909-1.184 3.424-1.184 1.514 0 2.645.395 3.392 1.184.768.789 1.152 1.877 1.152 3.264v1.472c0 .896-.256 1.579-.768 2.048-.512.448-1.184.789-2.016 1.024l-3.776 1.056v3.136c0 .512.149.939.448 1.28.32.32.725.48 1.216.48h3.456V774h-3.84zm.672-9.376a22.312 22.312 0 001.408-.416c.256-.107.426-.256.512-.448.085-.192.128-.512.128-.96v-1.76c0-.683-.182-1.184-.544-1.504-.342-.32-.822-.48-1.44-.48-.598 0-1.088.171-1.472.512-.363.341-.544.832-.544 1.472v4.128l1.952-.544zM240.779 774c-1.174 0-2.102-.352-2.784-1.056-.683-.704-1.024-1.653-1.024-2.848V759.28h-1.92v-1.92h1.92v-4.832l2.56-.96v5.792h2.56v1.92h-2.56v11.04c0 .512.138.939.416 1.28.298.32.693.48 1.184.48h.96V774h-1.312zm2.9-1.92h2.72c.917 0 1.578-.245 1.984-.736.426-.512.64-1.173.64-1.984 0-.64-.192-1.184-.576-1.632-.384-.448-.96-.971-1.728-1.568a26.903 26.903 0 01-1.6-1.376 6.393 6.393 0 01-1.024-1.472c-.278-.597-.416-1.28-.416-2.048 0-1.131.373-2.059 1.12-2.784.768-.747 1.792-1.12 3.072-1.12h2.784v1.92h-2.304c-1.515 0-2.272.715-2.272 2.144 0 .555.17 1.035.512 1.44.341.405.874.885 1.6 1.44.661.512 1.205.981 1.632 1.408.426.405.789.928 1.088 1.568.298.619.448 1.355.448 2.208 0 1.515-.406 2.645-1.216 3.392-.79.747-1.91 1.12-3.36 1.12h-3.104v-1.92z" fill="#fff"/></g><g filter="url(#d)"><path d="M53.728 144.152c-1.173 0-2.101-.352-2.784-1.056-.683-.704-1.024-1.653-1.024-2.848v-1.056c-1.536-.213-2.677-.8-3.424-1.76-.747-.981-1.12-2.283-1.12-3.904v-11.392c0-1.835.48-3.253 1.44-4.256.981-1.003 2.453-1.504 4.416-1.504 1.984 0 3.456.501 4.416 1.504.981 1.003 1.472 2.421 1.472 4.256v11.392c0 1.621-.384 2.923-1.152 3.904-.747.96-1.888 1.547-3.424 1.76v.64c0 .917.117 1.525.352 1.824.256.32.661.48 1.216.48h1.504v2.016h-1.888zm-2.496-6.976c.917 0 1.653-.267 2.208-.8.576-.533.864-1.301.864-2.304v-12.48c0-1.003-.288-1.771-.864-2.304-.555-.533-1.29-.8-2.208-.8-.917 0-1.653.267-2.208.8-.555.533-.832 1.301-.832 2.304v12.48c0 1.003.277 1.771.832 2.304.555.533 1.29.8 2.208.8zm11.14 2.048c-.768 0-1.344-.267-1.728-.8-.363-.533-.544-1.227-.544-2.08V122.36h2.56v13.152c0 .597.043 1.024.128 1.28s.288.384.608.384c.15 0 1.355-.32 3.616-.96V122.36h2.56V139h-1.824l-.48-1.088a7.94 7.94 0 01-.768.256 34.487 34.487 0 01-2.432.8c-.619.171-1.184.256-1.696.256zM73.42 119.64v-2.56h2.56v2.56h-2.56zm0 19.36v-16.64h2.56V139h-2.56zm14.547 0c-1.174 0-2.112-.352-2.816-1.056-.683-.704-1.024-1.653-1.024-2.848v-8.512c0-1.387.384-2.475 1.152-3.264.768-.789 1.91-1.184 3.424-1.184s2.645.395 3.392 1.184c.768.789 1.152 1.877 1.152 3.264v1.472c0 .896-.256 1.579-.768 2.048-.512.448-1.184.789-2.016 1.024l-3.776 1.056v3.136c0 .512.15.939.448 1.28.32.32.725.48 1.216.48h3.456V139h-3.84zm.672-9.376a22.248 22.248 0 001.408-.416c.256-.107.426-.256.512-.448.085-.192.128-.512.128-.96v-1.76c0-.683-.182-1.184-.544-1.504-.342-.32-.822-.48-1.44-.48-.598 0-1.088.171-1.472.512-.363.341-.544.832-.544 1.472v4.128l1.952-.544zm6.196 7.456h2.72c.917 0 1.579-.245 1.984-.736.427-.512.64-1.173.64-1.984 0-.64-.192-1.184-.576-1.632-.384-.448-.96-.971-1.728-1.568a27.23 27.23 0 01-1.6-1.376 6.414 6.414 0 01-1.024-1.472c-.277-.597-.416-1.28-.416-2.048 0-1.131.373-2.059 1.12-2.784.768-.747 1.792-1.12 3.072-1.12h2.784v1.92h-2.304c-1.515 0-2.272.715-2.272 2.144 0 .555.17 1.035.512 1.44.341.405.875.885 1.6 1.44.661.512 1.205.981 1.632 1.408.427.405.789.928 1.088 1.568.299.619.448 1.355.448 2.208 0 1.515-.405 2.645-1.216 3.392-.789.747-1.91 1.12-3.36 1.12h-3.104v-1.92zm15.194 1.92c-1.174 0-2.102-.352-2.784-1.056-.683-.704-1.024-1.653-1.024-2.848V124.28h-1.92v-1.92h1.92v-4.832l2.56-.96v5.792h2.56v1.92h-2.56v11.04c0 .512.138.939.416 1.28.298.32.693.48 1.184.48h.96V139h-1.312zm7.392 0l5.056-22.4h4.256l4.864 22.4h-2.624l-1.568-6.592h-5.824l-1.44 6.592h-2.72zm4.64-8.768h4.864l-2.304-11.52h-.224l-2.336 11.52zM138.394 139c-1.344 0-2.432-.395-3.264-1.184-.832-.789-1.248-1.845-1.248-3.168v-7.968c0-.917.245-1.696.736-2.336a3.862 3.862 0 011.888-1.312l4.288-1.504V116.6h2.56V139h-4.96zm2.4-1.92v-13.44l-2.848.96c-.555.171-.949.448-1.184.832-.213.363-.32.949-.32 1.76v7.456c0 .768.224 1.365.672 1.792.448.427 1.056.64 1.824.64h1.856zm9.799 1.92a4.199 4.199 0 01-2.144-.576 4.334 4.334 0 01-1.536-1.568c-.362-.661-.544-1.408-.544-2.24v-1.664c0-1.003.246-1.845.736-2.528.512-.683 1.142-1.163 1.888-1.44l3.968-1.472v-1.504c0-.512-.16-.928-.48-1.248-.298-.341-.693-.512-1.184-.512h-3.616v-1.888h3.84c1.174 0 2.102.352 2.784 1.056.704.683 1.056 1.621 1.056 2.816V139h-4.768zm2.368-1.952v-7.52l-2.816 1.056c-.554.213-.949.501-1.184.864-.213.363-.32.939-.32 1.728v1.792c0 .576.214 1.067.64 1.472.427.405.939.608 1.536.608h2.144zm14.26-5.472c0-1.216.246-2.24.736-3.072.491-.832 1.195-1.717 2.112-2.656.79-.832 1.366-1.536 1.728-2.112.363-.576.544-1.259.544-2.048 0-.917-.288-1.643-.864-2.176-.576-.533-1.472-.8-2.688-.8h-3.008V116.6h3.616c1.728 0 3.083.437 4.064 1.312.982.853 1.472 2.027 1.472 3.52 0 1.109-.224 2.037-.672 2.784-.448.747-1.12 1.579-2.016 2.496-.81.832-1.429 1.589-1.856 2.272-.405.661-.608 1.472-.608 2.432v2.016h-2.56v-1.856zm0 7.424v-2.88h2.56V139h-2.56z" fill="#fff"/></g><g filter="url(#e)"><path d="M51.488 231.224c-1.984 0-3.499-.501-4.544-1.504-1.045-1.024-1.568-2.443-1.568-4.256v-11.328c0-1.813.523-3.221 1.568-4.224 1.045-1.024 2.56-1.536 4.544-1.536 2.005 0 3.53.512 4.576 1.536 1.045 1.003 1.568 2.411 1.568 4.224v11.328c0 1.813-.523 3.232-1.568 4.256-1.045 1.003-2.57 1.504-4.576 1.504zm0-2.112c.939 0 1.728-.267 2.368-.8.64-.555.96-1.323.96-2.304v-12.416c0-.981-.32-1.739-.96-2.272-.64-.555-1.43-.832-2.368-.832-.939 0-1.728.277-2.368.832-.619.533-.928 1.291-.928 2.272v12.416c0 .981.31 1.749.928 2.304.64.533 1.43.8 2.368.8zm11.384 2.112c-.768 0-1.344-.267-1.728-.8-.363-.533-.544-1.227-.544-2.08V214.36h2.56v13.152c0 .597.043 1.024.128 1.28s.288.384.608.384c.15 0 1.355-.32 3.616-.96V214.36h2.56V231h-1.824l-.48-1.088a7.94 7.94 0 01-.768.256 34.487 34.487 0 01-2.432.8c-.619.171-1.184.256-1.696.256zM73.92 208.6h2.56v4.992l4.288 1.504a3.882 3.882 0 011.856 1.344c.512.619.768 1.387.768 2.304v8.224c0 1.152-.405 2.112-1.216 2.88-.81.768-1.803 1.152-2.976 1.152h-5.28v-22.4zm4.736 20.48c.597 0 1.11-.203 1.536-.608.427-.405.64-.907.64-1.504v-7.712c0-.811-.117-1.397-.352-1.76-.213-.384-.597-.661-1.152-.832l-2.848-.96v13.376h2.176zm7.796 1.92v-22.4h2.56V231h-2.56zm6.374-19.36v-2.56h2.56v2.56h-2.56zm0 19.36v-16.64h2.56V231h-2.56zm9.927-17.888l-1.056-.96 3.712-3.168 1.632 1.504-4.288 2.624zM102.561 231c-1.174 0-2.112-.352-2.817-1.056-.682-.704-1.023-1.653-1.023-2.848v-8.512c0-1.387.383-2.475 1.151-3.264.769-.789 1.91-1.184 3.425-1.184 1.514 0 2.645.395 3.392 1.184.768.789 1.152 1.877 1.152 3.264v1.472c0 .896-.256 1.579-.768 2.048-.512.448-1.184.789-2.016 1.024l-3.776 1.056v3.136c0 .512.149.939.448 1.28.32.32.725.48 1.216.48h3.456V231h-3.84zm.672-9.376a22.312 22.312 0 001.408-.416c.256-.107.426-.256.512-.448.085-.192.128-.512.128-.96v-1.76c0-.683-.182-1.184-.544-1.504-.342-.32-.822-.48-1.44-.48-.598 0-1.088.171-1.472.512-.363.341-.544.832-.544 1.472v4.128l1.952-.544zM113.717 231c-1.174 0-2.112-.352-2.816-1.056-.683-.704-1.024-1.653-1.024-2.848v-8.512c0-1.387.384-2.475 1.152-3.264.768-.789 1.909-1.184 3.424-1.184 1.514 0 2.645.395 3.392 1.184.768.789 1.152 1.877 1.152 3.264v1.472c0 .896-.256 1.579-.768 2.048-.512.448-1.184.789-2.016 1.024l-3.776 1.056v3.136c0 .512.149.939.448 1.28.32.32.725.48 1.216.48h3.456V231h-3.84zm.672-9.376a22.312 22.312 0 001.408-.416c.256-.107.426-.256.512-.448.085-.192.128-.512.128-.96v-1.76c0-.683-.182-1.184-.544-1.504-.342-.32-.822-.48-1.44-.48-.598 0-1.088.171-1.472.512-.363.341-.544.832-.544 1.472v4.128l1.952-.544zm6.196 7.456h2.72c.917 0 1.579-.245 1.984-.736.427-.512.64-1.173.64-1.984 0-.64-.192-1.184-.576-1.632-.384-.448-.96-.971-1.728-1.568a27.23 27.23 0 01-1.6-1.376 6.423 6.423 0 01-1.024-1.472c-.277-.597-.416-1.28-.416-2.048 0-1.131.373-2.059 1.12-2.784.768-.747 1.792-1.12 3.072-1.12h2.784v1.92h-2.304c-1.515 0-2.272.715-2.272 2.144 0 .555.171 1.035.512 1.44.341.405.875.885 1.6 1.44.661.512 1.205.981 1.632 1.408.427.405.789.928 1.088 1.568.299.619.448 1.355.448 2.208 0 1.515-.405 2.645-1.216 3.392-.789.747-1.909 1.12-3.36 1.12h-3.104v-1.92zm19.59 1.92c-1.344 0-2.432-.395-3.264-1.184-.832-.789-1.248-1.845-1.248-3.168v-7.968c0-.917.246-1.696.736-2.336a3.867 3.867 0 011.888-1.312l4.288-1.504V208.6h2.56V231h-4.96zm2.4-1.92v-13.44l-2.848.96c-.554.171-.949.448-1.184.832-.213.363-.32.949-.32 1.76v7.456c0 .768.224 1.365.672 1.792.448.427 1.056.64 1.824.64h1.856zm8.36 2.144c-.768 0-1.344-.267-1.728-.8-.363-.533-.544-1.227-.544-2.08V214.36h2.56v13.152c0 .597.042 1.024.128 1.28.085.256.288.384.608.384.149 0 1.354-.32 3.616-.96V214.36h2.56V231h-1.824l-.48-1.088a7.974 7.974 0 01-.769.256 34.49 34.49 0 01-2.431.8c-.619.171-1.184.256-1.696.256zm15.86-16.864h1.984l.288.928 1.312-.384c.896-.277 1.6-.469 2.112-.576a6.46 6.46 0 011.504-.192c.768 0 1.333.267 1.696.8s.544 1.227.544 2.08V231h-2.56v-13.152c0-.619-.043-1.045-.128-1.28-.085-.256-.299-.384-.64-.384-.171 0-1.355.341-3.552 1.024V231h-2.56v-16.64zm14.952 16.864c-.768 0-1.344-.267-1.728-.8-.363-.533-.544-1.227-.544-2.08V214.36h2.56v13.152c0 .597.043 1.024.128 1.28s.288.384.608.384c.149 0 1.355-.32 3.616-.96V214.36h2.56V231h-1.824l-.48-1.088a7.886 7.886 0 01-.768.256 34.487 34.487 0 01-2.432.8c-.619.171-1.184.256-1.696.256zm11.048-16.864h1.984l.288.928 1.312-.384c.896-.277 1.6-.469 2.112-.576a6.46 6.46 0 011.504-.192c.917 0 1.557.405 1.92 1.216.597-.213 1.44-.469 2.528-.768 1.088-.299 1.888-.448 2.4-.448.768 0 1.333.267 1.696.8.384.533.576 1.227.576 2.08V231h-2.56v-13.152c0-.619-.043-1.045-.128-1.28-.085-.256-.299-.384-.64-.384-.171 0-1.344.341-3.52 1.024V231h-2.56v-13.152c0-.619-.043-1.045-.128-1.28-.085-.256-.299-.384-.64-.384-.171 0-1.365.341-3.584 1.024V231h-2.56v-16.64zm23.364-1.248l-1.056-.96 3.712-3.168 1.632 1.504-4.288 2.624zM215.967 231c-1.174 0-2.112-.352-2.816-1.056-.683-.704-1.024-1.653-1.024-2.848v-8.512c0-1.387.384-2.475 1.152-3.264.768-.789 1.909-1.184 3.424-1.184 1.514 0 2.645.395 3.392 1.184.768.789 1.152 1.877 1.152 3.264v1.472c0 .896-.256 1.579-.768 2.048-.512.448-1.184.789-2.016 1.024l-3.776 1.056v3.136c0 .512.149.939.448 1.28.32.32.725.48 1.216.48h3.456V231h-3.84zm.672-9.376a22.312 22.312 0 001.408-.416c.256-.107.426-.256.512-.448.085-.192.128-.512.128-.96v-1.76c0-.683-.182-1.184-.544-1.504-.342-.32-.822-.48-1.44-.48-.598 0-1.088.171-1.472.512-.363.341-.544.832-.544 1.472v4.128l1.952-.544zm7.156-7.264h1.984l.288 1.184.8-.384a19.697 19.697 0 011.696-.768 4.088 4.088 0 011.408-.256v1.888c-.277 0-.651.085-1.12.256-.469.149-1.301.512-2.496 1.088V231h-2.56v-16.64zm8.563-2.72v-2.56h2.56v2.56h-2.56zm0 19.36v-16.64h2.56V231h-2.56zm12.646 0h-2.656c-1.174 0-2.166-.373-2.976-1.12-.811-.768-1.216-1.728-1.216-2.88v-8.608c0-1.152.405-2.112 1.216-2.88.832-.768 1.834-1.152 3.008-1.152h5.216v21.76h-2.592V231zm.032-1.92v-12.8h-2.144a2.15 2.15 0 00-1.536.608 1.99 1.99 0 00-.64 1.504v8.576c0 .597.213 1.099.64 1.504a2.15 2.15 0 001.536.608h2.144zm8.367 2.144c-.768 0-1.344-.267-1.728-.8-.362-.533-.544-1.227-.544-2.08V214.36h2.56v13.152c0 .597.043 1.024.128 1.28.086.256.288.384.608.384.15 0 1.355-.32 3.616-.96V214.36h2.56V231h-1.824l-.48-1.088a7.886 7.886 0 01-.768.256 34.317 34.317 0 01-2.432.8 6.407 6.407 0 01-1.696.256zm14.376-.224c-1.173 0-2.112-.352-2.816-1.056-.682-.704-1.024-1.653-1.024-2.848v-8.512c0-1.387.384-2.475 1.152-3.264.768-.789 1.91-1.184 3.424-1.184 1.515 0 2.646.395 3.392 1.184.768.789 1.152 1.877 1.152 3.264v1.472c0 .896-.256 1.579-.768 2.048-.512.448-1.184.789-2.016 1.024l-3.776 1.056v3.136c0 .512.15.939.448 1.28.32.32.726.48 1.216.48h3.456V231h-3.84zm.672-9.376a22.1 22.1 0 001.408-.416c.256-.107.427-.256.512-.448.086-.192.128-.512.128-.96v-1.76c0-.683-.181-1.184-.544-1.504-.341-.32-.821-.48-1.44-.48-.597 0-1.088.171-1.472.512-.362.341-.544.832-.544 1.472v4.128l1.952-.544z" fill="#fff"/></g><g filter="url(#f)"><path d="M46.336 323v-22.4h2.816v20.288h6.56V323h-9.376zm10.653-16.32l.256-6.08h2.72l-.416 6.08h-2.56zM65.936 323c-1.174 0-2.113-.352-2.817-1.056-.682-.704-1.023-1.653-1.023-2.848v-8.512c0-1.387.384-2.475 1.152-3.264.768-.789 1.909-1.184 3.423-1.184 1.515 0 2.646.395 3.392 1.184.769.789 1.153 1.877 1.153 3.264v1.472c0 .896-.256 1.579-.768 2.048-.512.448-1.184.789-2.016 1.024l-3.776 1.056v3.136c0 .512.149.939.447 1.28.32.32.726.48 1.217.48h3.456V323h-3.84zm.671-9.376a22.248 22.248 0 001.409-.416c.255-.107.426-.256.511-.448.086-.192.129-.512.129-.96v-1.76c0-.683-.182-1.184-.544-1.504-.342-.32-.822-.48-1.44-.48-.598 0-1.088.171-1.472.512-.363.341-.544.832-.544 1.472v4.128l1.951-.544zm7.957-5.152h-1.92v-2.112h1.92v-1.856c0-1.195.341-2.144 1.024-2.848.682-.704 1.61-1.056 2.784-1.056h1.408v1.92h-.96c-.49 0-.896.171-1.216.512-.32.341-.48.757-.48 1.248v2.08h2.592v2.112h-2.592V323h-2.56v-14.528zm8.031 0h-1.92v-2.112h1.92v-1.856c0-1.195.341-2.144 1.024-2.848.683-.704 1.61-1.056 2.784-1.056h1.408v1.92h-.96c-.49 0-.896.171-1.216.512-.32.341-.48.757-.48 1.248v2.08h2.592v2.112h-2.592V323h-2.56v-14.528zM93.155 323c-1.174 0-2.113-.352-2.817-1.056-.682-.704-1.024-1.653-1.024-2.848v-8.512c0-1.387.384-2.475 1.152-3.264.768-.789 1.91-1.184 3.424-1.184 1.515 0 2.646.395 3.392 1.184.768.789 1.152 1.877 1.152 3.264v1.472c0 .896-.256 1.579-.768 2.048-.512.448-1.184.789-2.016 1.024l-3.776 1.056v3.136c0 .512.15.939.448 1.28.32.32.726.48 1.216.48h3.456V323h-3.84zm.671-9.376a22.248 22.248 0 001.408-.416c.256-.107.427-.256.512-.448.086-.192.128-.512.128-.96v-1.76c0-.683-.181-1.184-.544-1.504-.341-.32-.821-.48-1.44-.48-.597 0-1.088.171-1.472.512-.362.341-.544.832-.544 1.472v4.128l1.952-.544zM105.623 323c-1.174 0-2.102-.352-2.784-1.056-.683-.704-1.024-1.653-1.024-2.848V308.28h-1.92v-1.92h1.92v-4.832l2.56-.96v5.792h2.56v1.92h-2.56v11.04c0 .512.138.939.416 1.28.298.32.693.48 1.184.48h.96V323h-1.312zm8.768 0v-22.4h4.256l4.288 13.248h.224l4.384-13.248h4.096V323h-2.816v-19.04l-4.288 13.088h-3.04l-4.288-13.12V323h-2.816zm24.577 0a4.199 4.199 0 01-2.144-.576 4.334 4.334 0 01-1.536-1.568c-.362-.661-.544-1.408-.544-2.24v-1.664c0-1.003.246-1.845.736-2.528.512-.683 1.142-1.163 1.888-1.44l3.968-1.472v-1.504c0-.512-.16-.928-.48-1.248-.298-.341-.693-.512-1.184-.512h-3.616v-1.888h3.84c1.174 0 2.102.352 2.784 1.056.704.683 1.056 1.621 1.056 2.816V323h-4.768zm2.368-1.952v-7.52l-2.816 1.056c-.554.213-.949.501-1.184.864-.213.363-.32.939-.32 1.728v1.792c0 .576.214 1.067.64 1.472.427.405.939.608 1.536.608h2.144zM151.904 323c-1.174 0-2.102-.352-2.784-1.056-.683-.704-1.024-1.653-1.024-2.848V308.28h-1.92v-1.92h1.92v-4.832l2.56-.96v5.792h2.56v1.92h-2.56v11.04c0 .512.138.939.416 1.28.298.32.693.48 1.184.48h.96V323h-1.312zm3.86-22.4h2.56v6.624l1.408-.416c.874-.256 1.514-.427 1.92-.512.426-.107.864-.16 1.312-.16.768 0 1.333.267 1.696.8.362.533.544 1.227.544 2.08V323h-2.56v-13.152c0-.619-.043-1.045-.128-1.28-.086-.256-.299-.384-.64-.384-.171 0-1.355.341-3.552 1.024V323h-2.56v-22.4zm13.312 3.04v-2.56h2.56v2.56h-2.56zm0 19.36v-16.64h2.56V323h-2.56zm6.439 0v-22.4h2.56V323h-2.56zm10.598 0c-1.344 0-2.432-.395-3.264-1.184-.832-.789-1.248-1.845-1.248-3.168v-7.968c0-.917.245-1.696.736-2.336a3.862 3.862 0 011.888-1.312l4.288-1.504V300.6h2.56V323h-4.96zm2.4-1.92v-13.44l-2.848.96c-.555.171-.95.448-1.184.832-.214.363-.32.949-.32 1.76v7.456c0 .768.224 1.365.672 1.792.448.427 1.056.64 1.824.64h1.856zm9.799 1.92a4.196 4.196 0 01-2.144-.576 4.334 4.334 0 01-1.536-1.568c-.363-.661-.544-1.408-.544-2.24v-1.664c0-1.003.245-1.845.736-2.528.512-.683 1.141-1.163 1.888-1.44l3.968-1.472v-1.504c0-.512-.16-.928-.48-1.248-.299-.341-.693-.512-1.184-.512H195.4v-1.888h3.84c1.173 0 2.101.352 2.784 1.056.704.683 1.056 1.621 1.056 2.816V323h-4.768zm2.368-1.952v-7.52l-2.816 1.056c-.555.213-.949.501-1.184.864-.213.363-.32.939-.32 1.728v1.792c0 .576.213 1.067.64 1.472.427.405.939.608 1.536.608h2.144z" fill="#fff"/></g><g filter="url(#g)"><path d="M51.488 415c-1.941 0-3.445-.491-4.512-1.472-1.067-.981-1.6-2.421-1.6-4.32v-10.816c0-1.899.533-3.339 1.6-4.32 1.067-.981 2.57-1.472 4.512-1.472h4.288v2.112h-4.288c-.981 0-1.781.288-2.4.864-.597.555-.896 1.301-.896 2.24v11.968c0 .939.299 1.696.896 2.272.619.555 1.419.832 2.4.832h4.288V415h-4.288zm6.838-19.36v-2.56h2.56v2.56h-2.56zm0 19.36v-16.64h2.56V415h-2.56zm6.407-16.64h1.983l.288.928 1.313-.384c.896-.277 1.6-.469 2.112-.576a6.46 6.46 0 011.504-.192c.767 0 1.333.267 1.695.8.363.533.544 1.227.544 2.08V415h-2.56v-13.152c0-.619-.042-1.045-.127-1.28-.086-.256-.3-.384-.64-.384-.171 0-1.355.341-3.552 1.024V415h-2.56v-16.64zm16.52-1.248l-1.056-.96 3.712-3.168 1.631 1.504-4.288 2.624zM81.06 415c-1.174 0-2.113-.352-2.817-1.056-.682-.704-1.023-1.653-1.023-2.848v-8.512c0-1.387.383-2.475 1.151-3.264.769-.789 1.91-1.184 3.424-1.184 1.515 0 2.646.395 3.392 1.184.769.789 1.153 1.877 1.153 3.264v1.472c0 .896-.256 1.579-.768 2.048-.512.448-1.184.789-2.016 1.024l-3.776 1.056v3.136c0 .512.149.939.447 1.28.32.32.726.48 1.217.48H84.9V415h-3.84zm.671-9.376a22.248 22.248 0 001.409-.416c.255-.107.426-.256.511-.448.086-.192.129-.512.129-.96v-1.76c0-.683-.182-1.184-.544-1.504-.342-.32-.822-.48-1.44-.48-.598 0-1.088.171-1.472.512-.363.341-.544.832-.544 1.472v4.128l1.951-.544zm7.157-7.264h1.984l.288.928 1.312-.384c.896-.277 1.6-.469 2.112-.576a6.458 6.458 0 011.504-.192c.917 0 1.557.405 1.92 1.216.597-.213 1.44-.469 2.528-.768 1.088-.299 1.888-.448 2.4-.448.768 0 1.333.267 1.696.8.384.533.576 1.227.576 2.08V415h-2.56v-13.152c0-.619-.043-1.045-.128-1.28-.086-.256-.299-.384-.64-.384-.171 0-1.344.341-3.52 1.024V415H95.8v-13.152c0-.619-.043-1.045-.128-1.28-.086-.256-.299-.384-.64-.384-.17 0-1.366.341-3.584 1.024V415h-2.56v-16.64zM112.125 415a4.196 4.196 0 01-2.144-.576 4.334 4.334 0 01-1.536-1.568c-.363-.661-.544-1.408-.544-2.24v-1.664c0-1.003.245-1.845.736-2.528.512-.683 1.141-1.163 1.888-1.44l3.968-1.472v-1.504c0-.512-.16-.928-.48-1.248-.299-.341-.694-.512-1.184-.512h-3.616v-1.888h3.84c1.173 0 2.101.352 2.784 1.056.704.683 1.056 1.621 1.056 2.816V415h-4.768zm2.368-1.952v-7.52l-2.816 1.056c-.555.213-.95.501-1.184.864-.214.363-.32.939-.32 1.728v1.792c0 .576.213 1.067.639 1.472.427.405.939.608 1.537.608h2.144zM125.06 415c-1.173 0-2.101-.352-2.784-1.056-.683-.704-1.024-1.653-1.024-2.848V400.28h-1.92v-1.92h1.92v-4.832l2.56-.96v5.792h2.56v1.92h-2.56v11.04c0 .512.139.939.416 1.28.299.32.693.48 1.184.48h.96V415h-1.312zm7.924.224c-1.493 0-2.656-.373-3.488-1.12-.811-.768-1.216-1.824-1.216-3.168v-8.512c0-1.344.405-2.389 1.216-3.136.832-.768 1.995-1.152 3.488-1.152 1.493 0 2.645.384 3.456 1.152.832.747 1.248 1.792 1.248 3.136v8.512c0 1.344-.416 2.4-1.248 3.168-.811.747-1.963 1.12-3.456 1.12zm0-1.984c.683 0 1.216-.192 1.6-.576.405-.405.608-.981.608-1.728v-8.512c0-.747-.203-1.312-.608-1.696-.384-.405-.917-.608-1.6-.608s-1.227.203-1.632.608c-.384.384-.576.949-.576 1.696v8.512c0 .747.192 1.323.576 1.728.405.384.949.576 1.632.576zm9.249 4.96h3.296c.49 0 .874-.171 1.152-.512.298-.32.448-.736.448-1.248v-1.408h-2.656c-1.174 0-2.166-.384-2.976-1.152-.811-.768-1.216-1.728-1.216-2.88v-8.608c0-1.152.405-2.112 1.216-2.88.832-.768 1.834-1.152 3.008-1.152h5.216v17.856c0 1.195-.331 2.144-.992 2.848-.64.704-1.547 1.056-2.72 1.056h-3.776v-1.92zm4.928-5.088V400.28h-2.144a2.15 2.15 0 00-1.536.608 1.99 1.99 0 00-.64 1.504V411c0 .597.213 1.099.64 1.504a2.15 2.15 0 001.536.608h2.144zm6.072-14.752h1.984l.288 1.184.8-.384a19.56 19.56 0 011.696-.768 4.084 4.084 0 011.408-.256v1.888c-.278 0-.651.085-1.12.256-.47.149-1.302.512-2.496 1.088V415h-2.56v-16.64zM165.187 415a4.196 4.196 0 01-2.144-.576 4.334 4.334 0 01-1.536-1.568c-.363-.661-.544-1.408-.544-2.24v-1.664c0-1.003.245-1.845.736-2.528.512-.683 1.141-1.163 1.888-1.44l3.968-1.472v-1.504c0-.512-.16-.928-.48-1.248-.299-.341-.693-.512-1.184-.512h-3.616v-1.888h3.84c1.173 0 2.101.352 2.784 1.056.704.683 1.056 1.621 1.056 2.816V415h-4.768zm2.368-1.952v-7.52l-2.816 1.056c-.555.213-.949.501-1.184.864-.213.363-.32.939-.32 1.728v1.792c0 .576.213 1.067.64 1.472.427.405.939.608 1.536.608h2.144zm5.928-14.688h5.184c1.173 0 2.165.384 2.976 1.152.832.768 1.248 1.728 1.248 2.88V411c0 1.152-.406 2.112-1.216 2.88-.811.747-1.803 1.12-2.976 1.12h-2.656v5.12h-2.56v-21.76zm4.672 14.752c.597 0 1.109-.203 1.536-.608.426-.405.64-.907.64-1.504v-8.608c0-.597-.214-1.099-.64-1.504a2.154 2.154 0 00-1.536-.608h-2.112v12.832h2.112zm7.765-20.512h2.56v6.624l1.408-.416c.875-.256 1.515-.427 1.92-.512.427-.107.864-.16 1.312-.16.768 0 1.333.267 1.696.8s.544 1.227.544 2.08V415h-2.56v-13.152c0-.619-.043-1.045-.128-1.28-.085-.256-.299-.384-.64-.384-.171 0-1.355.341-3.552 1.024V415h-2.56v-22.4zm13.313 3.04v-2.56h2.56v2.56h-2.56zm0 19.36v-16.64h2.56V415h-2.56zm9.734 0c-1.174 0-2.112-.352-2.816-1.056-.683-.704-1.024-1.653-1.024-2.848v-8.512c0-1.387.384-2.475 1.152-3.264.768-.789 1.909-1.184 3.424-1.184 1.514 0 2.645.395 3.392 1.184.768.789 1.152 1.877 1.152 3.264v1.472c0 .896-.256 1.579-.768 2.048-.512.448-1.184.789-2.016 1.024l-3.776 1.056v3.136c0 .512.149.939.448 1.28.32.32.725.48 1.216.48h3.456V415h-3.84zm.672-9.376a22.312 22.312 0 001.408-.416c.256-.107.426-.256.512-.448.085-.192.128-.512.128-.96v-1.76c0-.683-.182-1.184-.544-1.504-.342-.32-.822-.48-1.44-.48-.598 0-1.088.171-1.472.512-.363.341-.544.832-.544 1.472v4.128l1.952-.544z" fill="#fff"/></g><g filter="url(#h)"><path d="M46.336 507v-22.4h2.816v20.288h6.56V507h-9.376zm11.709-19.36v-2.56h2.56v2.56h-2.56zm0 19.36v-16.64h2.56V507h-2.56zm11.046 0c-1.173 0-2.101-.352-2.784-1.056-.682-.704-1.024-1.653-1.024-2.848V492.28h-1.92v-1.92h1.92v-4.832l2.56-.96v5.792h2.56v1.92h-2.56v11.04c0 .512.139.939.416 1.28.299.32.694.48 1.184.48h.96V507h-1.312zm8.5 0c-1.173 0-2.101-.352-2.784-1.056-.682-.704-1.024-1.653-1.024-2.848V492.28h-1.92v-1.92h1.92v-4.832l2.56-.96v5.792h2.56v1.92h-2.56v11.04c0 .512.139.939.416 1.28.299.32.694.48 1.184.48h.96V507h-1.312zm7.38-17.888l-1.056-.96 3.712-3.168 1.632 1.504-4.288 2.624zM84.78 507c-1.173 0-2.112-.352-2.816-1.056-.682-.704-1.024-1.653-1.024-2.848v-8.512c0-1.387.384-2.475 1.152-3.264.768-.789 1.91-1.184 3.424-1.184 1.515 0 2.646.395 3.392 1.184.768.789 1.152 1.877 1.152 3.264v1.472c0 .896-.256 1.579-.768 2.048-.512.448-1.184.789-2.016 1.024l-3.776 1.056v3.136c0 .512.15.939.448 1.28.32.32.726.48 1.216.48h3.456V507h-3.84zm.672-9.376a22.248 22.248 0 001.408-.416c.256-.107.427-.256.512-.448.086-.192.128-.512.128-.96v-1.76c0-.683-.181-1.184-.544-1.504-.341-.32-.821-.48-1.44-.48-.597 0-1.088.171-1.472.512-.362.341-.544.832-.544 1.472v4.128l1.952-.544zm7.157-7.264h1.983l.288 1.184.8-.384a19.656 19.656 0 011.697-.768c.469-.171.938-.256 1.407-.256v1.888c-.277 0-.65.085-1.12.256-.469.149-1.3.512-2.495 1.088V507h-2.56v-16.64zM104.561 507a4.196 4.196 0 01-2.144-.576 4.334 4.334 0 01-1.536-1.568c-.363-.661-.544-1.408-.544-2.24v-1.664c0-1.003.245-1.845.736-2.528.512-.683 1.141-1.163 1.888-1.44l3.968-1.472v-1.504c0-.512-.16-.928-.48-1.248-.299-.341-.693-.512-1.184-.512h-3.616v-1.888h3.84c1.173 0 2.101.352 2.784 1.056.704.683 1.056 1.621 1.056 2.816V507h-4.768zm2.368-1.952v-7.52l-2.816 1.056c-.555.213-.949.501-1.184.864-.213.363-.32.939-.32 1.728v1.792c0 .576.213 1.067.64 1.472.427.405.939.608 1.536.608h2.144zM117.498 507c-1.174 0-2.102-.352-2.784-1.056-.683-.704-1.024-1.653-1.024-2.848V492.28h-1.92v-1.92h1.92v-4.832l2.56-.96v5.792h2.56v1.92h-2.56v11.04c0 .512.138.939.416 1.28.298.32.693.48 1.184.48h.96V507h-1.312zm5.812.224c-.768 0-1.344-.267-1.728-.8-.363-.533-.544-1.227-.544-2.08V490.36h2.56v13.152c0 .597.042 1.024.128 1.28.085.256.288.384.608.384.149 0 1.354-.32 3.616-.96V490.36h2.56V507h-1.824l-.48-1.088a8.07 8.07 0 01-.768.256 34.658 34.658 0 01-2.432.8c-.619.171-1.184.256-1.696.256zm11.048-16.864h1.984l.288 1.184.8-.384a19.56 19.56 0 011.696-.768 4.084 4.084 0 011.408-.256v1.888c-.278 0-.651.085-1.12.256-.47.149-1.302.512-2.496 1.088V507h-2.56v-16.64zm11.89 16.64c-1.173 0-2.112-.352-2.816-1.056-.683-.704-1.024-1.653-1.024-2.848v-8.512c0-1.387.384-2.475 1.152-3.264.768-.789 1.909-1.184 3.424-1.184s2.645.395 3.392 1.184c.768.789 1.152 1.877 1.152 3.264v1.472c0 .896-.256 1.579-.768 2.048-.512.448-1.184.789-2.016 1.024l-3.776 1.056v3.136c0 .512.149.939.448 1.28.32.32.725.48 1.216.48h3.456V507h-3.84zm.672-9.376a22.312 22.312 0 001.408-.416c.256-.107.427-.256.512-.448.085-.192.128-.512.128-.96v-1.76c0-.683-.181-1.184-.544-1.504-.341-.32-.821-.48-1.44-.48-.597 0-1.088.171-1.472.512-.363.341-.544.832-.544 1.472v4.128l1.952-.544z" fill="#fff"/></g><g clip-path="url(#i)"><path d="M343.267 24.516l16.586 16.586M342.853 41.102l16.586-16.586" stroke="#fff" stroke-width="3" stroke-linecap="round"/></g><path d="M60.984 51.703c-2.78 1.382-5.598 1.609-8.454.679-3.035-.956-5.648-2.992-7.842-6.109-1.172-1.66-2.18-3.582-3.021-5.77L40.443 37.3h-9.028l-2.027 4.75c-.128.328-.191.592-.191.793 0 .2.038.427.114.678.102.227.294.44.574.641.306.176.638.264.995.264h.306v.377H23v-.377h.344c.587 0 1.16-.163 1.722-.49.586-.352 1.07-.867 1.453-1.546l8.53-19.193c-.994-2.212-2.053-3.733-3.175-4.563-.943-.703-1.848-1.055-2.715-1.055-.842 0-1.633.125-2.372.377l-.077-.377c1.836-.93 3.596-1.395 5.28-1.395 2.09 0 3.964.804 5.622 2.413 1.632 1.584 3.073 3.871 4.322 6.863l5.547 13.499c2.09 5.103 4.233 8.61 6.426 10.52.893.78 1.81 1.32 2.754 1.621.944.302 1.734.453 2.372.453.663 0 1.3-.075 1.912-.226l.039.377zM32.066 35.677h7.803l-2.678-6.976c-.127-.352-.306-.83-.535-1.433a30.038 30.038 0 01-.46-1.32l-4.13 9.73z" fill="#000"/><path d="M68.226 13.582c.483-.684 1.275-1.323 2.483-1.08 1.094.22 1.548 1.056 1.728 1.818a4.548 4.548 0 01.104 1.346l-.006.073 3.191 1.756.053-.058a5.278 5.278 0 011.195-.954c.382-.216.829-.384 1.302-.395.477-.012.975.135 1.457.54.473.399.702.853.776 1.311.075.456-.005.91-.141 1.312a4.73 4.73 0 01-.491 1.002 5.058 5.058 0 01-.251.357l2.039 2.777.078-.02a5.343 5.343 0 011.456-.153c.842.034 1.809.323 2.217 1.363.246.628.235 1.163.077 1.61-.158.447-.462.8-.792 1.073a4.684 4.684 0 01-1.378.754l.37 3.396.084.028a5.683 5.683 0 011.342.67c.708.492 1.379 1.273 1.142 2.391-.229 1.078-1.094 1.563-1.884 1.778a5.106 5.106 0 01-1.477.17l-.875 1.45-.868 1.438 10.665 9.875a55314459.37 55314459.37 0 01.007.006l.019.017a3.51 3.51 0 01.295.315c.18.211.403.511.57.862.167.351.28.758.236 1.18-.045.425-.248.859-.7 1.262-.452.402-.906.59-1.336.642a2.401 2.401 0 01-1.167-.164 3.475 3.475 0 01-1.107-.71l-.016-.016-.004-.004-10.281-9.384-3.001 2.081.023.074c.026.082.059.199.09.342.065.285.126.676.111 1.094-.014.419-.105.868-.346 1.268-.243.4-.635.747-1.244.96-.61.213-1.145.182-1.603.013-.456-.168-.832-.471-1.128-.797a4.91 4.91 0 01-.83-1.28 3.817 3.817 0 01-.032-.073l-3.477.51-.008.072c-.011.084-.03.202-.061.342-.063.28-.176.65-.38 1.004a2.301 2.301 0 01-.925.921c-.428.223-.981.32-1.694.196-.594-.105-.996-.362-1.26-.694-.264-.33-.386-.728-.434-1.107a3.911 3.911 0 01.016-1.013 4.258 4.258 0 01.073-.39l-3.373-1.79-.049.058a4.87 4.87 0 01-.25.264c-.215.21-.523.475-.89.69-.369.213-.802.378-1.266.384-.466.005-.957-.15-1.44-.567-.968-.838-.966-1.873-.726-2.685a4.546 4.546 0 01.681-1.369l-2.187-2.814a4.509 4.509 0 01-1.42.243c-.397-.002-.825-.073-1.209-.285-.385-.212-.72-.562-.935-1.114-.434-1.114.117-2.003.757-2.602.32-.3.667-.531.933-.687a5.603 5.603 0 01.4-.214l-.519-3.476a4.74 4.74 0 01-.397-.116 4.572 4.572 0 01-.957-.448c-.681-.43-1.33-1.153-1.14-2.3.1-.593.371-1.012.726-1.305.353-.291.785-.454 1.198-.543a4.875 4.875 0 011.112-.098 5.055 5.055 0 01.44.029l1.591-2.992a4.64 4.64 0 01-.33-.318 4.399 4.399 0 01-.689-.948c-.207-.395-.357-.86-.333-1.365.024-.506.223-1.045.702-1.585.721-.812 1.701-.696 2.476-.395.39.152.734.352.98.514a5.596 5.596 0 01.351.249l3.006-2.305a4.102 4.102 0 01-.251-1.396c.005-.39.084-.811.31-1.19.229-.38.604-.713 1.192-.928.61-.223 1.141-.193 1.593-.018.45.174.816.49 1.103.827a5.253 5.253 0 01.823 1.4l3.332-.583.024-.08a4.666 4.666 0 01.63-1.298zm9.391 12.389c-2.907-5.652-9.968-7.942-15.652-4.987-5.711 2.968-7.788 10.1-4.633 15.655 3.345 5.89 11.775 7.628 17.161 3.463 4.505-3.484 5.713-9.096 3.124-14.131z" fill="#000"/><path d="M270.136 29.136l-.072 4.176 2.16.024 2.616-.072.216.24-.24 2.424-2.856-.072-1.944.024-.024 1.224.144 4.896h-3.264l.168-4.608-.168-10.848h9.192l.192.264-.24 2.448-3.672-.144-2.208.024zm15.793 6.72a69.32 69.32 0 003.72 5.376l-.048.36c-1.04.368-2.104.584-3.192.648l-.336-.264c-1.152-1.984-2.088-3.712-2.808-5.184h-2.328v.312l.144 4.896h-3.264l.168-4.608-.168-10.848 5.928-.024c1.616 0 2.864.4 3.744 1.2.88.784 1.32 1.912 1.32 3.384a5.12 5.12 0 01-.768 2.736c-.496.816-1.2 1.488-2.112 2.016zm-4.944-1.584l2.376.096c1.36-.464 2.04-1.448 2.04-2.952 0-.816-.224-1.424-.672-1.824-.432-.416-1.104-.64-2.016-.672l-1.632.096-.096 5.256zM304.344 25.968l-4.968 18.792h-2.208l-.192-.264 4.944-18.816h2.16l.264.288zM321.016 40.512L320.872 42h-8.64l.12-4.632-.12-10.752h8.664l.096.192-.144 1.488-3.624-.072-3.048.048-.048 5.04 2.88.048 2.544-.072.144.168-.168 1.488-2.688-.048-2.736.024-.024 2.28.072 3.192 3.048.024 3.696-.096.12.192zm14.602-3.024l.048 4.512h-2.016l-7.968-12.312h-.12l-.024 7.248.024 5.064h-1.728l.072-4.56-.048-10.824h1.992l7.944 12.312h.168l-.024-12.216 1.8-.144-.12 10.92z" fill="#59168B"/><defs><filter id="a" x="110.336" y="577.568" width="221.692" height="30.656" filterUnits="userSpaceOnUse" color-interpolation-filters="sRGB"><feFlood flood-opacity="0" result="BackgroundImageFix"/><feColorMatrix in="SourceAlpha" values="0 0 0 0 0 0 0 0 0 0 0 0 0 0 0 0 0 0 127 0" result="hardAlpha"/><feOffset dy="4"/><feGaussianBlur stdDeviation="2"/><feComposite in2="hardAlpha" operator="out"/><feColorMatrix values="0 0 0 0 0 0 0 0 0 0 0 0 0 0 0 0 0 0 0.25 0"/><feBlend in2="BackgroundImageFix" result="effect1_dropShadow_58_5696"/><feBlend in="SourceGraphic" in2="effect1_dropShadow_58_5696" result="shape"/></filter><filter id="b" x="109.376" y="664.6" width="96.121" height="30.624" filterUnits="userSpaceOnUse" color-interpolation-filters="sRGB"><feFlood flood-opacity="0" result="BackgroundImageFix"/><feColorMatrix in="SourceAlpha" values="0 0 0 0 0 0 0 0 0 0 0 0 0 0 0 0 0 0 127 0" result="hardAlpha"/><feOffset dy="4"/><feGaussianBlur stdDeviation="2"/><feComposite in2="hardAlpha" operator="out"/><feColorMatrix values="0 0 0 0 0 0 0 0 0 0 0 0 0 0 0 0 0 0 0.25 0"/><feBlend in2="BackgroundImageFix" result="effect1_dropShadow_58_5696"/><feBlend in="SourceGraphic" in2="effect1_dropShadow_58_5696" result="shape"/></filter><filter id="c" x="108.64" y="751.568" width="146.719" height="35.552" filterUnits="userSpaceOnUse" color-interpolation-filters="sRGB"><feFlood flood-opacity="0" result="BackgroundImageFix"/><feColorMatrix in="SourceAlpha" values="0 0 0 0 0 0 0 0 0 0 0 0 0 0 0 0 0 0 127 0" result="hardAlpha"/><feOffset dy="4"/><feGaussianBlur stdDeviation="2"/><feComposite in2="hardAlpha" operator="out"/><feColorMatrix values="0 0 0 0 0 0 0 0 0 0 0 0 0 0 0 0 0 0 0.25 0"/><feBlend in2="BackgroundImageFix" result="effect1_dropShadow_58_5696"/><feBlend in="SourceGraphic" in2="effect1_dropShadow_58_5696" result="shape"/></filter><filter id="d" x="41.376" y="116.376" width="137.557" height="35.776" filterUnits="userSpaceOnUse" color-interpolation-filters="sRGB"><feFlood flood-opacity="0" result="BackgroundImageFix"/><feColorMatrix in="SourceAlpha" values="0 0 0 0 0 0 0 0 0 0 0 0 0 0 0 0 0 0 127 0" result="hardAlpha"/><feOffset dy="4"/><feGaussianBlur stdDeviation="2"/><feComposite in2="hardAlpha" operator="out"/><feColorMatrix values="0 0 0 0 0 0 0 0 0 0 0 0 0 0 0 0 0 0 0.25 0"/><feBlend in2="BackgroundImageFix" result="effect1_dropShadow_58_5696"/><feBlend in="SourceGraphic" in2="effect1_dropShadow_58_5696" result="shape"/></filter><filter id="e" x="41.376" y="208.376" width="235.683" height="35.744" filterUnits="userSpaceOnUse" color-interpolation-filters="sRGB"><feFlood flood-opacity="0" result="BackgroundImageFix"/><feColorMatrix in="SourceAlpha" values="0 0 0 0 0 0 0 0 0 0 0 0 0 0 0 0 0 0 127 0" result="hardAlpha"/><feOffset dy="4"/><feGaussianBlur stdDeviation="2"/><feComposite in2="hardAlpha" operator="out"/><feColorMatrix values="0 0 0 0 0 0 0 0 0 0 0 0 0 0 0 0 0 0 0.25 0"/><feBlend in2="BackgroundImageFix" result="effect1_dropShadow_58_5696"/><feBlend in="SourceGraphic" in2="effect1_dropShadow_58_5696" result="shape"/></filter><filter id="f" x="42.336" y="300.568" width="164.744" height="30.432" filterUnits="userSpaceOnUse" color-interpolation-filters="sRGB"><feFlood flood-opacity="0" result="BackgroundImageFix"/><feColorMatrix in="SourceAlpha" values="0 0 0 0 0 0 0 0 0 0 0 0 0 0 0 0 0 0 127 0" result="hardAlpha"/><feOffset dy="4"/><feGaussianBlur stdDeviation="2"/><feComposite in2="hardAlpha" operator="out"/><feColorMatrix values="0 0 0 0 0 0 0 0 0 0 0 0 0 0 0 0 0 0 0.25 0"/><feBlend in2="BackgroundImageFix" result="effect1_dropShadow_58_5696"/><feBlend in="SourceGraphic" in2="effect1_dropShadow_58_5696" result="shape"/></filter><filter id="g" x="41.376" y="392.568" width="176.871" height="35.552" filterUnits="userSpaceOnUse" color-interpolation-filters="sRGB"><feFlood flood-opacity="0" result="BackgroundImageFix"/><feColorMatrix in="SourceAlpha" values="0 0 0 0 0 0 0 0 0 0 0 0 0 0 0 0 0 0 127 0" result="hardAlpha"/><feOffset dy="4"/><feGaussianBlur stdDeviation="2"/><feComposite in2="hardAlpha" operator="out"/><feColorMatrix values="0 0 0 0 0 0 0 0 0 0 0 0 0 0 0 0 0 0 0.25 0"/><feBlend in2="BackgroundImageFix" result="effect1_dropShadow_58_5696"/><feBlend in="SourceGraphic" in2="effect1_dropShadow_58_5696" result="shape"/></filter><filter id="h" x="42.336" y="484.568" width="113.192" height="30.656" filterUnits="userSpaceOnUse" color-interpolation-filters="sRGB"><feFlood flood-opacity="0" result="BackgroundImageFix"/><feColorMatrix in="SourceAlpha" values="0 0 0 0 0 0 0 0 0 0 0 0 0 0 0 0 0 0 127 0" result="hardAlpha"/><feOffset dy="4"/><feGaussianBlur stdDeviation="2"/><feComposite in2="hardAlpha" operator="out"/><feColorMatrix values="0 0 0 0 0 0 0 0 0 0 0 0 0 0 0 0 0 0 0.25 0"/><feBlend in2="BackgroundImageFix" result="effect1_dropShadow_58_5696"/><feBlend in="SourceGraphic" in2="effect1_dropShadow_58_5696" result="shape"/></filter><clipPath id="i"><path fill="#fff" transform="translate(341.353 22.716)" d="M0 0H20V20H0z"/></clipPath></defs></svg>