<svg width="371" height="2904" fill="none" xmlns="http://www.w3.org/2000/svg"><path d="M360.5 0v90H10v618.5h347.5V1330H10v618h350.5v617.5H10v325" stroke="#FDA5D5" stroke-width="3"/><circle cx="10.5" cy="10.5" r="10.5" transform="matrix(-1 0 0 1 21 408)" fill="#E60076"/><circle cx="10.5" cy="10.5" r="10.5" transform="matrix(-1 0 0 1 368 1020)" fill="#E60076"/><circle cx="10.5" cy="10.5" r="10.5" transform="matrix(-1 0 0 1 21 1638)" fill="#E60076"/><circle cx="10.5" cy="10.5" r="10.5" transform="matrix(-1 0 0 1 21 2883)" fill="#E60076"/><circle cx="10.5" cy="10.5" r="10.5" transform="matrix(-1 0 0 1 371 2248)" fill="#E60076"/><circle cx="10.5" cy="10.5" r="10.5" transform="matrix(-1 0 0 1 371 0)" fill="#E60076"/></svg>