<svg width="70" height="50" fill="none" xmlns="http://www.w3.org/2000/svg"><path d="M37.984 43.703c-2.78 1.382-5.598 1.609-8.454.679-3.035-.956-5.648-2.992-7.841-6.109-1.174-1.66-2.18-3.582-3.022-5.77L17.443 29.3H8.415l-2.027 4.75c-.128.328-.191.592-.191.793 0 .2.038.427.114.678.102.227.294.44.574.641.306.176.638.264.995.264h.306v.377H0v-.377h.344c.587 0 1.16-.163 1.722-.49.586-.352 1.07-.867 1.453-1.546l8.53-19.193c-.994-2.212-2.053-3.733-3.175-4.563-.943-.703-1.849-1.055-2.716-1.055a7.32 7.32 0 00-2.371.377l-.077-.377c1.836-.93 3.596-1.396 5.28-1.396 2.09 0 3.964.805 5.622 2.414 1.632 1.584 3.073 3.871 4.322 6.863l5.547 13.499c2.09 5.103 4.233 8.61 6.426 10.52.893.78 1.81 1.32 2.754 1.621.944.302 1.734.453 2.372.453.663 0 1.3-.075 1.912-.226l.039.377zM9.066 27.677h7.803l-2.678-6.976c-.127-.352-.306-.83-.535-1.433a30.038 30.038 0 01-.46-1.32l-4.13 9.73z" fill="#fff"/><path d="M45.226 5.583c.483-.685 1.275-1.324 2.483-1.08 1.094.22 1.548 1.055 1.728 1.817a4.547 4.547 0 01.104 1.346l-.006.073 3.191 1.756a5.2 5.2 0 01.317-.322c.226-.21.548-.475.93-.69.383-.216.83-.384 1.304-.395.476-.012.974.135 1.456.54.473.399.702.853.776 1.311.075.456-.005.91-.141 1.312a5.009 5.009 0 01-.742 1.359l2.039 2.777.078-.02a5.343 5.343 0 011.456-.153c.842.034 1.81.323 2.217 1.363.246.628.236 1.163.077 1.61-.158.447-.462.8-.791 1.073a4.684 4.684 0 01-1.378.754l.37 3.396.083.028a5.681 5.681 0 011.343.67c.707.492 1.378 1.273 1.14 2.391-.227 1.078-1.093 1.563-1.882 1.778a5.107 5.107 0 01-1.478.17l-.875 1.45-.868 1.438 10.665 9.875.002.001a4.045 4.045 0 01.889 1.199c.167.351.28.758.236 1.18-.045.425-.248.859-.7 1.262-.451.402-.906.59-1.336.642a2.401 2.401 0 01-1.166-.164 3.477 3.477 0 01-1.108-.71l-.016-.016-.004-.004-10.281-9.384-3.001 2.081.024.074c.025.082.058.199.09.342.064.285.125.676.11 1.094-.014.419-.104.868-.346 1.268-.243.4-.635.747-1.244.96-.61.213-1.145.182-1.603.013-.456-.168-.832-.471-1.128-.798a4.907 4.907 0 01-.83-1.279 3.736 3.736 0 01-.032-.073l-3.477.51-.008.072c-.01.084-.03.202-.061.342a3.65 3.65 0 01-.38 1.004 2.302 2.302 0 01-.925.921c-.428.223-.981.32-1.693.196-.595-.105-.997-.362-1.262-.694-.263-.33-.385-.728-.433-1.107a4.2 4.2 0 01.074-1.337l.015-.065-3.372-1.79-.05.057a4.87 4.87 0 01-.25.264c-.215.21-.522.475-.89.69-.369.213-.801.378-1.266.384-.466.005-.957-.15-1.44-.567-.968-.838-.966-1.873-.726-2.686a4.543 4.543 0 01.637-1.306l.044-.062-2.187-2.814-.067.023a4.485 4.485 0 01-.32.091 4.293 4.293 0 01-1.034.13c-.396-.003-.824-.074-1.207-.285-.386-.212-.722-.563-.936-1.115-.434-1.114.118-2.003.758-2.602.32-.3.666-.531.932-.687a5.573 5.573 0 01.4-.214l-.519-3.476a4.74 4.74 0 01-.397-.116 4.572 4.572 0 01-.957-.448c-.681-.43-1.33-1.153-1.14-2.3.1-.593.372-1.012.726-1.305.354-.291.785-.454 1.199-.543a4.876 4.876 0 011.111-.098 5.056 5.056 0 01.44.029l1.591-2.992a4.637 4.637 0 01-.331-.318 4.399 4.399 0 01-.688-.948c-.207-.395-.357-.86-.333-1.365.025-.506.223-1.046.702-1.585.721-.812 1.701-.696 2.477-.395.389.152.733.352.98.514a5.596 5.596 0 01.35.249l3.006-2.305a4.097 4.097 0 01-.251-1.396c.005-.39.084-.811.311-1.19.228-.38.603-.713 1.191-.928.61-.223 1.141-.193 1.593-.018.45.174.816.49 1.103.827a5.236 5.236 0 01.823 1.4l3.332-.583.024-.08a4.657 4.657 0 01.63-1.298zm9.391 12.388c-2.906-5.652-9.968-7.942-15.652-4.987-5.711 2.968-7.788 10.1-4.633 15.655 3.345 5.89 11.775 7.628 17.161 3.463 4.505-3.484 5.713-9.096 3.124-14.131z" fill="#fff"/></svg>