<svg width="197" height="53" fill="none" xmlns="http://www.w3.org/2000/svg"><path d="M39.76 46.325c-2.91 1.466-5.859 1.705-8.849.72-3.176-1.013-5.912-3.172-8.208-6.476-1.228-1.758-2.282-3.797-3.163-6.115l-1.281-3.397h-9.45l-2.122 5.036c-.134.346-.2.626-.2.84 0 .212.04.452.12.719.106.24.307.466.6.68.32.186.668.279 1.041.279h.32v.4H0v-.4h.36c.614 0 1.215-.173 1.802-.52.614-.373 1.121-.919 1.522-1.639l8.929-20.344c-1.041-2.345-2.149-3.957-3.324-4.837-.987-.746-1.935-1.119-2.842-1.119-.881 0-1.709.134-2.483.4l-.08-.4c1.922-.986 3.764-1.479 5.526-1.479 2.188 0 4.15.853 5.886 2.559 1.708 1.678 3.216 4.103 4.524 7.274l5.806 14.31c2.189 5.408 4.431 9.126 6.727 11.15.934.827 1.895 1.4 2.883 1.72.987.32 1.815.48 2.482.48.694 0 1.362-.08 2.002-.24l.04.399zM9.49 29.338h8.168l-2.803-7.395c-.133-.373-.32-.879-.56-1.518-.24-.666-.4-1.133-.481-1.4L9.49 29.339zm31.174-9.913c3.308 0 5.924.877 7.848 2.63 1.925 1.754 2.887 4.141 2.887 7.163 0 3.022-.962 5.41-2.887 7.163-1.924 1.753-4.54 2.63-7.848 2.63H30.49v-.28h.364a1.68 1.68 0 001.234-.504c.355-.354.542-.774.56-1.259V21.3a1.738 1.738 0 00-.588-1.12 1.696 1.696 0 00-1.206-.475h-.364v-.28h10.174zm-.364 18.41c1.345 0 2.504-.345 3.476-1.035.99-.709 1.747-1.706 2.27-2.993.523-1.306.785-2.836.785-4.589 0-2.649-.589-4.747-1.766-6.295-1.159-1.548-2.747-2.322-4.765-2.322h-3.447v17.235H40.3zm38.396 6.296c-2.037 1.026-4.101 1.193-6.194.503-2.224-.709-4.139-2.22-5.746-4.532-.86-1.231-1.597-2.658-2.214-4.281l-.897-2.378H57.03l-1.485 3.525c-.094.243-.14.438-.14.588 0 .149.028.317.084.503.074.168.215.327.42.476.224.13.467.196.729.196h.224v.28h-5.998v-.28h.252c.43 0 .85-.122 1.261-.364.43-.261.785-.643 1.066-1.147l6.25-14.241c-.729-1.642-1.504-2.77-2.326-3.386-.692-.522-1.355-.783-1.99-.783-.617 0-1.196.093-1.738.28l-.056-.28c1.345-.69 2.634-1.035 3.868-1.035 1.532 0 2.905.597 4.12 1.79 1.196 1.175 2.251 2.873 3.167 5.092l4.064 10.017c1.532 3.786 3.102 6.388 4.709 7.806.654.578 1.327.98 2.018 1.203.691.224 1.27.336 1.738.336.486 0 .953-.056 1.401-.168l.028.28zM57.506 32.24h5.718l-1.961-5.176A74.66 74.66 0 0060.87 26c-.168-.466-.28-.792-.336-.979l-3.027 7.219zm74.418-18.494c.243 0 .495.009.757.028v.28c-2.205.167-3.793 1.212-4.765 3.133-.635 1.25-.953 2.835-.953 4.756v9.989c-.037 2.35-.794 4.187-2.27 5.512-1.476 1.305-3.588 1.958-6.334 1.958-2.729 0-4.905-.671-6.531-2.014-1.626-1.362-2.429-3.171-2.411-5.428V21.076c0-.392-.149-.718-.448-.98a1.464 1.464 0 00-1.037-.39h-.448v-.28h8.072v.28h-.449c-.579 0-1.009.223-1.289.67-.131.206-.196.43-.196.672v10.688c0 1.977.514 3.544 1.541 4.7 1.028 1.157 2.383 1.735 4.064 1.735h.057c1.663 0 3.027-.54 4.092-1.623 1.065-1.081 1.597-2.564 1.597-4.448V21.943c0-2.518.663-4.514 1.99-5.987 1.346-1.474 2.999-2.21 4.961-2.21zm-.862 24.985a1.68 1.68 0 001.233-.504 1.83 1.83 0 00.561-1.259V21.384c-.056-.653-.365-1.138-.925-1.455a1.828 1.828 0 00-.869-.224h-.365v-.28h7.876c.822 0 1.542-.065 2.159-.195.616-.131 1.018-.234 1.205-.308v4.896h-.308v-.336c.018-.84-.225-1.51-.729-2.014-.486-.522-1.149-.802-1.99-.84h-1.85v8.142h4.456c.692-.018 1.262-.252 1.71-.7.449-.465.673-1.034.673-1.706v-.252h.252v6.463h-.252v-.223c0-.69-.224-1.26-.673-1.707-.448-.448-1.009-.681-1.682-.7h-4.484v7.862h5.465c1.364 0 2.504-.391 3.42-1.175.934-.783 1.626-1.893 2.074-3.33h.28l-1.317 5.709h-16.285v-.28h.365zm19.87-7.666c-.748 1.193-1.122 2.415-1.122 3.665 0 1.361.495 2.602 1.486 3.721a5.517 5.517 0 002.046 1.483c.841.354 1.756.532 2.747.532.99 0 1.878-.187 2.663-.56 1.569-.765 2.354-2.015 2.354-3.75 0-.652-.224-1.342-.673-2.07-.43-.727-1.083-1.38-1.962-1.958l-4.765-3.19c-1.849-1.156-2.774-2.648-2.774-4.476 0-.187.009-.373.028-.56.112-1.436.682-2.602 1.709-3.497 1.047-.914 2.439-1.371 4.177-1.371 1.065 0 2.354.093 3.868.28h1.737l-.364 4.112h-.252c-.019-.97-.393-1.744-1.121-2.322-.729-.597-1.692-.895-2.887-.895-1.458 0-2.513.438-3.168 1.315a2.46 2.46 0 00-.476 1.455c0 .522.158.97.476 1.343.318.354.823.746 1.514 1.175l5.241 3.413c1.065.69 1.897 1.502 2.495 2.434.71 1.1 1.065 2.23 1.065 3.386 0 .746-.159 1.539-.477 2.378-.298.82-.803 1.585-1.513 2.294-.691.71-1.588 1.287-2.691 1.735-1.103.448-2.326.672-3.672.672-1.327 0-2.532-.234-3.615-.7-2-.84-3.27-2.304-3.812-4.393a5.743 5.743 0 01-.168-1.399c0-1.566.551-3.05 1.653-4.448l.253.196zm14.128-5.12c-.917-.877-1.374-1.82-1.374-2.826 0-.784.252-1.465.757-2.043.953-1.12 2.289-1.679 4.008-1.679h13.201a14.026 14.026 0 002.159-.195c.616-.131 1.009-.234 1.177-.308v4.868h-.28v-.336c0-.839-.253-1.52-.757-2.042-.505-.522-1.187-.793-2.046-.811h-3.784v16.423c.037.672.345 1.175.925 1.51.261.15.551.225.869.225h.364v.28h-8.521v-.28h.365a1.68 1.68 0 001.233-.504c.355-.336.541-.737.561-1.203V20.573h-5.466c-.766 0-1.439.14-2.018.42-1.177.559-1.766 1.435-1.766 2.63 0 .708.224 1.435.673 2.181l-.28.14z" fill="#000"/><path d="M88.664 5.917c.505-.725 1.334-1.402 2.599-1.145 1.145.233 1.62 1.12 1.808 1.927a4.885 4.885 0 01.11 1.427l-.007.078 3.34 1.861.056-.062c.064-.07.158-.168.276-.28a5.22 5.22 0 01.974-.731c.4-.229.868-.407 1.364-.419.499-.012 1.02.143 1.525.573.495.422.734.904.812 1.39.078.483-.005.965-.148 1.39a5.016 5.016 0 01-.514 1.062c-.083.132-.158.239-.213.312l-.049.066 2.134 2.944a5.44 5.44 0 01.445-.097 5.524 5.524 0 011.16-.086c.882.036 1.894.342 2.321 1.445.258.666.247 1.232.081 1.707-.166.473-.483.848-.828 1.136a4.575 4.575 0 01-1.011.625 5.007 5.007 0 01-.355.147l-.077.027.387 3.6.088.03a5.672 5.672 0 011.405.71c.741.522 1.443 1.35 1.195 2.535-.239 1.142-1.145 1.656-1.972 1.885a5.283 5.283 0 01-1.546.18l-.916 1.537-.908 1.524 11.163 10.467h.001l.001.002.005.005.02.018.072.07c.06.062.143.151.237.264.189.224.422.542.597.914s.293.803.247 1.25c-.048.45-.26.91-.734 1.339-.472.426-.947.625-1.397.68a2.486 2.486 0 01-1.222-.174 3.655 3.655 0 01-1.159-.753l-.017-.017-.004-.004-10.762-9.947-3.14 2.206.024.078c.026.087.06.211.094.362.068.303.131.717.116 1.16-.015.444-.11.92-.363 1.344-.254.425-.665.792-1.302 1.018-.638.226-1.198.193-1.678.014-.477-.178-.87-.5-1.181-.846a5.234 5.234 0 01-.902-1.434l-3.64.541a4.116 4.116 0 01-.073.439 3.872 3.872 0 01-.396 1.065c-.213.377-.522.74-.969.976-.447.236-1.027.34-1.773.207-.622-.11-1.043-.383-1.32-.735-.275-.35-.403-.772-.454-1.173a4.23 4.23 0 01.017-1.075 4.888 4.888 0 01.077-.412l-3.53-1.898c-.014.017-.031.038-.052.061-.06.07-.15.168-.262.28a4.847 4.847 0 01-.932.73c-.385.227-.839.403-1.324.408-.489.006-1.003-.159-1.507-.6-1.014-.889-1.012-1.985-.761-2.847a4.845 4.845 0 01.667-1.385l.046-.065-2.29-2.983a4.658 4.658 0 01-1.487.258c-.415-.003-.862-.079-1.264-.302-.403-.225-.755-.597-.98-1.182-.453-1.181.124-2.123.794-2.758a5.6 5.6 0 01.975-.728 5.774 5.774 0 01.42-.227l-.543-3.684a4.963 4.963 0 01-1.418-.598c-.713-.456-1.393-1.223-1.193-2.439.103-.628.388-1.072.76-1.383.37-.309.82-.481 1.254-.575.434-.095.853-.111 1.164-.104a5.224 5.224 0 01.46.03l1.666-3.171a4.856 4.856 0 01-.346-.337 4.66 4.66 0 01-.72-1.005c-.218-.418-.374-.912-.35-1.447.026-.537.234-1.108.736-1.68.754-.86 1.78-.738 2.592-.418.407.16.768.372 1.026.544a5.91 5.91 0 01.367.264l3.146-2.443a4.343 4.343 0 01-.125-.403 4.173 4.173 0 01-.138-1.076c.006-.414.088-.86.326-1.262.238-.404.63-.756 1.246-.984.64-.237 1.195-.204 1.668-.019.47.185.854.518 1.154.877a5.556 5.556 0 01.862 1.485l3.488-.62.024-.085a5.12 5.12 0 01.122-.35 4.95 4.95 0 01.538-1.026zm9.83 13.132c-3.043-5.991-10.435-8.418-16.385-5.286-5.978 3.146-8.152 10.705-4.85 16.594 3.502 6.243 12.327 8.087 17.965 3.67 4.715-3.692 5.98-9.641 3.27-14.978z" fill="#000"/></svg>