<svg width="185" height="44" fill="none" xmlns="http://www.w3.org/2000/svg"><g clip-path="url(#a)" fill="#fff"><path d="M39.76 41.609c-2.91 1.465-5.859 1.705-8.849.72-3.176-1.014-5.912-3.172-8.208-6.476-1.228-1.759-2.282-3.797-3.163-6.115l-1.281-3.398h-9.45l-2.122 5.036c-.134.347-.2.626-.2.84 0 .213.04.453.12.72.106.239.307.465.6.679.32.186.668.28 1.041.28h.32v.4H0v-.4h.36c.614 0 1.215-.174 1.802-.52.614-.373 1.121-.92 1.522-1.639l8.929-20.345c-1.041-2.344-2.149-3.957-3.324-4.836-.987-.746-1.935-1.12-2.842-1.12-.881 0-1.709.134-2.483.4l-.08-.4C5.806 4.45 7.648 3.958 9.41 3.958c2.188 0 4.15.853 5.886 2.558 1.708 1.679 3.216 4.104 4.524 7.275l5.806 14.309c2.189 5.41 4.431 9.126 6.727 11.151.934.826 1.895 1.4 2.883 1.72.987.319 1.815.479 2.482.479.694 0 1.362-.08 2.002-.24l.04.4zM9.49 24.62h8.168l-2.803-7.394c-.133-.373-.32-.88-.56-1.519-.24-.666-.4-1.132-.481-1.399L9.49 24.621zm31.174-9.912c3.308 0 5.924.877 7.848 2.63 1.925 1.753 2.887 4.14 2.887 7.163 0 3.021-.962 5.409-2.887 7.162-1.924 1.753-4.54 2.63-7.848 2.63H30.49v-.28h.364c.486 0 .897-.168 1.234-.503.355-.355.542-.774.56-1.26V16.585a1.739 1.739 0 00-.588-1.12 1.696 1.696 0 00-1.206-.475h-.364v-.28h10.174zm-.364 18.41c1.345 0 2.504-.345 3.476-1.035.99-.709 1.747-1.707 2.27-2.994.523-1.306.785-2.835.785-4.588 0-2.65-.589-4.747-1.766-6.296-1.159-1.548-2.747-2.322-4.765-2.322h-3.447v17.235H40.3zm38.396 6.295c-2.037 1.026-4.101 1.194-6.194.504-2.224-.709-4.139-2.22-5.746-4.533-.86-1.23-1.597-2.658-2.214-4.28l-.897-2.379H57.03l-1.485 3.526c-.094.242-.14.438-.14.587 0 .15.028.317.084.504.074.168.215.326.42.475.224.131.467.196.729.196h.224v.28h-5.998v-.28h.252c.43 0 .85-.12 1.261-.363.43-.262.785-.644 1.066-1.148l6.25-14.24c-.729-1.642-1.504-2.77-2.326-3.386-.692-.523-1.355-.784-1.99-.784-.617 0-1.196.094-1.738.28l-.056-.28c1.345-.69 2.634-1.035 3.868-1.035 1.532 0 2.905.597 4.12 1.79 1.196 1.176 2.251 2.873 3.167 5.093l4.064 10.016c1.532 3.787 3.102 6.389 4.709 7.806.654.579 1.327.98 2.018 1.204.691.223 1.27.335 1.738.335.486 0 .953-.056 1.401-.167l.028.28zm-21.19-11.89h5.718l-1.961-5.177a74.66 74.66 0 00-.393-1.063c-.168-.466-.28-.793-.336-.98l-3.027 7.22zm74.418-18.495c.243 0 .495.01.757.028v.28c-2.205.168-3.793 1.212-4.765 3.134-.635 1.25-.953 2.835-.953 4.756v9.988c-.037 2.35-.794 4.188-2.27 5.512-1.476 1.306-3.588 1.959-6.334 1.959-2.729 0-4.905-.672-6.531-2.015-1.626-1.361-2.429-3.17-2.411-5.427V16.36c0-.392-.149-.718-.448-.98a1.463 1.463 0 00-1.037-.391h-.448v-.28h8.072v.28h-.449c-.579 0-1.009.223-1.289.671a1.223 1.223 0 00-.196.672V27.02c0 1.977.514 3.544 1.541 4.7 1.028 1.157 2.383 1.735 4.064 1.735h.056c1.664 0 3.028-.541 4.093-1.623 1.065-1.082 1.597-2.565 1.597-4.449V17.227c0-2.518.663-4.514 1.99-5.988 1.346-1.473 2.999-2.21 4.961-2.21zm-.862 24.985a1.68 1.68 0 001.233-.503 1.83 1.83 0 00.561-1.26V16.668c-.056-.652-.365-1.137-.925-1.455a1.83 1.83 0 00-.869-.223h-.365v-.28h7.876c.822 0 1.542-.065 2.159-.196.616-.13 1.018-.233 1.205-.308v4.897h-.308v-.336c.018-.84-.225-1.511-.729-2.015-.486-.522-1.149-.802-1.99-.839h-1.85v8.142h4.456c.692-.019 1.262-.252 1.71-.7.449-.466.673-1.035.673-1.706v-.252h.252v6.463h-.252v-.224c0-.69-.224-1.259-.673-1.707-.448-.447-1.009-.68-1.682-.699h-4.484v7.862h5.465c1.364 0 2.504-.392 3.42-1.175.934-.784 1.626-1.893 2.074-3.33h.28l-1.317 5.708h-16.285v-.28h.365zm19.87-7.666c-.748 1.194-1.122 2.416-1.122 3.665 0 1.362.495 2.602 1.486 3.722a5.516 5.516 0 002.046 1.482c.841.355 1.756.532 2.747.532.99 0 1.878-.187 2.663-.56 1.569-.764 2.354-2.014 2.354-3.749 0-.653-.224-1.343-.673-2.07-.43-.728-1.083-1.38-1.962-1.959l-4.765-3.19c-1.849-1.156-2.774-2.648-2.774-4.476 0-.186.009-.373.028-.56.112-1.436.682-2.601 1.709-3.497 1.047-.914 2.439-1.37 4.177-1.37 1.065 0 2.354.093 3.868.279h1.737l-.364 4.113h-.252c-.019-.97-.393-1.744-1.121-2.322-.729-.597-1.692-.896-2.887-.896-1.458 0-2.513.439-3.168 1.315a2.461 2.461 0 00-.476 1.455c0 .523.158.97.476 1.343.318.355.823.746 1.514 1.175l5.241 3.414c1.065.69 1.897 1.501 2.495 2.434.71 1.1 1.065 2.229 1.065 3.385 0 .746-.159 1.54-.477 2.379-.298.82-.803 1.585-1.513 2.294-.691.709-1.588 1.287-2.691 1.734-1.103.448-2.326.672-3.672.672-1.327 0-2.532-.233-3.615-.7-2-.839-3.27-2.303-3.812-4.392a5.743 5.743 0 01-.168-1.4c0-1.566.551-3.049 1.653-4.448l.253.196zm14.128-5.12c-.917-.877-1.374-1.819-1.374-2.826 0-.783.252-1.464.757-2.042.953-1.12 2.289-1.68 4.008-1.68h13.201a14.015 14.015 0 002.159-.195c.616-.13 1.009-.233 1.177-.308v4.869h-.28v-.336c0-.84-.253-1.52-.757-2.043-.505-.522-1.187-.792-2.046-.81h-3.784V32.28c.037.671.345 1.175.925 1.51.261.15.551.224.869.224h.364v.28h-8.521v-.28h.365a1.68 1.68 0 001.233-.503c.355-.336.541-.737.561-1.203V15.856h-5.466c-.766 0-1.439.14-2.018.42-1.177.56-1.766 1.436-1.766 2.63 0 .709.224 1.436.673 2.182l-.28.14z"/><path d="M88.664 1.201c.505-.726 1.334-1.403 2.6-1.145 1.144.233 1.62 1.119 1.807 1.927a4.885 4.885 0 01.11 1.426l-.007.078 3.34 1.862.056-.063c.064-.07.158-.167.276-.279.237-.223.574-.504.974-.732.4-.228.868-.406 1.364-.418.499-.013 1.02.143 1.525.573.495.422.734.904.812 1.39.078.482-.005.964-.148 1.39a5.015 5.015 0 01-.514 1.061c-.083.133-.158.24-.213.313l-.049.066 2.134 2.943a4.43 4.43 0 01.445-.097 5.517 5.517 0 011.16-.085c.882.035 1.894.341 2.321 1.445.258.665.247 1.232.081 1.707-.166.473-.483.848-.828 1.136a4.578 4.578 0 01-1.011.625 5.007 5.007 0 01-.355.147l-.077.027.387 3.6.088.03a5.679 5.679 0 011.405.71c.741.522 1.443 1.35 1.195 2.535-.239 1.142-1.145 1.656-1.972 1.884a5.29 5.29 0 01-1.546.18l-.916 1.538-.908 1.523 11.163 10.468h.001l.001.002.005.004.02.019.072.07c.06.062.143.151.237.263.189.224.422.542.597.915.175.372.293.802.247 1.25-.048.45-.26.91-.734 1.338-.472.426-.947.625-1.397.68a2.487 2.487 0 01-1.222-.174 3.655 3.655 0 01-1.159-.753l-.017-.016-.004-.004-10.762-9.948-3.14 2.207.024.078c.026.086.06.21.094.362.068.303.131.717.116 1.16-.015.444-.11.92-.363 1.344-.254.425-.665.791-1.302 1.017-.638.226-1.198.194-1.678.015-.477-.178-.87-.5-1.181-.846a5.232 5.232 0 01-.902-1.434l-3.64.541a4.073 4.073 0 01-.073.439 3.868 3.868 0 01-.396 1.064c-.213.377-.522.741-.969.977-.447.236-1.027.34-1.773.207-.622-.11-1.043-.384-1.32-.735-.275-.35-.403-.772-.454-1.174a4.23 4.23 0 01.017-1.074 4.903 4.903 0 01.077-.412l-3.53-1.898a5.159 5.159 0 01-.314.34 4.843 4.843 0 01-.932.731c-.385.227-.839.402-1.324.408-.489.006-1.003-.16-1.507-.601-1.014-.889-1.012-1.985-.761-2.846a4.848 4.848 0 01.713-1.45l-2.29-2.983a4.71 4.71 0 01-1.487.258c-.415-.004-.862-.079-1.264-.303-.403-.225-.755-.596-.98-1.181-.453-1.182.124-2.124.794-2.758a5.894 5.894 0 011.396-.955l-.544-3.685a4.946 4.946 0 01-1.418-.598c-.713-.455-1.393-1.222-1.193-2.438.103-.628.388-1.073.76-1.383.37-.309.82-.482 1.254-.576a5.05 5.05 0 011.164-.104 5.266 5.266 0 01.46.031l1.666-3.172a4.922 4.922 0 01-1.066-1.342c-.218-.418-.374-.911-.35-1.446.026-.537.234-1.108.736-1.68.754-.861 1.78-.738 2.592-.419.407.16.768.373 1.026.544a5.842 5.842 0 01.367.265l3.146-2.443a4.343 4.343 0 01-.125-.403 4.173 4.173 0 01-.138-1.077c.006-.413.088-.86.326-1.262.239-.403.63-.756 1.246-.983.64-.237 1.195-.205 1.668-.02.47.185.854.519 1.154.878.302.358.523.745.668 1.042a5.502 5.502 0 01.194.442l3.488-.619c.005-.022.014-.05.024-.085.027-.085.066-.206.122-.35.11-.286.285-.663.538-1.026zm9.83 13.132C95.45 8.34 88.059 5.915 82.109 9.046c-5.978 3.147-8.152 10.706-4.85 16.594 3.502 6.244 12.327 8.087 17.965 3.671 4.715-3.692 5.98-9.641 3.27-14.979z"/></g><defs><clipPath id="a"><path fill="#fff" d="M0 0H185V44H0z"/></clipPath></defs></svg>