<svg width="21" height="2598" fill="none" xmlns="http://www.w3.org/2000/svg"><circle cx="10.5" cy="10.5" r="10.5" transform="matrix(-1 0 0 1 21 306)" fill="#E60076"/><circle cx="10.5" cy="10.5" r="10.5" transform="matrix(-1 0 0 1 21 543)" fill="#E60076"/><ellipse cx="10.5" cy="10" rx="10.5" ry="10" transform="matrix(-1 0 0 1 21 794)" fill="#E60076"/><circle cx="10.5" cy="10.5" r="10.5" transform="matrix(-1 0 0 1 21 1040)" fill="#E60076"/><circle cx="10.5" cy="10.5" r="10.5" transform="matrix(-1 0 0 1 21 1275)" fill="#E60076"/><path d="M0 1546c0 5.52 4.701 10 10.5 10s10.5-4.48 10.5-10-4.701-10-10.5-10S0 1540.48 0 1546z" fill="#E60076"/><ellipse cx="10.5" cy="10" rx="10.5" ry="10" transform="matrix(-1 0 0 1 21 1795)" fill="#E60076"/><ellipse cx="10.5" cy="10" rx="10.5" ry="10" transform="matrix(-1 0 0 1 21 2034)" fill="#E60076"/><ellipse cx="10.5" cy="10" rx="10.5" ry="10" transform="matrix(-1 0 0 1 21 2297)" fill="#E60076"/><ellipse cx="10.5" cy="10" rx="10.5" ry="10" transform="matrix(-1 0 0 1 21 2555)" fill="#E60076"/><ellipse cx="10.5" cy="10" rx="10.5" ry="10" transform="matrix(-1 0 0 1 21 72)" fill="#E60076"/><path transform="translate(8)" fill="#E60076" d="M0 0H5V2640H0z"/></svg>